<?xml version="1.0" encoding="utf-8"?>
<!-- Generator: Adobe Illustrator 18.1.1, SVG Export Plug-In . SVG Version: 6.00 Build 0)  -->
<!DOCTYPE svg PUBLIC "-//W3C//DTD SVG 1.1//EN" "http://www.w3.org/Graphics/SVG/1.1/DTD/svg11.dtd">
<svg version="1.1" id="Layer_1" xmlns="http://www.w3.org/2000/svg" xmlns:xlink="http://www.w3.org/1999/xlink" x="0px" y="0px"
	 viewBox="325.1 0 557.6 560" enable-background="new 325.1 0 557.6 560" xml:space="preserve">
<g id="Layer_7">
	<g>
		<g>
			<g>
				<defs>
					<rect id="SVGID_1_" x="325.1" y="-288.1" width="633.6" height="848.5"/>
				</defs>
				<clipPath id="SVGID_2_">
					<use xlink:href="#SVGID_1_"  overflow="visible"/>
				</clipPath>
				<g clip-path="url(#SVGID_2_)">
					<path fill="#FFCB45" d="M872.8-1502l9.6-1.8l17.5-0.3l16.2-8.5l36.1-1.8l16.7,7.9h3.3l3.2,11.8l-1.7,3.5l6.7,37.3
						c0,0,4.6,73.6,5.8,78c-0.9,5.2-3.8,16.2-3.8,18.5c0,2.4,5.2,43.9,5.5,45.1c0.3,1.4-3.5,24.4-3.5,24.4s2.6,16.4,2.6,18.4
						s-0.6,28.1-0.3,30c0.5,2,2.4,10.9,2.4,10.9s-4.6,52.5-4.6,57.4c0,4.9,0.9,24.1,0.6,26.3c-0.3,2-2.4,15.6-2,21.1
						c0.5,5.3,2.9,11.5,2.9,15.5c0,4.1-0.3,66.9-0.6,69.5c-0.5,2.7,0.6,14.1,2,19.7c1.2,5.6,4.1,23.4,3.8,27.6s-3.8,35.1-4.9,36.4
						c-0.9,1.4,1.2,5,1.2,5s-1.4,8-1.7,10.3c-0.3,2.3,1.4,56.2,0.9,58.1c-0.5,2-3.8,20.2-3.8,22.2c0,2,2,45.4,0.3,51.9
						c-1.7,6.5-2.1,15.6-2.1,18.8c0,3.2,0.9,42.6,1.7,45.8c-0.6,3.5-7.1,26.9-7.4,29.6s1.7,34.4,3.2,39.8
						c-2.6,5.2-2.9,15.3-2.6,20.3c0.3,5.2-2.4,32.6-2,36.1c0.5,3.5,1.7,8.5,1.2,18.5s-1.2,28.8-1.2,28.8s-4.1,14.6-4.6,24.7
						c-1.7,8.5-2,20.3-2.4,23.5s-3.8,17.5-4.1,19.4s0.5,9.9-0.6,13.1c-1.1,3.2-3.3,9.7-2.9,17.8c-0.6,8.3-3.2,59.5-3.3,69.2
						c-0.3,9.7-3.3,18.8-4.2,25c-0.9,6.2-0.3,14.4-1.2,17c-0.9,2.7-2.6,7.1-2.6,9s-2.4,26.7-3.8,29.7c-1.4,3-2.1,10-2.4,13.8
						c-0.3,3.8-2.4,15.3-2.6,22.9c-0.3,7.6-2.6,50.4-3.2,55.1c-0.5,4.7-3.2,20.2-3.2,22.6c0,2.4-0.6,35.1-0.9,41.3
						c-0.3,6.2-1.4,15-1.2,17.9c0.3,2.9-2.1,15.5-3.2,18.8c-0.9,3.3-3.5,6.5-5.2,7.6c-1.7,1.2-3.3,14.1-4.2,15.9
						c-0.9,1.8-4.2,9-6.2,9.7c-2,0.6-3.5,1.8-4.2,3.3c-0.8,1.5-3.2,8.3-4.2,9.7c-1.2,1.4-1.7,0.3-2.4,3.2
						c-0.6,2.9-9.9,24.1-10.5,26.7c-0.6,2.4-2.6,11.2-4.1,13.2c-1.4,2-2.9,12.7-4.6,16.5c-1.7,3.8-1.7,4.7-1.7,4.7l-9.9,19.4
						c0,0,0,7.9-1.5,10.6c-1.7,2.7-3.3,8.3-3.5,13.5c-0.9,4.1-2.4,18.8-4.6,22.6s-3.3,10.6-3.3,13.7c0,3,0.3,32,0,33.5
						s-5.2,27.3-6.4,30.7c-1.2,3.3-13.2,32.3-14.4,36.6c-1.2,4.2-11.2,53.6-11.2,53.6s-9,43.6-9,48s0.5,13.7-1.4,19.4
						c-2,5.8-10.9,70.4-10.9,70.4s-7.7,48.6-7.1,53.4s0.9,15.9,0,19.1c-0.9,3.2-6.1,18.5-6.7,24.4c-0.6,5.9-0.5,11.5-2.1,15.6
						c-1.7,4.2-1.7,14.4-5,20.9c-3.3,6.5-10.9,28.8-11.2,31.4c-0.3,2.6-13.7,60.6-14.4,63.7c-0.6,3.2-3.3,12.1-3.8,15.9
						c-0.5,3.8-2.6,13.5-3.3,15.3c-0.6,1.8-2.6,5.9-2.9,10.8c-0.3,5-0.9,33.2-2.4,37.9c0,5.2,3.3,67.7,3.3,70.4
						c0,2.7,0.5,16.8,0.6,17.8c0.2,0.9,6.2,9.7,8,10.8s83.2,36.4,83.2,36.4l20.2,8.8l-1.4,3.3l-88-37.6l-1.7,2L745,762.7v-2.4
						l-121.9-52.2l-4.1-7l5.8-3.3l-2.4-2.4l-4.9,2.4c0,0-46.7-67.4-49.3-71.6c-2.4-4.2-44.2-67.1-46.7-76
						c-2.6-9-11.2-30.7-11.8-38.9c-0.6-8-9.6-40.4-10-45.1c-0.5-4.7-2.1-32.6-2.1-32.6l1.7,0.3c0,0-3.2-42.9-4.2-49.5
						c-1.2-6.5-6.1-32.8-6.1-32.8l-2,0.3l-0.9-4.2l2-0.3c0,0-4.6-16.2-19.6-31.9c-15-15.6-21.7-35.4-22.2-38.5
						c-0.5-3.2-2-11.7,2-16.4c3.8-4.7,13.4-17,15.3-28.5c2-11.5,1.4-25.6,1.4-25.6l0.3-13.2c0,0,11.8-8.3,14.4-9.1
						c2.4-0.9,16.2-8,18.4-9.7c2.1-1.5,5.5-4.1,5.5-4.1l1.2,1.5l1.2-0.9l-1.4-1.8l22.8-12.7l-0.6-2.1l-12.1,7.4
						c0,0-40.4,22.9-42.8,23.4s-11.8,2.7-11.8,1.5c-0.3-1.2,0-7.1,0.3-8.8c0.3-1.5-2-1.2-1.7-2.7c0.3-1.5-0.3-5.2,0.6-6.7
						c0.9-1.5-0.9-10.6-0.9-14.7c0-4.2,0.5-11.2-0.5-19.1c-0.9-7.9-2.1-45.5-1.4-46.4c0.8-0.9,64.7-1.5,65.7-2.3
						c1.2-0.6-2.1-6.7-2.1-6.7s-57.2,2.1-60.1,2.1c-2.9,0-7.1-1.5-8-2.4c-0.9-0.9-16.5-17.3-16.5-20.6s0.6-9.9,4.6-12.6
						c3.8-2.7,43.9-2.9,43.9-2.9l-7-5.6c0,0-49.5,2-51.6,1.5c-2.1-0.5-8-6.1-8.7-9c-0.5-2.9-3.8-8.3-4.9-9
						c-0.9-0.6-0.5-9.4,1.2-11.2c1.7-1.8,2.1-4.1,2.1-4.1s5-1.8,11.2-2.3s97-2.4,99.3-2s9,2.7,10.8,8.8c2,6.1,0,19.7-2.9,22.6
						c-2.9,2.9-7.7,5-7.7,5l-41.9-0.3c0,0,3.5,4.2,4.9,4.4c1.2,0.3,34.6-1.4,36.9-0.9c2.1,0.5,9.3,5.6,10,10.3
						c0.6,4.7-0.3,15.9-1.7,18.4s-9.6,8.3-9.6,8.3l3.5,6.1c0,0,7.1-4.4,7.9-6.1c0.6-1.5,3.3-8.5,4.1-12.6c0.6-4.1-0.6-24.1,0.3-25
						c0.9-1.1,13.2-1.4,16.5-3.2c3.3-1.8,5.8-3.5,5.2-13.5c-0.6-10-2.4-99.9-2.4-99.9s-4.1-7.1-6.7-7.4c-2.6-0.3-11.5-3.2-11.8-7.4
						c-0.5-4.2,0-10.9,0-10.9l-9.9,0.9c0,0,0.9,14.6,0.3,17c-0.6,2.4-6.2,9.1-9.6,10.3c-3.3,1.2-62.8,3.2-62.8,3.2l0.3,13.5
						c0,0,56-1.5,60.9,0c5,1.5,11.5,4.7,12.4,11.8s0.9,27.6,0.5,29.7c-0.5,2-3.2,7.4-7.1,8.3c-3.9,0.9-92.1,5.3-113.4,3.5
						c-8.3-2.9-10.5-7.1-10.5-19.1c0-11.8,0-17.3,0-18.4s0.9-2.7,1.4-4.4c0.5-1.7,0-6.1,7.9-9c3.2-1.2,43.6-1.5,43.6-1.5l-0.5-13.8
						c0,0-24.1,0.9-27,0c-2.9-0.9-10.5-4.2-10.5-5.9s1.4-2.9,1.4-2.9s-2.1-3.8-0.6-7c1.5-3.2,6.4-13.7,8-15
						c1.7-1.4,18.2-20.3,47.7-23.1c29.4-2.7,54.2,7.6,56.3,12.7c0,2.9,1.4,6.7,1.4,6.7h9.3c0,0-0.6-9.9,0.3-10.9
						c0.9-1.2,18.2-20.3,18.2-20.3l39.3-40.8c0,0,9.9-9.9,10.5-11.7c0.6-1.8,1.7-8.5,0.3-9.4c-1.4-0.9-112.9-3.5-115.5-3.2
						c-2.6,0.5-35.2-0.3-36.9,0.3c-1.7,0.5-4.9-0.5-7.6-0.5c-2.9,0-5.8,0.3-9,0.5c-3.2,0.3-5.2-0.9-9.6-1.2
						c-4.2,0-12.4-0.5-12.4-0.5s-2.6-0.3-2.4-4.4c0.3-4.2-1.2-8.3,3.2-8.8c4.2-0.5,6.7,0,6.7,0s3.5-2.9,9-2.7
						c5.5,0.3,7.9-4.2,14.4-4.1c6.5,0.3,42-40.1,42-40.1s61.5-57.1,70.7-59.8c3.3-2.3,5.5-5.6,9-6.2c3.3-0.6,10.5-0.9,12.7-4.1
						c2.3-3.2,0.3-16.8,0.9-19.3c0.6-2.4,3.3-2,3.2-6.7c-0.3-4.7-2.4-3.5-0.5-9.1c1.8-5.6,5-9.1,8-9.9c3.2-0.6,8.7-4.4,10.5-7.4
						c1.8-3,0.6-6.1,6.4-9.4c5.8-3.3,5.2-10.3,2.6-13.5c-2.6-3.2-9-7.4-9-13.5s-3.3-26,0.3-29.4c3.5-3.3,15.3-14.6,15.8-16.5
						s0.3-6.1-1.4-8.8c-1.7-2.7-0.5-5.9,4.9-9.7c5.2-3.8,6.2-8.3,6.4-13.2c0.3-5,3.2-9.4,7.7-11.5c4.6-2,34-21.2,35.8-22.2
						c1.8-0.9,5.5-2.3,8.3,1.2c2.9,3.3,10,10,10,10l5.8-4.4c0,0-14.6-14.6-15-17.5c-0.5-2.9-1.4-10-0.5-13.8
						c0.9-3.8,5.5-13.8,6.7-15.5c1.2-1.5,7.1-10.6,7.9-11.7c0.6-1.2,11.5-6.7,14.6-8.8c3.2-2,18.2-13.1,21.6-19.4
						c3.3-6.2,16.5-26.7,17.6-35.7s1.2-10,1.2-10v-2.3l1.4-0.3c0,0-1.2-4.4-0.3-5.9c0.9-1.4-0.6-1.4-0.6-1.4l-0.3-1.8l1.2-0.3
						c0,0,0-6.5-0.3-8.8c-0.3-2.3-2.4-7-2.1-8.5c0.3-1.5-0.9-8.3-2.4-9.1c-1.4-0.9,0.9-5.3-4.1-13.7c-5-8.3-36.1-50.5-39.6-55.8
						s-17.6-20.9-2.6-57.2c3.2-11.8,4.9-21.2-0.6-36.4c-5.5-15.2,19.9-18.8,28.7-25.3c8.8-6.5,42.3-29.1,54.5-47
						c12.1-17.9,22-32.6,25-33.5c-0.5-2-1.7-5-1.7-5s-52.8,10.8-55.2,10.8c-2.4,0-32.3,2.7-40.1-3.8c-7.9-6.5-10.9-16.2-10.3-26.9
						c0.6-10.8,16.1-28.2,29.7-37.5c13.7-9.1,24-12.3,43.3-13.1c19.4-0.6,20.5-2.9,30.4,0s15.8,8.5,21.2,13.5c5.5,5,9,16.8,9.3,21.9
						c0.3,5,4.2,27.3,4.1,28.5c-0.3,1.2-28.2,5.6-28.2,5.6l0.9,5.2c0,0,26.9-5.2,28.5-4.7c1.7,0.5,17.5,53.3,17.5,53.3
						s13.4-2,14.1-2.4c0.8-0.5-9-53.4-9-53.4s-10.3-61-10.8-63.6c-0.5-2.4-0.6-13.5,10.9-17c11.8-3.5,19.9,7,20.5,13.1
						c0.6,6.1,19.4,115.8,19.4,115.8l17.5-2.4c0,0,3.5-12.7,3.3-25.3s-0.5-30.4-4.1-39.8s-8-50.5-9-54.2c-0.9-3.5-26.3-58.3-30.7-61
						c1.2-1.2,1.2-1.2,1.2-1.2s-8-9.4-9-12.1c-0.9-2.7-2.4-7.9-5.2-11.8c-2.9-4.1-8.3-13.1-8.3-13.1s-17.9,0.9-18.7,0.3
						c-0.6-0.6-11.8-16.8-11.8-16.8h-9.9c0,0,8.3,10.9,9.9,15c1.4,4.1,10.9,18.5,13.8,22c2.9,3.3,10.5,12.6,2.9,22.6
						c-7.7,10-19.1,7.6-34.4,8.8c-15.3,1.2-52.5,2.7-56.9,2.9c-4.2,0.3-32.8,10.3-38.1,13.5c-5.3,3.2-13.4,7.6-14.1,9.1
						c-0.8,1.5-2,2-4.1,3.3c-2.1,1.4-16.2,14.4-24.1,18.2s-24.6,15-45.2,20.9s-54,8.3-65,7.4c-10.9-0.9-46.1-11.8-52.2-15.5
						c-6.1-3.6-42.3-27.9-49.6-39.6c-7.3-11.7-22.5-47.2-23.5-65.6c-1.1-18.2,10.5-59.6,22-78.8c11.5-19.3,48.3-45.8,70.3-51.3
						c22-5.5,37.3-9,46.1-9c8.8,0,131.1-2.4,137.3-2c6.2,0.5,28.4,15.6,28.4,15.6s21.4,29,25.2,34.4c3.8,5.5,17.3,29.3,19.9,29.3
						c2.6,0,4.7,3,7.3,6.4c2.6,3.3,4.2,8.3,6.8,9.4s13.1,16.2,13.1,16.2l10.5-0.5c0,0-10.5-11.8-10.5-13.4c0-1.4,38.9-3,38.9-3
						s1.1-10.3-0.5-12.3c-1.5-2-4.6-8.8-5.6-9.9c-1.1-1.2-3.3-3.3-4.4-3.3c-1.1,0-2.9,0.9-2.9,0.9s-0.6,2.4,0.6,3.8
						c1.2,1.4,2.6,4.2,4.2,5.2c1.7,0.8,6.2,4.2,6.7,6.2c0.5,2,1.1,4.6-0.5,5.2c-1.4,0.5-31.9,2.1-34.1,2c-2.3-0.2-5.5-1.5-7.9-5.5
						c-2.4-4.1-24.7-35.1-25-36c-0.3-0.9-1.2-15.3-1.1-16.4c0.3-1.2,10.3-10.9,13.7-11.4c3.3-0.5,22.3-2,24.1-1.5
						c1.8,0.5,5.5,2.3,5.5,3.8c0,1.5-1.4,18.4-2.4,20.2c-1.1,2,0.6,2.9,1.4,4.7c0.8,1.8,12.6,9.3,12.9,12c0.5,2.6,2.4,3,4.1,2.4
						s2.4-4.2,1.2-6.7c-1.2-2.3-8-2.6-9.7-3.8c-1.5-1.2-6.2-4.2-6.2-7.4c0-3,0.3-1.7,1.8-5.9s2.6-19.1,1.4-21.2c-1.2-2.1-1.4-3-7-3
						c-5.5,0-22,0.9-23.7,0c-1.8-0.9-2.3-21.2-2.1-22.5c0.3-1.2-5.2-1.2-5.2-0.2c0,0.9,1.1,20.9,0,23.2c-1.1,2.3-8.5,9.3-10.2,9.7
						c-1.7,0.5-3.6-1.5-3.3-4.2c0.3-2.9,0.8-28.8,0.8-28.8l-3-0.2c0,0,0.8,15-0.5,15.5c-1.2,0.5-7.4-0.8-11.1-5.3
						c-3.6-4.6-15.8-15.3-19.9-17.5c-4.1-2.1-20.5-10.5-24.1-11.8s-15.2-4.1-17.6-4.2c-2.4-0.5-10.2-3-19.6-3c-9.4,0-72.8,2-72.8,2
						s-85.7,2.3-88.3,2.3s-2.9-1.5-4.9-1.5c-2.1,0-0.3,2.3-2.1,2.1s-8.3-0.5-11.4-2.6c-3-2.3-9.9-8.2-10.9-12.1
						c-1.1-4.1-1.8-13.4,0-15.8c1.8-2.4,6.5-11.8,14.4-13.4c7.9-1.5,173.8-5.2,175.9-5.3c2.1-0.3,15.8-2.3,17.5-2.9
						c1.5-0.5,34.1-11.4,43.7-21.2s20.2-20.2,21.4-21.6c1.4-1.4,3.3-2,5.5-1.2c2.1,0.8,4.1,1.2,4.9-0.5c0.8-1.5-1.1-19.3-6.2-22.2
						c-5.2-3-5.9-4.7-24.1-3.8c-18.2,0.9-148,2.1-149.6,1.5c-1.5-0.5-4.9-2.9-4.7-5.8c0.3-2.9-0.5-9.1,2.4-10.9
						c2.9-2,3.3-3.8,6.7-3.3c3.3,0.5,151.9-5,154.5-5.3c2.6-0.5,24-20.2,25.5-20.3c1.5-0.3,77.9-5.8,79.5-2.6
						c1.5,3,2.9,19.1,2.9,19.1l10.9-0.2"/>
					<path fill="#3FB2CB" d="M861.7-909.8l14.1-2.4c0,0,3.2,14.3,3.6,17.3c0.5,3,9.4,27,12,28.5c2.6,1.5,11.5,3.3,13.1-3
						c1.5-6.4,5.2-14.7,5.8-19.3c0.5-4.4-3.2-29-3.2-29l17.3-2.4c0,0,0,29,0,37.3c0,8.3-1.5,30.5-3.2,35.4c-1.5,5,2.1,10.3,3.2,18.2
						c1.1,7.9-1.1,50.5,0,57.1c1.1,6.4,4.2,10.9,3.2,17.3c-1.1,6.4,2.1,25.5,2.6,31.6c0.5,5.9-5.8,26.6-7.3,31.9
						c-1.5,5.3-9.4,65.4-9.4,74.7s7.3,54,6.8,65.9s-16.7,90.1-16.7,95.9s-1.5,33.8-3.2,44.2c-1.5,10.3-9.9,54-10.9,59.3
						c-1.1,5.5-5.2,32-5.8,41.3s-5.8,40.8-9.9,49.2c-4.2,8.3-6.8,30.5-6.2,36.4c0.5,5.9,0.5,22.6-0.5,26.6c-1.1,3.9,3.6,17.3,3.2,25
						c-0.5,7.9-12,27-18.8,32.9c-6.8,5.9-19.4,27.9-19.4,30.5c0,2.4-0.5,2.4-3.2,7c-2.6,4.4-6.8,21.6-6.8,24.6s-1.1,28.5,0,31.6
						c1.1,3,10.5,4.4,10.9,7.9s1.1,18.7-1.5,24.6s-8.2,11.8-9.9,13.2c-2.7,0-3.2-0.9-5,0.9c-1.7,1.8-4.7,3.9-4.7,3.9s1.1,4.4,0,6.2
						c-1.1,1.8-2.7,9.3-4.4,9.6c-1.7,0.3-3.3-0.9-2.7-6.7c0.6-5.8,0.8-5.8-0.2-6.7c-0.9-0.9-0.8-2.3,0-4.1c0.8-1.8,3.5,0.3,6.5-4.1
						s5.9-11.1,6.7-19s0.8-52.5,1.2-56.2c0.5-3.6,3.6-24.1,7.6-31.3c3.9-7.1,22.2-46,24-49c1.7-3,4.7-11.4,5.6-21.6
						c1.1-10.2-1.1-36.1-0.5-40.2c0.6-4.1,0-10.5,0-13.2s3-34,4.4-38.4c1.4-4.4,5.9-31.9,5.9-35.7s-0.3-6.5-0.3-6.5l1.4-1.2
						c0,0,4.4-32.2,5.6-35.2c1.2-3,7.1-21.6,7.6-25.5c0.5-3.9-3.6-17.5-3.6-20.6s-3.6-56.8-3.3-60.4c0.5-3.6,16.4-51.4,20.9-59.5
						c2-3.5,0.8-21.6,0.8-23.1c0-1.5-2.3-4.9-2.3-6.5c0-1.5-2.7-28.2-3.6-33.1c-0.9-4.9-1.7-52.5-1.7-57.1s0.8-31.7,1.2-34.4
						c0.5-2.7,6.4-24.1,7.6-26.4c1.2-2.4,6.4-8.8,6.4-11.4s-0.8-6.1,0-8.3c0.8-2.4-3.3-21.9-3.3-26c0-4.2-0.5-11.5,0.3-12.9
						s2.7-4.6,2.7-7.6s-3.3-8.8-3.3-12.7s-0.5-39.6-0.5-40.5s-22.5-58.9-26-65.1C869.4-887.5,861.7-909.8,861.7-909.8z"/>
					<path fill="#C6E4CB" d="M358.5,171.6c1.2-2.4,5.8-10.3,9.1-11.8c0-1.4,0-2.3,1.1-2.4c1.1-0.2,5.6-2.4,7.6-2c2,0.5,0.2,2,2,2
						c1.8,0,4.6-0.9,4.6-0.9s-0.2-0.9,0.6-1.2c0.8-0.3,5.6-0.5,5.6-0.5v1.8c0,0,5.2-1.1,7.4,0s15,10.6,16.4,11.1
						c1.4,0.5,6.7,5,9,7.6c2.3,2.6,6.1,7.6,7.1,8.2c1.1,0.6,2.1,0.8,2.7,2.4c0.5,1.7-0.6,0.6-0.6,0.6s10.9,16.1,12.4,19
						c1.5,2.9,2.4,6.1,0,7.7s-24.6,19.4-26,20.2s-8.3,2.9-11.8,2.6c-3.5-0.3-6.8-0.9-8.8-2c-2-1.1-26.1-11.1-27.3-12.1
						c-1.2-1.1-4.7-3.8-4.6-5.2c0.2-1.2-3-7.1-4.6-9.3c-1.5-2.1-5.5-8-5.5-8l-2,0.3l-0.5-1.8l2-1.4c0,0-3.3-3.6-2-10.2
						C353.9,179.8,358.5,171.6,358.5,171.6z"/>
					<path fill="#C6E4CB" d="M325.4,189.2c1.1-1.2,3.2-3.6,4.2-3.5c1.1,0.2,3.3,1.4,4.9,0.9c1.5-0.5,3.3-0.9,6.7,0.9
						c3.3,1.8,2.3,4.7,1.5,5.2c-0.8,0.6-9.1,0.5-10.6,0.5c-1.4,0.2-6.5,0.9-6.7,0.3C325.1,192.7,324.9,189.7,325.4,189.2z"/>
					<path fill="#C6E4CB" d="M308.8,427.8c0-5.2,11.8-23.4,20.5-24.1s24.9-1.4,29.9,5.2c5.2,6.7,9.4,7.9,11.8,24.9
						c2.4,17,13.1,86,13.1,89.2c0,3.3,0,21.2-15.8,26.7c-15.8,5.6-22.2,4.4-28.8,0S326,546,323,532.9
						C319.9,520,308.8,427.8,308.8,427.8z"/>
					<path fill="#C6E4CB" d="M411.4,594.3c-0.8,1.2-0.6,3,1.2,6.1c1.8,3,28.4,43.7,28.4,44c0,0.5-1.4,3.3-1.7,2.9
						c-0.3-0.5-88-40.2-88.3-40.1c-0.5,0.2-1.4,3-2.1,3c-0.6,0-12.7-4.4-12.7-5.5s2.6-5.9,2.3-6.4c-0.5-0.5-18.1-5.9-22.3-7.4
						c-4.2-1.5-75.6-34.4-75.6-34.4l-68-30.5l-99.1-44L-48,427.5l5-8c0,0,95.5,43.9,96.8,44c1.4,0.3,4.2,0.2,8.2,2.3
						c3.9,2.1,95.9,42.9,95.9,42.9s170.9,77.2,173.3,77.9c2.4,0.5,23.5,6.2,35.4,5.6s26.3-4.2,29-6.2c2.7-2,5.8-0.2,6.1,1.4
						c0.3,1.5,6.4-2.4,6.4-2.4L411.4,594.3z"/>
					
						<line fill="none" stroke="#FFFFFF" stroke-width="3" stroke-linecap="round" stroke-linejoin="round" stroke-miterlimit="10" x1="715.7" y1="43.8" x2="722.1" y2="189.8"/>
					<path fill="none" stroke="#FFFFFF" stroke-width="5" stroke-miterlimit="10" d="M722.1,193c0.5,10.2,2.7,95.9,2.7,95.9
						L713,369.3l-67.5,325.2l44.2,20.8"/>
					
						<path fill="none" stroke="#FFFFFF" stroke-width="5" stroke-linecap="round" stroke-linejoin="round" stroke-miterlimit="10" d="
						M612.5-317.7c0.8,11.5-2.4,17.5,9.3,29.7c11.7,12.3,24.6,18.1,23.1,36.9s-10.6,76.6-16.1,86.7c-5.5,10-35.4,28.1-37.8,57.1
						c3.8,31.7,7,132.9,4.6,143.7c-2.4,10.8-60.9,68.7-63.1,80.6c-2.4,11.8,10.8,418.6,11.5,425.7c0.8,7.1,74.7,114.1,75.4,120.7
						c0.8,6.5,2.4,11.5,5.3,12.3c3.2,0.8,90.8-3.6,90.8-3.6"/>
					
						<path fill="none" stroke="#FFFFFF" stroke-width="3" stroke-linecap="round" stroke-linejoin="round" stroke-miterlimit="10" d="
						M497.6,174.3c7.1,2.6,300.9-6.7,300.9-6.7"/>
					
						<path fill="none" stroke="#FFFFFF" stroke-width="4" stroke-linecap="round" stroke-linejoin="round" stroke-miterlimit="10" d="
						M827.7-909.8c2.7,5.6,27.6,65.6,31.1,90.3s10,83.3,0,121.7c-10,38.5-7.6,95-6.1,101.4c1.5,6.1,7.9,18.8,7.9,18.8
						c1.7,7,7.3,45.4,3.3,59.9c-3.9,14.6-25.3,53.9-21.2,73.9c4.1,20,9.6,31.6,9.1,36.4c-0.5,4.9-19.4,131-23.8,138.4
						c-4.4,7.3-7.4,12.9-9.3,24.7c-1.8,11.8-16.7,145.8-17.5,149c-0.6,3.2-4.1,13.2-14.9,19.4c-10.8,6.2-11.5,14.3-12.6,22
						c-1.2,7.7-9,58.9-12.3,64.5c-3.3,5.6-3.3,8-9.3,11.5c-5.9,3.5-276.8,157.8-279.1,158.9s-17.1,4.2-24.9,4.6
						C440.4,186,192,197.9,186.7,198c-5.3,0.2-155.1,7.4-160,8.7"/>
					
						<path fill="none" stroke="#FFFFFF" stroke-width="3" stroke-linecap="round" stroke-linejoin="round" stroke-miterlimit="10" d="
						M724.1,268.1c-5.6,0.5-235.5,6.7-235.5,6.7"/>
					
						<path fill="none" stroke="#FFFFFF" stroke-width="3" stroke-linecap="round" stroke-linejoin="round" stroke-miterlimit="10" d="
						M642.4,639.3l-11.7-356.5c0,0-6.7-179.8-6.8-185.1c-0.3-10.6,41.4-91.8,41.4-91.8s4.9-72.1,7.1-73.8c2.3-1.7,3.6-3.3,7.1-2.9
						c3.6,0.5,16.5,2.3,16.5,2.3L801-95"/>
					
						<path fill="none" stroke="#FFFFFF" stroke-width="3" stroke-linecap="round" stroke-linejoin="round" stroke-miterlimit="10" d="
						M699.9,542.2c-1.1,4.7-28.2,131.7-28.2,131.7"/>
					
						<path fill="none" stroke="#FFFFFF" stroke-width="3" stroke-linecap="round" stroke-linejoin="round" stroke-miterlimit="10" d="
						M513.7,391.1c3,0,192.3-5.5,195.5-4.9c3.3,0.6,39.2,7.7,42.6,7.7"/>
					
						<path fill="none" stroke="#FFFFFF" stroke-width="3" stroke-linecap="round" stroke-linejoin="round" stroke-miterlimit="10" d="
						M495.5,417.6c5.2,0,207.9-4.7,210.9-4.7c3,0,36.9,6.1,40.8,4.7c4.1-1.4,14.1,0.3,14.1,0.3"/>
					
						<path fill="none" stroke="#FFFFFF" stroke-width="3" stroke-linecap="round" stroke-linejoin="round" stroke-miterlimit="10" d="
						M700.8,539.8c9.7,0.2,32.8-0.8,35.8-2.3"/>
					
						<path fill="none" stroke="#FFFFFF" stroke-width="3" stroke-linecap="round" stroke-linejoin="round" stroke-miterlimit="10" d="
						M661.8,171.1c-0.6-14.7-2.4-90.6-2.4-90.6s-1.2-9,8.5-27.2c9.7-18.2,20.5-42,20.5-42l8-80"/>
					
						<path fill="none" stroke="#FFFFFF" stroke-width="3" stroke-linecap="round" stroke-linejoin="round" stroke-miterlimit="10" d="
						M660.9,673.9l27.5-131.7l3.3-18.2c0,0,30.8-143.7,31.6-148.1c0.6-4.4,13.7-83.6,13.2-93"/>
					
						<path fill="none" stroke="#FFFFFF" stroke-width="3" stroke-linecap="round" stroke-linejoin="round" stroke-miterlimit="10" d="
						M708,699.9V697c0,0,3-1.4,3.2-3.3c0.2-2-1.1-4.4-3.8-4.6s-3.6,2.7-3.5,3.9c0.2,1.2-8,1.4-9.4,1.4c-1.4-0.2-3.6-1.1-2.4-3.3
						c1.4-2.4,2.3-25,3.3-29.9s56.5-260.7,58.9-274.8c2.4-14.1,15.3-92.7,15.6-99.4c0.5-6.7-1.4-18.8-1.4-18.8"/>
					<path fill="none" stroke="#FFFFFF" stroke-width="2" stroke-miterlimit="10" d="M751.8,268.1c2.4-0.5,24.4,0,24.4,0"/>
					
						<path fill="none" stroke="#FFFFFF" stroke-width="3" stroke-linecap="round" stroke-linejoin="round" stroke-miterlimit="10" d="
						M769.9,286.9c-5.2,0.3-10.9,0-10.9,0s-6.8,50.7-8.5,63.3c-1.7,12.4-40.8,198.7-40.8,198.7l-26,123.2"/>
					
						<path fill="none" stroke="#FFFFFF" stroke-width="3" stroke-linecap="round" stroke-linejoin="round" stroke-miterlimit="10" d="
						M556.7,564.5l116.6-4.1c4.9,1.4,66.5,12.7,66.5,12.7"/>
					
						<path fill="none" stroke="#FFFFFF" stroke-width="3" stroke-linecap="round" stroke-linejoin="round" stroke-miterlimit="10" d="
						M648.2,543.6c0,0,5,66.6,4.2,69.4"/>
					
						<path fill="none" stroke="#FFFFFF" stroke-width="3" stroke-linecap="round" stroke-linejoin="round" stroke-miterlimit="10" d="
						M662.4,587.4l-1.4-45.2c0,0-4.1-155.6-4.1-161.5c0-5.9-5.9-174.1-5.9-174.1"/>
					
						<line fill="none" stroke="#FFFFFF" stroke-width="3" stroke-linecap="round" stroke-linejoin="round" stroke-miterlimit="10" x1="617.7" y1="614.3" x2="612.7" y2="388.5"/>
					
						<path fill="none" stroke="#FFFFFF" stroke-width="3" stroke-linecap="round" stroke-linejoin="round" stroke-miterlimit="10" d="
						M565.2,390c0,0,3.8,140.1,3.3,148.6s2.1,25.5,2.1,25.5"/>
					
						<path fill="none" stroke="#FFFFFF" stroke-width="3" stroke-linecap="round" stroke-linejoin="round" stroke-miterlimit="10" d="
						M589,389.1c0,0,5.8,222,7.4,226.4"/>
					
						<path fill="none" stroke="#FFFFFF" stroke-width="3" stroke-linecap="round" stroke-linejoin="round" stroke-miterlimit="10" d="
						M523.6,518.7c3.2,0,159-3.3,159-3.3"/>
					
						<polyline fill="none" stroke="#FFFFFF" stroke-width="3" stroke-linecap="round" stroke-linejoin="round" stroke-miterlimit="10" points="
						542.1,491.5 688.1,488.6 730.7,496.8 					"/>
					
						<line fill="none" stroke="#FFFFFF" stroke-width="3" stroke-linecap="round" stroke-linejoin="round" stroke-miterlimit="10" x1="681.3" y1="521.9" x2="724.7" y2="521.9"/>
					
						<path fill="none" stroke="#FFFFFF" stroke-width="3" stroke-linecap="round" stroke-linejoin="round" stroke-miterlimit="10" d="
						M748.6,281.5L701,283c0,0-69.7,1.4-75.6,1.4c-5.9,0-15.9,0.8-15.9,0.8"/>
					
						<path fill="none" stroke="#FFFFFF" stroke-width="3" stroke-linecap="round" stroke-linejoin="round" stroke-miterlimit="10" d="
						M756.7,371c0,0-38.7-5.2-46.3-4.9c-7.6,0.5-76.9,2.4-76.9,2.4"/>
					
						<path fill="none" stroke="#FFFFFF" stroke-width="3" stroke-linecap="round" stroke-linejoin="round" stroke-miterlimit="10" d="
						M760.9,345.2c0,0-40.2-5-43.9-5c-3.6,0.2-84.4,2.4-84.4,2.4"/>
					
						<path fill="none" stroke="#FFFFFF" stroke-width="3" stroke-linecap="round" stroke-linejoin="round" stroke-miterlimit="10" d="
						M764,319.4c0,0-40.1-5.2-45.2-5.2c-5,0-87,2.6-87,2.6"/>
					
						<path fill="none" stroke="#FFFFFF" stroke-width="3" stroke-linecap="round" stroke-linejoin="round" stroke-miterlimit="10" d="
						M736.5,470.3c0,0-40.2-8-47-7.6c-6.8,0.5-171.3,3.8-171.3,3.8"/>
					
						<path fill="none" stroke="#FFFFFF" stroke-width="3" stroke-linecap="round" stroke-linejoin="round" stroke-miterlimit="10" d="
						M528.1,543c-0.5-2.6-4.2-17.9-3.3-21.6c0.8-3.6-4.9-4.6-5.2-12.4c-0.2-7.7-10.9-334-10.9-334"/>
					
						<path fill="none" stroke="#FFFFFF" stroke-width="3" stroke-linecap="round" stroke-linejoin="round" stroke-miterlimit="10" d="
						M521,174.8c0,0,9,289.4,9,291.4"/>
					<path fill="none" stroke="#FFFFFF" stroke-width="2" stroke-miterlimit="10" d="M512.7,296.4c0,0,20-2.1,23.4,0"/>
					
						<line fill="none" stroke="#FFFFFF" stroke-width="3" stroke-linecap="round" stroke-linejoin="round" stroke-miterlimit="10" x1="532.2" y1="208.9" x2="470.2" y2="211.1"/>
					
						<path fill="none" stroke="#FFFFFF" stroke-width="3" stroke-linecap="round" stroke-linejoin="round" stroke-miterlimit="10" d="
						M484.7,184.8c0,0,2.7,60.7,1.8,64c-0.9,3.3,1.4,5.2,2,12.7c0.8,7.6,0,59,0,59"/>
					
						<path fill="none" stroke="#FFFFFF" stroke-width="3" stroke-linecap="round" stroke-linejoin="round" stroke-miterlimit="10" d="
						M513.7,371c0,0,74.2-1.2,75.1-2.4c0.9-1.4-3.9-91.1-3.2-96.5c0.8-5.5-5.2-140.8-5.2-140.8"/>
					
						<line fill="none" stroke="#FFFFFF" stroke-width="3" stroke-linecap="round" stroke-linejoin="round" stroke-miterlimit="10" x1="484.7" y1="320.5" x2="587.2" y2="317.6"/>
					
						<path fill="none" stroke="#FFFFFF" stroke-width="3" stroke-linecap="round" stroke-linejoin="round" stroke-miterlimit="10" d="
						M564.3,369.3c0,0-7.7-220.7-7.3-223.1c0.5-2.4-0.8-5.2,8.8-5.2s59.8-1.7,59.8-1.7"/>
					
						<path fill="none" stroke="#FFFFFF" stroke-width="3" stroke-linecap="round" stroke-linejoin="round" stroke-miterlimit="10" d="
						M609.3,276c0,0-1.8-46.7-3-57.1c-1.2-10.3-4.1-98.5-4.1-100.6c0-2.1,1.4-3.8,7.1-3.8s50.8,0,50.8,0"/>
					<line fill="none" stroke="#FFFFFF" stroke-width="2" stroke-miterlimit="10" x1="625.7" y1="147.6" x2="660" y2="146.4"/>
					<line fill="none" stroke="#FFFFFF" stroke-width="2" stroke-miterlimit="10" x1="660.9" y1="149.3" x2="677.8" y2="149.3"/>
					
						<path fill="none" stroke="#FFFFFF" stroke-width="3" stroke-linecap="round" stroke-linejoin="round" stroke-miterlimit="10" d="
						M486.9,242l268.6-7l5.5,2.1c0,0,0,4.4,1.4,4.9c1.4,0.5,5.2-1.4,5.2-3.3c0-2.1-1.4-3.3-3.3-3.3"/>
					<line fill="none" stroke="#FFFFFF" stroke-width="2" stroke-miterlimit="10" x1="757.1" y1="223.8" x2="785.1" y2="222.1"/>
					
						<line fill="none" stroke="#FFFFFF" stroke-width="3" stroke-linecap="round" stroke-linejoin="round" stroke-miterlimit="10" x1="696.4" y1="193" x2="701" y2="291.5"/>
					
						<path fill="none" stroke="#FFFFFF" stroke-width="3" stroke-linecap="round" stroke-linejoin="round" stroke-miterlimit="10" d="
						M686.7,217.3c0,0-133.1,3.2-136.7,3.3c-3.6,0.2-1.4,19.9-1.4,19.9"/>
					
						<line fill="none" stroke="#FFFFFF" stroke-width="3" stroke-linecap="round" stroke-linejoin="round" stroke-miterlimit="10" x1="672.9" y1="171.5" x2="682.5" y2="488.8"/>
					
						<line fill="none" stroke="#FFFFFF" stroke-width="3" stroke-linecap="round" stroke-linejoin="round" stroke-miterlimit="10" x1="671.7" y1="488.8" x2="672.9" y2="515.3"/>
					
						<line fill="none" stroke="#FFFFFF" stroke-width="3" stroke-linecap="round" stroke-linejoin="round" stroke-miterlimit="10" x1="625.4" y1="490" x2="625.4" y2="507"/>
					
						<polyline fill="none" stroke="#FFFFFF" stroke-width="3" stroke-linecap="round" stroke-linejoin="round" stroke-miterlimit="10" points="
						518.4,443 698.6,438.4 742,445.2 					"/>
					
						<line fill="none" stroke="#FFFFFF" stroke-width="3" stroke-linecap="round" stroke-linejoin="round" stroke-miterlimit="10" x1="555.5" y1="465.6" x2="557" y2="517"/>
					
						<path fill="none" stroke="#FFFFFF" stroke-width="3" stroke-linecap="round" stroke-linejoin="round" stroke-miterlimit="10" d="
						M577.2,369.3c0,0-3.9-79.8-2.7-82.6c1.2-2.7,11.4-1.8,11.4-1.8"/>
					
						<line fill="none" stroke="#FFFFFF" stroke-width="3" stroke-linecap="round" stroke-linejoin="round" stroke-miterlimit="10" x1="491.1" y1="345.2" x2="587.2" y2="342.8"/>
					<line fill="none" stroke="#FFFFFF" stroke-width="2" stroke-miterlimit="10" x1="488.8" y1="340.2" x2="513.7" y2="340.2"/>
					<line fill="none" stroke="#FFFFFF" stroke-width="2" stroke-miterlimit="10" x1="474.3" y1="199.1" x2="474.3" y2="210.9"/>
					<line fill="none" stroke="#FFFFFF" stroke-width="2" stroke-miterlimit="10" x1="470.2" y1="225.9" x2="486.9" y2="225.9"/>
					<line fill="none" stroke="#FFFFFF" stroke-width="2" stroke-miterlimit="10" x1="463.6" y1="240.5" x2="486.7" y2="238.7"/>
					<path fill="none" stroke="#FFFFFF" stroke-width="2" stroke-miterlimit="10" d="M486.6,248.9c0,0-21.2,0.2-22.9,0
						c-1.7-0.2-0.5,16.5,0,19.3c0.5,2.7,10.8,0,10.8,0"/>
					<path fill="none" stroke="#FFFFFF" stroke-width="2" stroke-miterlimit="10" d="M487.9,257.3c0,0,41.6-1.7,46.1-0.9"/>
					<polyline fill="none" stroke="#FFFFFF" stroke-width="2" stroke-miterlimit="10" points="558.3,195.4 547.9,195.4 547.9,174.5 
											"/>
					<line fill="none" stroke="#FFFFFF" stroke-width="2" stroke-miterlimit="10" x1="645.4" y1="172.1" x2="645.4" y2="193"/>
					<line fill="none" stroke="#FFFFFF" stroke-width="2" stroke-miterlimit="10" x1="685.1" y1="172.1" x2="686.7" y2="195.4"/>
					<line fill="none" stroke="#FFFFFF" stroke-width="2" stroke-miterlimit="10" x1="722.1" y1="204.8" x2="785.1" y2="201.8"/>
					
						<line fill="none" stroke="#FFFFFF" stroke-width="3" stroke-linecap="round" stroke-linejoin="round" stroke-miterlimit="10" x1="746.4" y1="203.6" x2="743.6" y2="110.6"/>
					
						<line fill="none" stroke="#FFFFFF" stroke-width="3" stroke-linecap="round" stroke-linejoin="round" stroke-miterlimit="10" x1="718.6" y1="110.6" x2="773.5" y2="110.6"/>
					
						<line fill="none" stroke="#FFFFFF" stroke-width="3" stroke-linecap="round" stroke-linejoin="round" stroke-miterlimit="10" x1="719.7" y1="137" x2="810" y2="135.2"/>
					
						<path fill="none" stroke="#FFFFFF" stroke-width="3" stroke-linecap="round" stroke-linejoin="round" stroke-miterlimit="10" d="
						M703.7,78c0,0,15-0.5,15.9,0s81.6,30,81.6,30"/>
					
						<line fill="none" stroke="#FFFFFF" stroke-width="3" stroke-linecap="round" stroke-linejoin="round" stroke-miterlimit="10" x1="788.1" y1="13.5" x2="773.5" y2="53.5"/>
					
						<path fill="none" stroke="#FFFFFF" stroke-width="3" stroke-linecap="round" stroke-linejoin="round" stroke-miterlimit="10" d="
						M727.1,110.6c0,0,33.8-78.2,33.8-80.7s-5-10.3-5-10.3"/>
					
						<line fill="none" stroke="#FFFFFF" stroke-width="3" stroke-linecap="round" stroke-linejoin="round" stroke-miterlimit="10" x1="760.9" y1="29.9" x2="813.8" y2="47.5"/>
					
						<path fill="none" stroke="#FFFFFF" stroke-width="3" stroke-linecap="round" stroke-linejoin="round" stroke-miterlimit="10" d="
						M715.6,53.5c0,0,22.2-13.4,24.3-12.9c2.4,0.5,76.9,24.4,77.9,26.7c0.9,2.1-9.7,25.8-9.7,25.8l-91.7-31.7"/>
					
						<line fill="none" stroke="#FFFFFF" stroke-width="3" stroke-linecap="round" stroke-linejoin="round" stroke-miterlimit="10" x1="764" y1="77.7" x2="749.6" y2="110.6"/>
					<path fill="none" stroke="#FFFFFF" stroke-width="2" stroke-miterlimit="10" d="M719.7,149.3c0,0-11.4-1.8-11.4,2.6
						s5.8,18.4,5.8,18.4"/>
					
						<path fill="none" stroke="#FFFFFF" stroke-width="3" stroke-linecap="round" stroke-linejoin="round" stroke-miterlimit="10" d="
						M586.4,116.8c0,0-7.1-3.2-8.5-6.1c-1.4-3-17-27.9-19.4-30C556.1,78.6,548,72,548,72"/>
					
						<path fill="none" stroke="#FFFFFF" stroke-width="3" stroke-linecap="round" stroke-linejoin="round" stroke-miterlimit="10" d="
						M579.9,113c-2.9,1.2-4.9,3-7.4,2.7c-2.4-0.2-34.9,0.5-39.2-1.4"/>
					
						<path fill="none" stroke="#FFFFFF" stroke-width="3" stroke-linecap="round" stroke-linejoin="round" stroke-miterlimit="10" d="
						M470,181.8c0,0-1.4-76.9,0-78.9c1.4-2,56.8-1.4,62.2-3.3c5.3-1.8,15.6-5.3,15.6-5.3"/>
					<line fill="none" stroke="#FFFFFF" stroke-width="2" stroke-miterlimit="10" x1="466.5" y1="144" x2="532.2" y2="141.3"/>
					
						<path fill="none" stroke="#FFFFFF" stroke-width="3" stroke-linecap="round" stroke-linejoin="round" stroke-miterlimit="10" d="
						M486.4,175.7c0,0-2.4-5.2-2.4-10.8c0-5.6-0.5-63.3-0.5-63.3"/>
					
						<line fill="none" stroke="#FFFFFF" stroke-width="3" stroke-linecap="round" stroke-linejoin="round" stroke-miterlimit="10" x1="508.7" y1="101.8" x2="506.9" y2="162.3"/>
					
						<path fill="none" stroke="#FFFFFF" stroke-width="3" stroke-linecap="round" stroke-linejoin="round" stroke-miterlimit="10" d="
						M532.2,113c-1.4-2.7-2.1-14.1-3-18.7c-0.9-4.6-8.8-21.1-11.8-24.7c-3-3.6-43.9-37.3-46.3-41.1c-2.4-3.6-7.1-7.9-8-14"/>
					
						<path fill="none" stroke="#FFFFFF" stroke-width="3" stroke-linecap="round" stroke-linejoin="round" stroke-miterlimit="10" d="
						M528.9,93.4c0,0,13.4-9.9,14.7-12.4s2.1-9.4,6.1-14.6c3.9-5.2,22-24.3,23.2-28.4c1.4-4.1,2.3-8.7,2.3-14.9
						c0-6.1-1.7-96.8-2.3-100.9c-0.5-4.2-11.4-20.3-11.5-29.4c0-9.1,2.3-17.5,11.5-28.1c9.3-10.8,35.7-38.4,40.5-39.3
						c4.9-0.8,20.3,1.7,29.6,2.1c9.3,0.5,45.8-5.3,53.4-14.1c7.4-8.7,19.9-27.3,24.1-41c4.4-13.7,5.8-39.8,5.8-52.2
						c0-12.4,0-27.3,16.4-56.8c5.2-10.8,5.8-17.5,12.3-17.5c6.5,0,86.5,14,86.5,14"/>
					<line fill="none" stroke="#FFFFFF" stroke-width="2" stroke-miterlimit="10" x1="665.3" y1="5.7" x2="688.2" y2="11.3"/>
					<line fill="none" stroke="#FFFFFF" stroke-width="2" stroke-miterlimit="10" x1="817.1" y1="5.7" x2="835.9" y2="13.5"/>
					
						<path fill="none" stroke="#FCBB31" stroke-width="6" stroke-linecap="round" stroke-linejoin="round" stroke-miterlimit="10" d="
						M-45.4,423.4c0,0,353.1,159.7,370.1,166.5c17,6.7,39.2,8.8,51.1,7.7c12-1.1,125.1-49.6,137-53.3c12.1-3.6,31.6,0.5,41.9,0
						c10.2-0.5,142-3.6,145.8-4.7c3.8-1.1,26.4-132.3,29.7-143.7c3.3-11.4,40.8-268.6,42.3-282.1s26-59.3,34.1-86.8
						c8.2-27.3,19.3-28.4,24.1-35.2c5-6.8,5.5-27.9,3.8-35.1"/>
					<path fill="none" stroke="#FFFFFF" stroke-width="2" stroke-miterlimit="10" d="M801.3-57.4c0,0,4.2,1.1,3.9,11.4
						c-0.5,10.3-1.4,24.4-3.9,26.6c-2.6,2.1-9,5.8-10.9,25.2"/>
					
						<path fill="none" stroke="#FFFFFF" stroke-width="3" stroke-linecap="round" stroke-linejoin="round" stroke-miterlimit="10" d="
						M469.1,26.2c-7.1,0.2-40.2,2.4-41.9,1.5c-1.7-0.9-5.2-8-3.3-10c1.5-2.1,2.3-1.8,5.3-1.8s85.4-4.7,86.5-2.4
						c0.9,2.4,3.8,8.2,0,9.9C512,24.7,469.1,26.2,469.1,26.2z"/>
					<line fill="none" stroke="#FFFFFF" stroke-width="2" stroke-miterlimit="10" x1="497.5" y1="13" x2="497.5" y2="25"/>
					<line fill="none" stroke="#FFFFFF" stroke-width="2" stroke-miterlimit="10" x1="446.2" y1="15.1" x2="446.2" y2="27.4"/>
					<line fill="none" stroke="#FFFFFF" stroke-width="2" stroke-miterlimit="10" x1="476.7" y1="13" x2="476.7" y2="25.9"/>
					
						<path fill="none" stroke="#FFFFFF" stroke-width="3" stroke-linecap="round" stroke-linejoin="round" stroke-miterlimit="10" d="
						M451.2,55.8c1.2-3.3,62.2-2.6,64.5-2.1c2.3,0.6,4.1,14,1.4,15.8c-2.6,1.8-19.1-0.6-26.3,0c-7.1,0.6-28.4,4.2-29.9,2.4
						C459.5,69.9,448.8,62.9,451.2,55.8z"/>
					<line fill="none" stroke="#FFFFFF" stroke-width="2" stroke-miterlimit="10" x1="472" y1="53.5" x2="472.3" y2="71.9"/>
					<line fill="none" stroke="#FFFFFF" stroke-width="2" stroke-miterlimit="10" x1="493.8" y1="49.1" x2="493.8" y2="69.5"/>
					<path fill="none" stroke="#FFFFFF" stroke-width="2" stroke-miterlimit="10" d="M509.8,62.8c0,0,0.5,6.2-2,6.8"/>
					
						<path fill="none" stroke="#FFFFFF" stroke-width="3" stroke-linecap="round" stroke-linejoin="round" stroke-miterlimit="10" d="
						M369.4,213.5c0,0,11.2-9,12.6-8.5c1.4,0.5,31.9,2,33.4,0c1.4-2,4.1-6.7,1.8-9.6c-2.3-2.9-9-12.4-12.1-12.7
						c-3.2-0.3-27.5,1.2-27.5,1.2s-4.4,1.2-2.7,5.3c1.7,4.1,6.2,13.5,6.2,13.5"/>
					<path fill="none" stroke="#FFFFFF" stroke-width="2" stroke-miterlimit="10" d="M384.3,162.3c0,0-0.8,14.9,0,16.5
						c0.8,1.7,2.6,4.9,2.6,4.9"/>
					<polyline fill="none" stroke="#FFFFFF" stroke-width="2" stroke-miterlimit="10" points="405.4,174.5 401.6,178.9 401.6,181.8 
											"/>
					<line fill="none" stroke="#FFFFFF" stroke-width="2" stroke-miterlimit="10" x1="360.4" y1="175.7" x2="374.4" y2="186.8"/>
					
						<path fill="none" stroke="#FFFFFF" stroke-width="3" stroke-linecap="round" stroke-linejoin="round" stroke-miterlimit="10" d="
						M320.7,587.4l29.4-58.1c0,0,5.5-0.5,6.4-3.9c0.9-3.3-12.4-92.9-12.4-92.9s-7-7.7-9.7,0c0.5,9.3,8.7,93.3,12.1,95"/>
					
						<line fill="none" stroke="#FFFFFF" stroke-width="3" stroke-linecap="round" stroke-linejoin="round" stroke-miterlimit="10" x1="701" y1="314.7" x2="703" y2="366.5"/>
					<line fill="none" stroke="#FFFFFF" stroke-width="2" stroke-miterlimit="10" x1="488.8" y1="291.5" x2="512.7" y2="291.5"/>
					<line fill="none" stroke="#FFFFFF" stroke-width="2" stroke-miterlimit="10" x1="488.5" y1="306.7" x2="512.7" y2="306.7"/>
					<path fill="#3FB2CB" d="M802.5,3.6v2.3c0,0-9.9,3.5-12.1,5.6c-2.4,2.1-11.8,5.8-15.2,8c-3.3,2.3-13.7,7-13.7,7
						s-40.1,19.6-42.8,21.1c-2.6,1.4-59.3,33.2-59.3,33.2s-38.1,21.9-42.6,24.3c-4.4,2.4-76,43.9-78.3,45.5
						c-2.4,1.7-11.5,5.9-11.5,5.9l-0.6-2.1c0,0,89.7-51.6,93.8-53.6c4.1-2,102.1-56.9,102.1-56.9s44.6-22.8,48.1-24.4
						c3.5-1.7,20.5-9,23.1-10.9C795.8,6.6,802.5,3.6,802.5,3.6z"/>
					<path fill="#FCBB31" d="M754.4,760.4c0,0-7.3-1.8-8.3-2.6c-0.9-0.9-3.2-11.5-5.3-15.6c-2.3-4.1-6.1-7.4-6.1-21.7
						c0-14.3-0.9-52.4-1.4-65.4c-0.5-13.1,2.4-31.6,3.2-35.1c0.6-3.6,11.5-66.6,12.6-69.7c0.9-3.2,2.6-16.7,3.2-19.7
						c0.5-3,4.2-24.7,5.5-30.4c1.2-5.6,8.2-37.2,9.1-40.8c0.9-3.6,9.1-44,10-46.4c0.9-2.3,10.3-58.7,11.1-65.9
						c0.8-7.1,5.3-44.9,6.2-48.9c0.9-3.9,0.9-10.2,0-13.1s0.8-14.1,2-17.1c1.2-3-1.7-6.5,0-12.9c1.7-6.2,6.5-38.4,7.4-42.6
						c0.9-4.2,5.5-31,6.1-33.5c0.5-2.4,2.9-19,3.9-23.8c1.1-4.9,1.7-13.4,4.6-19.3c2.9-5.9,4.9-23.8,5.5-26.6
						c0.8-2.7,12.6-40.7,13.7-42.8c1.1-2.1,14-42.9,15.2-45.5c1.2-2.4,14.4-42,14.4-42s12.7-36,12.7-38.2c0.3-2.3-0.3-9.3,4.9-16.7
						c5.2-7.4,9.1-13.8,12-26.3s11.7-32.2,12.6-34.1s5.8-29.7,7.1-41.4c1.4-11.8,8.2-64.7,9-70.1c0.8-5.5,6.8-51,7.4-54.2
						c0.6-3.2,4.2-28.1,5.5-35.5c1.2-7.4,5.2-40.2,5.8-45.1c0.8-4.7,2-16.4,2.9-25c0.8-9,2.4-58.9,3-61.6c0.5-2.7,4.9-63.1,5.8-66.6
						c0.9-3.3,4.6-42.6,4.2-52.5c-0.3-9.9,0.8-40.8,1.4-44.9c0.8-4.1,4.4-47.3,5.6-53.4c1.2-6.1,2.9-8.7,2.4-17.5
						c-0.5-8.8,2.4-35.4,0.2-45.1c-2.3-9.7-0.8-104-0.2-110c0.8-6.1,5.3-49.6,5.8-55.4c0.5-5.9,6.8-33.1,6.4-46.4
						s-1.4-64.7-1.4-64.7s-2-93.9-2-96.8s-0.9-22.9-2.3-31.6c-1.4-8.7-0.5-41.1,0-46.7c0.5-5.6-2.3-76-1.7-79.8
						c0.5-3.8,0-40.2,0.3-43.4c0.3-3.2-0.3-42.3-0.8-48.9c-0.5-6.5-3.9-46.1-4.2-49.5c-0.5-3.3-5.2-53.4-4.9-56.3
						c0.3-2.9-2.7-30.7-2.7-30.7s6.5,2.4,8.2,3c1.8,0.6,6.4,8.3,4.7,11.8c-1.7,3.5-0.5,9.9,0.3,14c0.8,4.2,4.7,24.3,5,28.4
						s4.4,72.8,5.5,75.7c1.1,2.9-3.9,16.7-3.6,19.4c0.3,2.6,5.6,42.9,5.5,45.1c-0.2,2.3-4.1,21.1-3.5,25c0.5,3.9,2.6,15.8,2.6,17.9
						c0,2.1-0.8,27.9-0.3,30c0.5,2.3,2.4,10,2.3,12.6c-0.3,2.4-4.4,53.4-4.4,56s0.9,24.9,0.3,29.9c-0.6,5-2.1,13.4-1.4,17.5
						c0.6,4.1,2.9,12.9,2.9,17.5s-0.9,68-0.8,70.4s5.5,37.8,5.8,41.1c0.2,3.3-4.6,37.5-4.6,39.8s1.4,4.6,0.9,6.7
						c-0.5,2.1-1.4,8.7-1.4,12.6c0.2,3.8,1.2,48.1,1.1,51.1c-0.2,3-4.1,22-3.9,26.4c0.2,4.4,1.4,44.9,0.5,49.6
						c-0.9,4.7-2.4,14-2.3,25.6c0.3,11.7,1.8,35.8,1.4,39.2c-0.5,3.3-7.3,27.5-7.3,30.7c0,3.2,3.3,38.7,2.7,40.4
						c-0.6,1.7-1.8,9.9-2.4,19.7c-0.5,9.9-2.3,34.1-1.8,37c0.5,2.9,1.2,13.4,0.8,24.4s-0.3,19.6-0.9,22.2c-0.6,2.4-4.1,19.1-5,27.5
						c-0.9,8.5-1.2,14.7-1.7,18.5c-0.5,3.9-3.3,16.2-3.8,19.4s0.2,9.3-0.6,12.7c-0.8,3.3-4.6,12-4.1,15.8s-2.4,73.1-2.9,76.9
						c-0.5,3.8-3.5,14.3-4.2,22c-0.5,7.7-0.2,14.1-1.2,17c-1.1,3-2.3,6.1-2.9,12.7c-0.6,6.7-1.8,23.5-4.1,27.3
						c-2.3,3.8-3.9,27.3-4.2,30.7c-0.3,3.3-1.7,32-2,36.3c-0.3,4.2-1.4,22.9-1.8,26.3c-0.5,3.3-2.7,17.5-2.7,20.9
						c-0.2,3.6-0.6,36.4-0.9,40.2c-0.3,3.9-0.8,17.3-1.5,22.3c-0.8,5.2-3.6,17.6-6.2,20.5c-2.6,2.9-3.3,5.3-4.2,9.9
						c-0.9,4.4-3.9,13.2-6.1,15.3c-2,2.1-5.3,3.2-6.2,5.3c-0.9,2.3-2.7,8.5-4.2,9.7c-1.5,1.2-1.7,1.5-2.9,4.7
						c-1.2,3.2-9.9,25.5-11.4,30.7c-1.4,5.2-3.3,8.8-3.8,11.1c-0.5,2.3-7.1,22.2-10.6,28.8c-3.3,6.7-4.2,8-4.2,10
						c-0.2,2.1-0.5,6.5-1.5,9c-1.1,2.4-2.7,7.1-3.3,11.7c-0.6,4.6-1.7,18.4-2.9,20.8c-1.4,2.4-4.1,9-4.4,11.7
						c-0.5,2.7-0.2,36.1-0.6,39.3c-0.6,3.3-5.9,29.3-7.1,32.6c-1.4,3.3-11.7,28.5-12.7,32.3C835.9,165.1,827,208,827,208
						S816,259.5,816,265.2s1.1,13.7-1.4,19.4c-2.4,5.8-18.2,122-18.2,122s1.2,17.1,0,20.9c-1.2,3.8-6.4,20.9-7,26.7
						c-0.5,5.8-1.2,10.9-2,13.5c-0.6,2.6-1.7,9.4-2.4,12.6c-0.6,3.2-4.1,11.1-5.5,15.2c-1.5,4.1-7.6,21.6-8.7,26.4
						c-1.1,4.9-18.7,84.8-20.2,89.5c-1.5,4.7-3.3,9.4-3.6,12.1s-2.3,36.9-2.4,39.2c-0.3,2.3,3.3,82.4,3.5,85.7
						C748.3,751.9,754.4,760.4,754.4,760.4z"/>
					<path fill="#C4E3CA" d="M724.7,537.5h26.4c0,0,32.9-163.6,34.9-177.1c2-13.5,12-71.3,8.2-75.4c-5.5-0.3-24.6,1.8-24.6,1.8
						s-4.9,49.6-8.3,63.4C757.8,364.2,724.7,537.5,724.7,537.5z"/>
					<path fill="#C4E3CA" d="M587.2,281.5h17v10h23.1c0,0,5.6,90.4,4.7,92.4c-0.9,2-83.9,4.9-86.4,4.6c-2.4-0.3-1.5-18.1-1.5-18.1
						s43.1-0.2,44.9-1.8C590.8,367.1,587.2,281.5,587.2,281.5z"/>
					<polygon fill="#C4E3CA" points="695.1,171.1 696.4,193 722.1,193 718.6,170.2 					"/>
					<polygon fill="#C4E3CA" points="768.5,53.2 761.4,72.7 806.9,89 817.7,67.2 					"/>
					<polygon fill="#C4E3CA" points="627.1,98 627.1,113 659.3,113 656.8,82.8 					"/>
					<path fill="#C4E3CA" d="M703.7,77.7h11.8L714,51.3l-25.8,13.7c0,0,12-0.3,13.7,1.7C703.3,68.7,703.7,77.7,703.7,77.7z"/>
					<path fill="#37827F" d="M459.4,136.1h9.9l-0.9,6.5c0,0-2.7-1.5-2.7,1.4c0,2.9,0.3,19.7,0.9,20.9c0.8,1.1,2.9,1.4,2.9,1.4V179
						c0,0-6.4,3.3-8.2,3C459.2,181.5,459.4,136.1,459.4,136.1z"/>
					<path fill="#C4E3CA" d="M564.3,85.3c0,0,17.1,26,17.6,27.9c0.5,1.7,5,0.5,9.3-2.4c4.2-2.7,31.6-19.6,31.6-19.6s2.4-1.1,2.7-3.2
						c0.5-2,26.4-58,27.2-59.5c0.8-1.7,10.8-20,11.1-22.6c0.5-2.6,2.7-32.9,3.2-36.3c0.5-3.3,4.7-37,4.1-38.1
						c-0.6-1.1-5.6-2.7-10.2-10.9c-4.4-8-9.4-14.6-9.1-15.8c0.2-1.4,1.7-3.2,4.1-3.2c2.4,0,7.6,6.8,7.9,8.7c0.2,1.8-1.2,5.9-0.5,8.2
						c0.8,2.4,6.8,10,9.4,10s3-1.7,5.2-1.4c2.3,0.2,16.4,2,18.5,2c2.1,0,9.7-32.6,10.9-35.1c1.2-2.4,11.1-38.9,11.8-41.9
						c0.8-3,6.5-39.8,6.2-42c-3.8-1.1-21.2-2.6-21.2-2.6s-8,8.8-10.3,9.7c-2.4,0.9-17.8,8.2-28.4,9.4c-10.6,1.1-27.3,2-29.1,1.7
						c0,1.7-9.9,23.7-19.4,30.5c-9.4,6.8-20.2,20.9-21.7,29.7c-1.5,9,3.6,28.4,3.5,31.9c-0.2,3.5,0,49.8,0,49.8s4.2-0.2,5.5,2
						c1.2,2.3,0.5,6.1-1.4,7.1c-1.7,1.1-3.3,1.8-3.3,1.8s0,54-0.5,57.2c-0.5,3.3-7.3,18.2-19.1,30C568.2,80.9,564.3,85.3,564.3,85.3
						z"/>
					<path fill="#3FB2CB" d="M589,71.9c2-0.5,2-3.2,2.3-5.2c0.3-2,3.3-3.3,4.7-3.3s2.7-0.3,1.7,1.7c-1.1,2-4.9,5.5-4.1,7
						c0.8,1.4,7.3,3.5,9,3.5c1.5,0,2.1-1.8,6.5-2.4c4.4-0.5,9.9-1.2,9.9-1.2s2.3,7.1,0.8,10.8c-1.4,3.5-9.1,6.7-15,8.5
						c-5.8,1.8-10,1.4-15.5,0c-5.3-1.4-6.8-5.2-9-5.3c-2.3-0.3-5.8-0.5-5.8-0.5l1.7-2.4C575.8,82.8,586.7,72.7,589,71.9z"/>
					<path fill="none" stroke="#00C86A" stroke-width="6" stroke-miterlimit="10" d="M547.9,94.5"/>
					<path fill="none" stroke="#00C86A" stroke-width="6" stroke-miterlimit="10" d="M470,103"/>
					<path fill="none" stroke="#00C86A" stroke-width="6" stroke-miterlimit="10" d="M508.7,417.3"/>
				</g>
			</g>
		</g>
	</g>
	<circle fill="#EC1C24" cx="777.9" cy="30.9" r="9.7"/>
	<circle fill="#EC1C24" cx="476.7" cy="21.2" r="9.7"/>
	<circle fill="#EC1C24" cx="486.6" cy="61.9" r="9.7"/>
	<path fill="none" stroke="#A7A9AC" stroke-width="7" stroke-linecap="round" stroke-miterlimit="10" d="M470,103
		c0,0,50.4,0.8,62.2-3.3s15.6-5.3,15.6-5.3"/>
	<circle fill="#EC1C24" cx="496.3" cy="101.5" r="9.7"/>
	<circle fill="#EC1C24" cx="472.1" cy="142.5" r="9.7"/>
	<circle fill="#EC1C24" cx="461.5" cy="178" r="9.7"/>
	<circle fill="#EC1C24" cx="508.7" cy="174.8" r="9.7"/>
	<path fill="none" stroke="#A7A9AC" stroke-width="6" stroke-linecap="round" stroke-miterlimit="10" d="M479.6,319.9
		c9-0.6,239.3-7,244.8-6.4c5.3,0.5,46.4,6.4,46.4,6.4"/>
	<circle fill="#EC1C24" cx="512.5" cy="317.8" r="9.7"/>
	<path fill="none" stroke="#A7A9AC" stroke-width="7" stroke-linecap="round" stroke-miterlimit="10" d="M522.2,417.3
		c11.5-0.5,175.3-5.5,184.2-4.2c8.8,1.2,33.8,5.8,48.7,4.2"/>
	<circle fill="#EC1C24" cx="518.4" cy="417.3" r="9.7"/>
	<circle fill="#EC1C24" cx="521.6" cy="512.2" r="9.7"/>
	<g>
		<text transform="matrix(1 0 0 1 352.2723 155.4274)" fill="#8C8E90" font-family="'MyriadPro-Regular'" font-size="16.1649">Sunset Harbour</text>
	</g>
	<g>
		<text transform="matrix(1 0 0 1 375.7852 47.6586)" fill="#8C8E90" font-family="'MyriadPro-Regular'" font-size="16.1649">Sunset </text>
		<text transform="matrix(1 0 0 1 375.7852 67.0843)" fill="#8C8E90" font-family="'MyriadPro-Regular'" font-size="16.1649">Islands</text>
	</g>
	<text transform="matrix(1 0 0 1 536.9346 311.0506)" fill="#808285" font-family="'MyriadPro-Regular'" font-size="16.1649">14th St</text>
	<text transform="matrix(1 0 0 1 476.7948 122.8562)" fill="#8C8E90" font-family="'MyriadPro-Regular'" font-size="16.1649">20th St</text>
	<text transform="matrix(1 0 0 1 479.5548 155.4274)" fill="#8C8E90" font-family="'MyriadPro-Regular'" font-size="16.1649">18th St</text>
	<text transform="matrix(1 0 0 1 563.2568 172.5533)" fill="#8C8E90" font-family="'MyriadPro-Regular'" font-size="16.1649">17th St</text>
	
		<text transform="matrix(0.1388 -0.9903 0.9903 0.1388 778.2407 215.3939)" fill="#8C8E90" font-family="'MyriadPro-Regular'" font-size="16.1642">Collins Ave</text>
	
		<text transform="matrix(0.2052 -0.9787 0.9787 0.2052 699.8245 510.5139)" fill="#808285" font-family="'MyriadPro-Regular'" font-size="16.1643">Washington Ave</text>
	
		<text transform="matrix(-2.708082e-02 -0.9996 0.9996 -2.708082e-02 554.6621 276.4141)" fill="#808285" font-family="'MyriadPro-Regular'" font-size="16.1639">Alton Rd</text>
	<text transform="matrix(1 0 0 1 540.6503 410.285)" fill="#808285" font-family="'MyriadPro-Regular'" font-size="16.1649">10th St</text>
	<text transform="matrix(1 0 0 1 547.5292 514.1531)" fill="#808285" font-family="'MyriadPro-Regular'" font-size="16.1649">6th St</text>
	
		<text transform="matrix(0.9418 0.3362 -0.3362 0.9418 787.7702 33.8662)" fill="#808285" font-family="'MyriadPro-Regular'" font-size="16.1652">23rd St</text>
	<g>
		
			<text transform="matrix(0.9989 -4.670095e-02 4.670095e-02 0.9989 337.5814 207.4822)" fill="#8C8E90" font-family="'MyriadPro-Regular'" font-size="16.1649">Venetian Causeway</text>
	</g>
</g>
</svg>
