<?xml version="1.0" encoding="utf-8"?>
<!-- Generator: Adobe Illustrator 18.1.1, SVG Export Plug-In . SVG Version: 6.00 Build 0)  -->
<!DOCTYPE svg PUBLIC "-//W3C//DTD SVG 1.1//EN" "http://www.w3.org/Graphics/SVG/1.1/DTD/svg11.dtd">
<svg version="1.1" id="Layer_1" xmlns="http://www.w3.org/2000/svg" xmlns:xlink="http://www.w3.org/1999/xlink" x="0px" y="0px"
	 viewBox="237.1 15 610.9 434.5" enable-background="new 237.1 15 610.9 434.5" xml:space="preserve">
<g id="Layer_7">
	<g>
		<g>
			<g>
				<g>
					<defs>
						<rect id="SVGID_1_" x="237.1" y="-408.8" width="722.9" height="968.1"/>
					</defs>
					<clipPath id="SVGID_2_">
						<use xlink:href="#SVGID_1_"  overflow="visible"/>
					</clipPath>
					<g clip-path="url(#SVGID_2_)">
						<path fill="#FFCB45" d="M862-1793.9l10.9-2.1l19.9-0.3l18.5-9.7l41.2-2.1l19,9h3.8l3.6,13.5l-1.9,4l7.6,42.6
							c0,0,5.2,84,6.6,89c-1,5.9-4.3,18.5-4.3,21.1s5.9,50,6.2,51.4c0.3,1.6-4,27.9-4,27.9s2.9,18.7,2.9,21s-0.7,32-0.3,34.3
							c0.5,2.3,2.8,12.5,2.8,12.5s-5.2,59.9-5.2,65.5s1,27.5,0.7,30c-0.3,2.3-2.8,17.8-2.3,24.1c0.5,6.1,3.3,13.2,3.3,17.7
							c0,4.7-0.3,76.4-0.7,79.3c-0.5,3.1,0.7,16.1,2.3,22.5c1.4,6.4,4.7,26.7,4.3,31.5c-0.3,4.8-4.3,40-5.5,41.6
							c-1,1.6,1.4,5.7,1.4,5.7s-1.6,9.2-1.9,11.8c-0.3,2.6,1.6,64.1,1,66.3c-0.5,2.3-4.3,23-4.3,25.3s2.3,51.8,0.3,59.2
							c-1.9,7.4-2.4,17.8-2.4,21.5c0,3.6,1,48.7,1.9,52.3c-0.7,4-8.1,30.6-8.5,33.8c-0.3,3.1,1.9,39.3,3.6,45.4
							c-2.9,5.9-3.3,17.5-2.9,23.2c0.3,5.9-2.8,37.2-2.3,41.2s1.9,9.7,1.4,21.1c-0.5,11.4-1.4,32.9-1.4,32.9s-4.7,16.6-5.2,28.2
							c-1.9,9.7-2.3,23.2-2.8,26.8s-4.3,19.9-4.7,22.2c-0.3,2.3,0.5,11.3-0.7,14.9c-1.2,3.6-3.8,11.1-3.3,20.3
							c-0.7,9.5-3.6,67.9-3.8,79c-0.3,11.1-3.8,21.5-4.8,28.6s-0.3,16.5-1.4,19.4c-1,3.1-2.9,8.1-2.9,10.2s-2.8,30.5-4.3,33.9
							c-1.6,3.5-2.4,11.4-2.8,15.8s-2.8,17.5-2.9,26.1c-0.3,8.7-2.9,57.5-3.6,62.9c-0.5,5.4-3.6,23-3.6,25.8s-0.7,40-1,47.1
							s-1.6,17.1-1.4,20.4c0.3,3.3-2.4,17.7-3.6,21.5c-1,3.8-4,7.4-5.9,8.7c-1.9,1.4-3.8,16.1-4.8,18.2c-1,2.1-4.8,10.2-7.1,11.1
							c-2.3,0.7-4,2.1-4.8,3.8c-0.9,1.7-3.6,9.5-4.8,11.1s-1.9,0.3-2.8,3.6c-0.9,3.3-11.3,27.5-11.9,30.5
							c-0.7,2.8-2.9,12.8-4.7,15.1c-1.6,2.3-3.3,14.5-5.2,18.9c-1.9,4.3-1.9,5.4-1.9,5.4l-11.3,22.2c0,0,0,9-1.7,12.1
							c-1.9,3.1-3.8,9.5-4,15.4c-1,4.7-2.8,21.5-5.2,25.8s-3.8,12.1-3.8,15.6c0,3.6,0.3,36.5,0,38.3c-0.3,1.7-5.9,31.2-7.3,35
							c-1.4,3.8-15.1,36.9-16.5,41.7c-1.4,4.8-12.8,61.1-12.8,61.1s-10.2,49.7-10.2,54.7s0.5,15.6-1.6,22.2
							c-2.1,6.6-12.5,80.3-12.5,80.3s-8.8,55.4-8.1,61c0.7,5.5,1,18.2,0,21.8c-1,3.6-6.9,21.1-7.6,27.9c-0.7,6.8-0.5,13.2-2.4,17.8
							c-1.9,4.8-1.9,16.5-5.7,23.9s-12.5,32.9-12.8,35.8c-0.3,2.9-15.6,69.1-16.5,72.7c-0.7,3.6-3.8,13.9-4.3,18.2
							s-2.9,15.4-3.8,17.5c-0.7,2.1-2.9,6.8-3.3,12.3c-0.3,5.7-1,37.9-2.8,43.3c0,5.9,3.8,77.2,3.8,80.3s0.5,19.2,0.7,20.3
							c0.2,1,7.1,11.1,9.2,12.3s94.9,41.6,94.9,41.6l23,10l-1.6,3.8L746,801.6l-1.9,2.3l-27.9-13.2v-2.8l-139-59.6l-4.7-8l6.6-3.8
							l-2.8-2.8l-5.5,2.8c0,0-53.3-76.9-56.3-81.7c-2.8-4.8-50.4-76.5-53.3-86.8s-12.8-35-13.5-44.3c-0.7-9.2-10.9-46.1-11.4-51.4
							c-0.5-5.4-2.4-37.2-2.4-37.2l1.9,0.3c0,0-3.6-49-4.8-56.5c-1.4-7.4-6.9-37.4-6.9-37.4l-2.3,0.3l-1-4.8l2.3-0.3
							c0,0-5.2-18.5-22.3-36.4c-17.1-17.8-24.8-40.3-25.3-44c-0.5-3.6-2.3-13.3,2.3-18.7c4.3-5.4,15.2-19.4,17.5-32.6
							c2.3-13.2,1.6-29.3,1.6-29.3l0.3-15.1c0,0,13.5-9.5,16.5-10.4c2.8-1,18.5-9.2,21-11.1c2.4-1.7,6.2-4.7,6.2-4.7l1.4,1.7l1.4-1
							l-1.6-2.1l26-14.5l-0.7-2.4l-13.9,8.5c0,0-46.1,26.1-48.8,26.7s-13.5,3.1-13.5,1.7c-0.3-1.4,0-8.1,0.3-10s-2.3-1.4-1.9-3.1
							c0.3-1.7-0.3-5.9,0.7-7.6s-1-12.1-1-16.8c0-4.8,0.5-12.8-0.5-21.8s-2.4-51.9-1.6-53c0.9-1,73.8-1.7,75-2.6
							c1.4-0.7-2.4-7.6-2.4-7.6s-65.3,2.4-68.6,2.4c-3.3,0-8.1-1.7-9.2-2.8c-1-1-18.9-19.7-18.9-23.5s0.7-11.3,5.2-14.4
							c4.3-3.1,50-3.3,50-3.3l-8-6.4c0,0-56.5,2.3-58.9,1.7c-2.4-0.5-9.2-6.9-9.9-10.2c-0.5-3.3-4.3-9.5-5.5-10.2
							c-1-0.7-0.5-10.7,1.4-12.8c1.9-2.1,2.4-4.7,2.4-4.7s5.7-2.1,12.8-2.6s110.6-2.8,113.2-2.3s10.2,3.1,12.3,10
							c2.3,6.9,0,22.5-3.3,25.8s-8.8,5.7-8.8,5.7l-47.8-0.3c0,0,4,4.8,5.5,5c1.4,0.3,39.5-1.6,42.1-1c2.4,0.5,10.6,6.4,11.4,11.8
							c0.7,5.4-0.3,18.2-1.9,21s-10.9,9.5-10.9,9.5l4,6.9c0,0,8.1-5,9-6.9c0.7-1.7,3.8-9.7,4.7-14.4c0.7-4.7-0.7-27.5,0.3-28.6
							c1-1.2,15.1-1.6,18.9-3.6c3.8-2.1,6.6-4,5.9-15.4c-0.5-11.3-2.8-113.9-2.8-113.9s-4.7-8.1-7.6-8.5c-2.9-0.3-13.2-3.6-13.5-8.5
							c-0.5-4.8,0-12.5,0-12.5l-11.3,1c0,0,1,16.6,0.3,19.4c-0.7,2.8-7.1,10.4-10.9,11.8c-3.8,1.4-71.7,3.6-71.7,3.6l0.3,15.4
							c0,0,63.9-1.7,69.4,0c5.7,1.7,13.2,5.4,14.2,13.5s1,31.5,0.5,33.9c-0.5,2.3-3.6,8.5-8.1,9.5s-105.1,6.1-129.4,4
							c-9.5-3.3-11.9-8.1-11.9-21.8c0-13.5,0-19.7,0-21c0-1.3,1-3.1,1.6-5c0.5-1.9,0-6.9,9-10.2c3.6-1.4,49.7-1.7,49.7-1.7
							l-0.5-15.8c0,0-27.5,1-30.8,0s-11.9-4.8-11.9-6.8c0-1.9,1.6-3.3,1.6-3.3s-2.4-4.3-0.7-8c1.7-3.6,7.3-15.6,9.2-17.1
							c1.9-1.6,20.8-23.2,54.4-26.3s61.8,8.7,64.2,14.5c0,3.3,1.6,7.6,1.6,7.6h10.3c0,0-0.7-11.3,0.3-12.5
							c1-1.4,20.8-23.2,20.8-23.2l44.9-46.7c0,0,11.3-11.3,11.9-13.3c0.7-2.1,1.9-9.7,0.3-10.7c-1.6-1-128.8-4-131.8-3.6
							c-2.9,0.5-40.2-0.3-42.1,0.3c-1.9,0.5-5.5-0.5-8.7-0.5c-3.3,0-6.6,0.3-10.2,0.5c-3.6,0.3-5.9-1-10.9-1.4
							c-4.8,0-14.2-0.5-14.2-0.5s-2.9-0.3-2.8-5c0.3-4.8-1.4-9.5,3.6-10s7.6,0,7.6,0s4-3.3,10.2-3.1c6.2,0.3,9-4.8,16.5-4.7
							c7.4,0.3,48-45.7,48-45.7s70.1-65.1,80.7-68.2c3.8-2.6,6.2-6.4,10.2-7.1c3.8-0.7,11.9-1,14.5-4.7c2.6-3.6,0.3-19.2,1-22
							s3.8-2.3,3.6-7.6c-0.3-5.4-2.8-4-0.5-10.4c2.1-6.4,5.7-10.4,9.2-11.3c3.6-0.7,9.9-5,11.9-8.5c2.1-3.5,0.7-6.9,7.3-10.7
							s5.9-11.8,2.9-15.4c-2.9-3.6-10.2-8.5-10.2-15.4s-3.8-29.6,0.3-33.6c4-3.8,17.5-16.6,18-18.9c0.5-2.3,0.3-6.9-1.6-10
							s-0.5-6.8,5.5-11.1c5.9-4.3,7.1-9.5,7.3-15.1c0.3-5.7,3.6-10.7,8.8-13.2c5.2-2.3,38.8-24.2,40.9-25.3c2.1-1,6.2-2.6,9.5,1.4
							c3.3,3.8,11.4,11.4,11.4,11.4l6.6-5c0,0-16.6-16.6-17.1-19.9c-0.5-3.3-1.6-11.4-0.5-15.8c1-4.3,6.2-15.8,7.6-17.7
							c1.4-1.7,8.1-12.1,9-13.3c0.7-1.4,13.2-7.6,16.6-10c3.6-2.3,20.8-14.9,24.6-22.2c3.8-7.1,18.9-30.5,20.1-40.7
							c1.2-10.2,1.4-11.4,1.4-11.4v-2.6l1.6-0.3c0,0-1.4-5-0.3-6.8c1-1.6-0.7-1.6-0.7-1.6l-0.3-2.1l1.4-0.3c0,0,0-7.4-0.3-10
							s-2.8-8-2.4-9.7c0.3-1.7-1-9.5-2.8-10.4c-1.6-1,1-6.1-4.7-15.6s-41.2-57.7-45.2-63.7s-20.1-23.9-2.9-65.3
							c3.6-13.5,5.5-24.2-0.7-41.6c-6.2-17.1,22.7-21.5,32.7-28.9s48.3-33.2,62.2-53.7c13.9-20.4,25.1-37.2,28.6-38.3
							c-0.5-2.3-1.9-5.7-1.9-5.7s-60.3,12.3-63,12.3s-36.9,3.1-45.7-4.3c-9-7.4-12.5-18.5-11.8-30.6c0.7-12.3,18.4-32.2,33.9-42.8
							c15.6-10.4,27.4-14,49.4-14.9c22.2-0.7,23.4-3.3,34.6,0c11.3,3.3,18,9.7,24.2,15.4c6.2,5.7,10.2,19.2,10.6,24.9
							c0.3,5.7,4.8,31.2,4.7,32.6c-0.3,1.4-32.2,6.4-32.2,6.4l1,5.9c0,0,30.6-5.9,32.6-5.4c1.9,0.5,19.9,60.8,19.9,60.8
							s15.2-2.3,16.1-2.8c0.9-0.5-10.2-61-10.2-61s-11.8-69.6-12.3-72.6c-0.5-2.8-0.7-15.4,12.5-19.4c13.5-4,22.7,8,23.4,14.9
							s22.2,132.1,22.2,132.1l19.9-2.8c0,0,4-14.5,3.8-28.9s-0.5-34.6-4.7-45.4s-9.2-57.7-10.2-61.8c-1-4-30-66.5-35-69.6
							c1.4-1.4,1.4-1.4,1.4-1.4s-9.2-10.7-10.2-13.9c-1-3.1-2.8-9-5.9-13.5c-3.3-4.7-9.5-14.9-9.5-14.9s-20.4,1-21.3,0.3
							c-0.7-0.7-13.5-19.2-13.5-19.2h-11.3c0,0,9.5,12.5,11.3,17.1c1.6,4.7,12.5,21.1,15.8,25.1c3.3,3.8,11.9,14.4,3.3,25.8
							c-8.8,11.4-21.8,8.7-39.3,10c-17.5,1.4-59.9,3.1-64.9,3.3c-4.8,0.3-37.4,11.8-43.5,15.4s-15.2,8.7-16.1,10.4s-2.3,2.3-4.7,3.8
							c-2.4,1.6-18.5,16.5-27.5,20.8s-28.1,17.1-51.6,23.9s-61.6,9.5-74.1,8.5c-12.5-1-52.6-13.5-59.6-17.7
							c-6.9-4.2-48.3-31.9-56.6-45.2c-8.3-13.3-25.6-53.9-26.8-74.8c-1.2-20.8,11.9-68.1,25.1-89.9c13.2-22,55.1-52.3,80.2-58.5
							s42.6-10.2,52.6-10.2s149.6-2.8,156.7-2.3c7.1,0.5,32.4,17.8,32.4,17.8s24.4,33.1,28.7,39.3c4.3,6.2,19.7,33.4,22.7,33.4
							c2.9,0,5.4,3.5,8.3,7.3c2.9,3.8,4.8,9.5,7.8,10.7c2.9,1.2,14.9,18.5,14.9,18.5l11.9-0.5c0,0-11.9-13.5-11.9-15.2
							c0-1.6,44.3-3.5,44.3-3.5s1.2-11.8-0.5-14c-1.7-2.3-5.2-10-6.4-11.3c-1.2-1.4-3.8-3.8-5-3.8s-3.3,1-3.3,1s-0.7,2.8,0.7,4.3
							c1.4,1.6,2.9,4.8,4.8,5.9c1.9,0.9,7.1,4.8,7.6,7.1s1.2,5.2-0.5,5.9c-1.6,0.5-36.4,2.4-39,2.3c-2.6-0.2-6.2-1.7-9-6.2
							c-2.8-4.7-28.2-40-28.6-41s-1.4-17.5-1.2-18.7c0.3-1.4,11.8-12.5,15.6-13s25.5-2.3,27.5-1.7c2.1,0.5,6.2,2.6,6.2,4.3
							c0,1.7-1.6,21-2.8,23c-1.2,2.3,0.7,3.3,1.6,5.4c0.9,2.1,14.4,10.6,14.7,13.7c0.5,2.9,2.8,3.5,4.7,2.8s2.8-4.8,1.4-7.6
							c-1.4-2.6-9.2-2.9-11.1-4.3c-1.7-1.4-7.1-4.8-7.1-8.5c0-3.5,0.3-1.9,2.1-6.8c1.7-4.8,2.9-21.8,1.6-24.2s-1.6-3.5-8-3.5
							c-6.2,0-25.1,1-27,0c-2.1-1-2.6-24.2-2.4-25.6c0.3-1.4-5.9-1.4-5.9-0.2c0,1,1.2,23.9,0,26.5s-9.7,10.6-11.6,11.1
							c-1.9,0.5-4.2-1.7-3.8-4.8c0.3-3.3,0.9-32.9,0.9-32.9l-3.5-0.2c0,0,0.9,17.1-0.5,17.7c-1.4,0.5-8.5-0.9-12.6-6.1
							c-4.2-5.2-18-17.5-22.7-19.9s-23.4-11.9-27.5-13.5c-4.2-1.6-17.3-4.7-20.1-4.8c-2.8-0.5-11.6-3.5-22.3-3.5s-83.1,2.3-83.1,2.3
							s-97.8,2.6-100.8,2.6c-2.9,0-3.3-1.7-5.5-1.7c-2.4,0-0.3,2.6-2.4,2.4s-9.5-0.5-13-2.9c-3.5-2.6-11.3-9.4-12.5-13.9
							c-1.2-4.7-2.1-15.2,0-18s7.4-13.5,16.5-15.2c9-1.7,198.3-5.9,200.7-6.1c2.4-0.3,18-2.6,19.9-3.3c1.7-0.5,39-13,49.9-24.2
							c10.9-11.3,23-23,24.4-24.6c1.6-1.6,3.8-2.3,6.2-1.4s4.7,1.4,5.5-0.5c0.9-1.7-1.2-22-7.1-25.3c-5.9-3.5-6.8-5.4-27.5-4.3
							s-168.8,2.4-170.7,1.7c-1.7-0.5-5.5-3.3-5.4-6.6c0.3-3.3-0.5-10.4,2.8-12.5c3.3-2.3,3.8-4.3,7.6-3.8s173.3-5.7,176.3-6.1
							c2.9-0.5,27.4-23,29.1-23.2c1.7-0.3,88.8-6.6,90.7-2.9c1.7,3.5,3.3,21.8,3.3,21.8l12.5-0.2"/>
						<path fill="#C6E4CB" d="M275.1,115.7c1.4-2.8,6.6-11.8,10.4-13.5c0-1.6,0-2.6,1.2-2.8c1.2-0.2,6.4-2.8,8.7-2.3
							c2.3,0.5,0.2,2.3,2.3,2.3s5.2-1,5.2-1s-0.2-1,0.7-1.4c0.9-0.3,6.4-0.5,6.4-0.5v2.1c0,0,5.9-1.2,8.5,0s17.1,12.1,18.7,12.6
							s7.6,5.7,10.2,8.7c2.6,2.9,6.9,8.7,8.1,9.4c1.4,0.7,2.4,0.9,3.1,2.8c0.5,1.9-0.7,0.7-0.7,0.7s12.5,18.4,14.2,21.6
							c1.7,3.3,2.8,6.9,0,8.8c-2.8,1.9-28.1,22.2-29.6,23c-1.6,0.9-9.5,3.3-13.5,2.9c-4-0.3-7.8-1-10-2.3
							c-2.3-1.2-29.8-12.6-31.2-13.9c-1.4-1.2-5.4-4.3-5.2-5.9c0.2-1.4-3.5-8.1-5.2-10.6c-1.7-2.4-6.2-9.2-6.2-9.2l-2.3,0.3
							l-0.5-2.1l2.3-1.6c0,0-3.8-4.2-2.3-11.6C270,125,275.1,115.7,275.1,115.7z"/>
						<path fill="#C6E4CB" d="M237.4,135.8c1.2-1.4,3.6-4.2,4.8-4c1.2,0.2,3.8,1.6,5.5,1c1.7-0.5,3.8-1,7.6,1
							c3.8,2.1,2.6,5.4,1.7,5.9c-0.9,0.7-10.4,0.5-12.1,0.5s-7.4,1-7.6,0.3C237.1,139.6,236.9,136.2,237.4,135.8z"/>
						<path fill="#C6E4CB" d="M218.5,408c0-5.9,13.5-26.7,23.4-27.5c9.9-0.9,28.4-1.6,34.1,5.9c5.9,7.6,10.7,9,13.5,28.4
							s14.9,98.2,14.9,101.8c0,3.8,0,24.2-18,30.5c-18,6.4-25.3,5-32.9,0s-15.4-4.2-18.9-19C231.2,513.2,218.5,408,218.5,408z"/>
						<path fill="#C6E4CB" d="M335.6,597.8c-0.9,1.4-0.7,3.5,1.4,6.9c2.1,3.5,32.4,49.9,32.4,50.2c0,0.5-1.6,3.8-1.9,3.3
							s-100.4-45.9-100.8-45.7c-0.5,0.2-1.6,3.5-2.4,3.5c-0.7,0-14.5-5-14.5-6.2s2.9-6.8,2.6-7.3c-0.5-0.5-20.6-6.8-25.5-8.5
							c-4.8-1.7-86.2-39.3-86.2-39.3L63.1,520L-50,469.8l-138.6-62.2l5.7-9.2c0,0,108.9,50,110.5,50.2c1.6,0.3,4.8,0.2,9.4,2.6
							c4.5,2.4,109.4,49,109.4,49s195,88.1,197.7,88.8c2.8,0.5,26.8,7.1,40.3,6.4s30-4.8,33.1-7.1s6.6-0.2,6.9,1.6
							c0.3,1.7,7.3-2.8,7.3-2.8L335.6,597.8z"/>
						
							<line fill="none" stroke="#FFFFFF" stroke-width="3" stroke-linecap="round" stroke-linejoin="round" stroke-miterlimit="10" x1="682.8" y1="-30.1" x2="690" y2="136.4"/>
						<path fill="none" stroke="#FFFFFF" stroke-width="5" stroke-miterlimit="10" d="M690,140.1c0.5,11.6,3.1,109.4,3.1,109.4
							l-13.4,91.8l-77.1,371.1L653,736"/>
						
							<path fill="none" stroke="#FFFFFF" stroke-width="5" stroke-linecap="round" stroke-linejoin="round" stroke-miterlimit="10" d="
							M565-442.6c0.9,13.2-2.8,19.9,10.6,33.9c13.3,14,28.1,20.6,26.3,42.1c-1.7,21.5-12.1,87.4-18.4,98.9
							c-6.2,11.4-40.3,32-43.1,65.1c4.3,36.2,8,151.7,5.2,164s-69.4,78.4-72,91.9c-2.8,13.5,12.3,477.6,13.2,485.7
							c0.9,8.1,85.2,130.2,86.1,137.7s2.8,13.2,6.1,14c3.6,0.9,103.5-4.2,103.5-4.2"/>
						
							<path fill="none" stroke="#FFFFFF" stroke-width="3" stroke-linecap="round" stroke-linejoin="round" stroke-miterlimit="10" d="
							M433.9,118.8c8.1,2.9,343.4-7.6,343.4-7.6"/>
						
							<path fill="none" stroke="#FFFFFF" stroke-width="4" stroke-linecap="round" stroke-linejoin="round" stroke-miterlimit="10" d="
							M810.6-1118.3c3.1,6.4,31.5,74.8,35.5,103c4,28.2,11.4,95.1,0,138.9c-11.4,44-8.7,108.4-6.9,115.7c1.7,6.9,9,21.5,9,21.5
							c1.9,8,8.3,51.8,3.8,68.4c-4.5,16.6-28.9,61.5-24.2,84.3c4.7,22.9,10.9,36,10.4,41.6C837.7-539.4,816-395.5,811-387
							c-5,8.3-8.5,14.7-10.6,28.2s-19,166.4-19.9,170c-0.7,3.6-4.7,15.1-17,22.2c-12.3,7.1-13.2,16.3-14.4,25.1
							c-1.4,8.8-10.2,67.2-14,73.6s-3.8,9.2-10.6,13.2c-6.8,4-315.8,180.1-318.4,181.3s-19.6,4.8-28.4,5.2
							c-9,0.3-292.5,13.9-298.5,14c-6.1,0.2-177,8.5-182.5,9.9"/>
						
							<path fill="none" stroke="#FFFFFF" stroke-width="3" stroke-linecap="round" stroke-linejoin="round" stroke-miterlimit="10" d="
							M692.3,225.8c-6.4,0.5-268.7,7.6-268.7,7.6"/>
						
							<path fill="none" stroke="#FFFFFF" stroke-width="3" stroke-linecap="round" stroke-linejoin="round" stroke-miterlimit="10" d="
							M599.1,649.2l-13.3-406.8c0,0-7.6-205.2-7.8-211.3c-0.3-12.1,47.3-104.8,47.3-104.8s5.5-82.3,8.1-84.2
							c2.8-1.9,4.2-3.8,8.1-3.3c4.2,0.5,18.9,2.6,18.9,2.6l119.7-30.3"/>
						
							<path fill="none" stroke="#FFFFFF" stroke-width="3" stroke-linecap="round" stroke-linejoin="round" stroke-miterlimit="10" d="
							M664.8,538.5c-1.2,5.4-32.2,150.3-32.2,150.3"/>
						
							<path fill="none" stroke="#FFFFFF" stroke-width="3" stroke-linecap="round" stroke-linejoin="round" stroke-miterlimit="10" d="
							M452.3,366c3.5,0,219.4-6.2,223-5.5c3.8,0.7,44.7,8.8,48.7,8.8"/>
						
							<path fill="none" stroke="#FFFFFF" stroke-width="3" stroke-linecap="round" stroke-linejoin="round" stroke-miterlimit="10" d="
							M431.5,396.4c5.9,0,237.2-5.4,240.7-5.4s42.1,6.9,46.6,5.4c4.7-1.6,16.1,0.3,16.1,0.3"/>
						
							<path fill="none" stroke="#FFFFFF" stroke-width="3" stroke-linecap="round" stroke-linejoin="round" stroke-miterlimit="10" d="
							M665.8,535.8c11.1,0.2,37.4-0.9,40.9-2.6"/>
						
							<path fill="none" stroke="#FFFFFF" stroke-width="3" stroke-linecap="round" stroke-linejoin="round" stroke-miterlimit="10" d="
							M621.3,115.1c-0.7-16.8-2.8-103.4-2.8-103.4s-1.4-10.2,9.7-31c11.1-20.8,23.4-48,23.4-48l9.2-91.3"/>
						
							<path fill="none" stroke="#FFFFFF" stroke-width="3" stroke-linecap="round" stroke-linejoin="round" stroke-miterlimit="10" d="
							M620.3,688.8l31.3-150.3l3.8-20.8c0,0,35.2-164,36-169c0.7-5,15.6-95.4,15.1-106.1"/>
						
							<path fill="none" stroke="#FFFFFF" stroke-width="3" stroke-linecap="round" stroke-linejoin="round" stroke-miterlimit="10" d="
							M673.9,718.3V715c0,0,3.5-1.6,3.6-3.8c0.2-2.3-1.2-5-4.3-5.2s-4.2,3.1-4,4.5s-9.2,1.6-10.7,1.6c-1.6-0.2-4.2-1.2-2.8-3.8
							c1.6-2.8,2.6-28.6,3.8-34.1s64.4-297.5,67.2-313.6s17.5-105.8,17.8-113.4c0.5-7.6-1.6-21.5-1.6-21.5"/>
						<path fill="none" stroke="#FFFFFF" stroke-width="2" stroke-miterlimit="10" d="M724,225.8c2.8-0.5,27.9,0,27.9,0"/>
						
							<path fill="none" stroke="#FFFFFF" stroke-width="3" stroke-linecap="round" stroke-linejoin="round" stroke-miterlimit="10" d="
							M744.6,247.2c-5.9,0.3-12.5,0-12.5,0s-7.8,57.8-9.7,72.2c-1.9,14.2-46.6,226.7-46.6,226.7l-29.6,140.6"/>
						
							<path fill="none" stroke="#FFFFFF" stroke-width="3" stroke-linecap="round" stroke-linejoin="round" stroke-miterlimit="10" d="
							M501.3,564l133-4.7c5.5,1.6,75.8,14.5,75.8,14.5"/>
						
							<path fill="none" stroke="#FFFFFF" stroke-width="3" stroke-linecap="round" stroke-linejoin="round" stroke-miterlimit="10" d="
							M605.7,540c0,0,5.7,76,4.8,79.1"/>
						
							<path fill="none" stroke="#FFFFFF" stroke-width="3" stroke-linecap="round" stroke-linejoin="round" stroke-miterlimit="10" d="
							M622,590l-1.6-51.6c0,0-4.7-177.5-4.7-184.2s-6.8-198.6-6.8-198.6"/>
						
							<line fill="none" stroke="#FFFFFF" stroke-width="3" stroke-linecap="round" stroke-linejoin="round" stroke-miterlimit="10" x1="570.9" y1="620.8" x2="565.2" y2="363"/>
						
							<path fill="none" stroke="#FFFFFF" stroke-width="3" stroke-linecap="round" stroke-linejoin="round" stroke-miterlimit="10" d="
							M511,364.8c0,0,4.3,159.8,3.8,169.5s2.4,29.1,2.4,29.1"/>
						
							<path fill="none" stroke="#FFFFFF" stroke-width="3" stroke-linecap="round" stroke-linejoin="round" stroke-miterlimit="10" d="
							M538.2,363.8c0,0,6.6,253.3,8.5,258.4"/>
						
							<path fill="none" stroke="#FFFFFF" stroke-width="3" stroke-linecap="round" stroke-linejoin="round" stroke-miterlimit="10" d="
							M463.5,511.7c3.6,0,181.5-3.8,181.5-3.8"/>
						
							<polyline fill="none" stroke="#FFFFFF" stroke-width="3" stroke-linecap="round" stroke-linejoin="round" stroke-miterlimit="10" points="
							484.7,480.6 651.3,477.4 699.9,486.6 						"/>
						
							<line fill="none" stroke="#FFFFFF" stroke-width="3" stroke-linecap="round" stroke-linejoin="round" stroke-miterlimit="10" x1="643.5" y1="515.2" x2="693" y2="515.2"/>
						
							<path fill="none" stroke="#FFFFFF" stroke-width="3" stroke-linecap="round" stroke-linejoin="round" stroke-miterlimit="10" d="
							M720.3,241l-54.4,1.7c0,0-79.5,1.6-86.2,1.6s-18.2,0.9-18.2,0.9"/>
						
							<path fill="none" stroke="#FFFFFF" stroke-width="3" stroke-linecap="round" stroke-linejoin="round" stroke-miterlimit="10" d="
							M729.5,343.1c0,0-44.2-5.9-52.8-5.5c-8.7,0.5-87.8,2.8-87.8,2.8"/>
						
							<path fill="none" stroke="#FFFFFF" stroke-width="3" stroke-linecap="round" stroke-linejoin="round" stroke-miterlimit="10" d="
							M734.4,313.8c0,0-45.9-5.7-50-5.7c-4.2,0.2-96.3,2.8-96.3,2.8"/>
						
							<path fill="none" stroke="#FFFFFF" stroke-width="3" stroke-linecap="round" stroke-linejoin="round" stroke-miterlimit="10" d="
							M737.8,284.2c0,0-45.7-5.9-51.6-5.9c-5.7,0-99.2,2.9-99.2,2.9"/>
						
							<path fill="none" stroke="#FFFFFF" stroke-width="3" stroke-linecap="round" stroke-linejoin="round" stroke-miterlimit="10" d="
							M706.5,456.4c0,0-45.9-9.2-53.7-8.7s-195.5,4.3-195.5,4.3"/>
						
							<path fill="none" stroke="#FFFFFF" stroke-width="3" stroke-linecap="round" stroke-linejoin="round" stroke-miterlimit="10" d="
							M468.7,539.3c-0.5-2.9-4.8-20.4-3.8-24.6c0.9-4.2-5.5-5.2-5.9-14.2c-0.2-8.8-12.5-381.1-12.5-381.1"/>
						
							<path fill="none" stroke="#FFFFFF" stroke-width="3" stroke-linecap="round" stroke-linejoin="round" stroke-miterlimit="10" d="
							M460.6,119.3c0,0,10.2,330.2,10.2,332.5"/>
						<path fill="none" stroke="#FFFFFF" stroke-width="2" stroke-miterlimit="10" d="M451.1,258c0,0,22.9-2.4,26.7,0"/>
						
							<line fill="none" stroke="#FFFFFF" stroke-width="3" stroke-linecap="round" stroke-linejoin="round" stroke-miterlimit="10" x1="473.4" y1="158.2" x2="402.6" y2="160.6"/>
						
							<path fill="none" stroke="#FFFFFF" stroke-width="3" stroke-linecap="round" stroke-linejoin="round" stroke-miterlimit="10" d="
							M419.2,130.6c0,0,3.1,69.3,2.1,73.1c-1,3.8,1.6,5.9,2.3,14.5c0.9,8.7,0,67.4,0,67.4"/>
						
							<path fill="none" stroke="#FFFFFF" stroke-width="3" stroke-linecap="round" stroke-linejoin="round" stroke-miterlimit="10" d="
							M452.3,343.1c0,0,84.7-1.4,85.7-2.8c1-1.6-4.5-103.9-3.6-110.1c0.9-6.2-5.9-160.7-5.9-160.7"/>
						
							<line fill="none" stroke="#FFFFFF" stroke-width="3" stroke-linecap="round" stroke-linejoin="round" stroke-miterlimit="10" x1="419.2" y1="285.5" x2="536.1" y2="282.1"/>
						
							<path fill="none" stroke="#FFFFFF" stroke-width="3" stroke-linecap="round" stroke-linejoin="round" stroke-miterlimit="10" d="
							M510,341.2c0,0-8.8-251.8-8.3-254.5c0.5-2.8-0.9-5.9,10-5.9s68.2-1.9,68.2-1.9"/>
						
							<path fill="none" stroke="#FFFFFF" stroke-width="3" stroke-linecap="round" stroke-linejoin="round" stroke-miterlimit="10" d="
							M561.4,234.8c0,0-2.1-53.3-3.5-65.1c-1.4-11.8-4.7-112.4-4.7-114.8s1.6-4.3,8.1-4.3c6.6,0,58,0,58,0"/>
						<line fill="none" stroke="#FFFFFF" stroke-width="2" stroke-miterlimit="10" x1="580.1" y1="88.3" x2="619.2" y2="86.9"/>
						<line fill="none" stroke="#FFFFFF" stroke-width="2" stroke-miterlimit="10" x1="620.3" y1="90.2" x2="639.5" y2="90.2"/>
						
							<path fill="none" stroke="#FFFFFF" stroke-width="3" stroke-linecap="round" stroke-linejoin="round" stroke-miterlimit="10" d="
							M421.6,196l306.5-8l6.2,2.4c0,0,0,5,1.6,5.5s5.9-1.6,5.9-3.8c0-2.4-1.6-3.8-3.8-3.8"/>
						<line fill="none" stroke="#FFFFFF" stroke-width="2" stroke-miterlimit="10" x1="730" y1="175.1" x2="761.9" y2="173.2"/>
						
							<line fill="none" stroke="#FFFFFF" stroke-width="3" stroke-linecap="round" stroke-linejoin="round" stroke-miterlimit="10" x1="660.8" y1="140.1" x2="666" y2="252.5"/>
						
							<path fill="none" stroke="#FFFFFF" stroke-width="3" stroke-linecap="round" stroke-linejoin="round" stroke-miterlimit="10" d="
							M649.7,167.8c0,0-151.9,3.6-156,3.8c-4.1,0.2-1.6,22.7-1.6,22.7"/>
						
							<line fill="none" stroke="#FFFFFF" stroke-width="3" stroke-linecap="round" stroke-linejoin="round" stroke-miterlimit="10" x1="633.9" y1="115.5" x2="644.8" y2="477.5"/>
						
							<line fill="none" stroke="#FFFFFF" stroke-width="3" stroke-linecap="round" stroke-linejoin="round" stroke-miterlimit="10" x1="632.6" y1="477.5" x2="633.9" y2="507.9"/>
						
							<line fill="none" stroke="#FFFFFF" stroke-width="3" stroke-linecap="round" stroke-linejoin="round" stroke-miterlimit="10" x1="579.7" y1="479" x2="579.7" y2="498.2"/>
						
							<polyline fill="none" stroke="#FFFFFF" stroke-width="3" stroke-linecap="round" stroke-linejoin="round" stroke-miterlimit="10" points="
							457.7,425.2 663.2,420 712.7,427.9 						"/>
						
							<line fill="none" stroke="#FFFFFF" stroke-width="3" stroke-linecap="round" stroke-linejoin="round" stroke-miterlimit="10" x1="499.9" y1="451" x2="501.6" y2="509.8"/>
						
							<path fill="none" stroke="#FFFFFF" stroke-width="3" stroke-linecap="round" stroke-linejoin="round" stroke-miterlimit="10" d="
							M524.7,341.2c0,0-4.5-91.1-3.1-94.2c1.4-3.1,13-2.1,13-2.1"/>
						
							<line fill="none" stroke="#FFFFFF" stroke-width="3" stroke-linecap="round" stroke-linejoin="round" stroke-miterlimit="10" x1="426.5" y1="313.8" x2="536.1" y2="311"/>
						<line fill="none" stroke="#FFFFFF" stroke-width="2" stroke-miterlimit="10" x1="423.9" y1="308" x2="452.3" y2="308"/>
						<line fill="none" stroke="#FFFFFF" stroke-width="2" stroke-miterlimit="10" x1="407.3" y1="147" x2="407.3" y2="160.5"/>
						<line fill="none" stroke="#FFFFFF" stroke-width="2" stroke-miterlimit="10" x1="402.6" y1="177.6" x2="421.6" y2="177.6"/>
						<line fill="none" stroke="#FFFFFF" stroke-width="2" stroke-miterlimit="10" x1="395.1" y1="194.2" x2="421.5" y2="192.1"/>
						<path fill="none" stroke="#FFFFFF" stroke-width="2" stroke-miterlimit="10" d="M421.3,203.8c0,0-24.2,0.2-26.1,0
							c-1.9-0.2-0.5,18.9,0,22s12.3,0,12.3,0"/>
						<path fill="none" stroke="#FFFFFF" stroke-width="2" stroke-miterlimit="10" d="M422.9,213.5c0,0,47.4-1.9,52.6-1"/>
						<polyline fill="none" stroke="#FFFFFF" stroke-width="2" stroke-miterlimit="10" points="503.2,142.8 491.3,142.8 491.3,119 
													"/>
						<line fill="none" stroke="#FFFFFF" stroke-width="2" stroke-miterlimit="10" x1="602.6" y1="116.2" x2="602.6" y2="140.1"/>
						<line fill="none" stroke="#FFFFFF" stroke-width="2" stroke-miterlimit="10" x1="647.8" y1="116.2" x2="649.7" y2="142.8"/>
						<line fill="none" stroke="#FFFFFF" stroke-width="2" stroke-miterlimit="10" x1="690" y1="153.6" x2="761.9" y2="150.1"/>
						
							<line fill="none" stroke="#FFFFFF" stroke-width="3" stroke-linecap="round" stroke-linejoin="round" stroke-miterlimit="10" x1="717.7" y1="152.1" x2="714.6" y2="46.1"/>
						
							<line fill="none" stroke="#FFFFFF" stroke-width="3" stroke-linecap="round" stroke-linejoin="round" stroke-miterlimit="10" x1="686.1" y1="46.1" x2="748.7" y2="46.1"/>
						
							<line fill="none" stroke="#FFFFFF" stroke-width="3" stroke-linecap="round" stroke-linejoin="round" stroke-miterlimit="10" x1="687.3" y1="76.2" x2="790.3" y2="74.1"/>
						
							<path fill="none" stroke="#FFFFFF" stroke-width="3" stroke-linecap="round" stroke-linejoin="round" stroke-miterlimit="10" d="
							M669.1,8.8c0,0,17.1-0.5,18.2,0c1,0.5,93.2,34.3,93.2,34.3"/>
						
							<path fill="none" stroke="#FFFFFF" stroke-width="3" stroke-linecap="round" stroke-linejoin="round" stroke-miterlimit="10" d="
							M695.8,46.1c0,0,38.6-89.2,38.6-92.1s-5.7-11.8-5.7-11.8"/>
						
							<path fill="none" stroke="#FFFFFF" stroke-width="3" stroke-linecap="round" stroke-linejoin="round" stroke-miterlimit="10" d="
							M682.6-19.1c0,0,25.3-15.2,27.7-14.7c2.8,0.5,87.8,27.9,88.8,30.5c1,2.4-11.1,29.4-11.1,29.4L683.5-10.1"/>
						
							<line fill="none" stroke="#FFFFFF" stroke-width="3" stroke-linecap="round" stroke-linejoin="round" stroke-miterlimit="10" x1="737.8" y1="8.5" x2="721.4" y2="46.1"/>
						<path fill="none" stroke="#FFFFFF" stroke-width="2" stroke-miterlimit="10" d="M687.3,90.2c0,0-13-2.1-13,2.9s6.6,21,6.6,21"
							/>
						
							<path fill="none" stroke="#FFFFFF" stroke-width="3" stroke-linecap="round" stroke-linejoin="round" stroke-miterlimit="10" d="
							M535.2,53.2c0,0-8.1-3.6-9.7-6.9c-1.6-3.5-19.4-31.9-22.2-34.3c-2.8-2.4-11.9-9.9-11.9-9.9"/>
						
							<path fill="none" stroke="#FFFFFF" stroke-width="3" stroke-linecap="round" stroke-linejoin="round" stroke-miterlimit="10" d="
							M527.8,48.8c-3.3,1.4-5.5,3.5-8.5,3.1c-2.8-0.2-39.8,0.5-44.7-1.6"/>
						
							<path fill="none" stroke="#FFFFFF" stroke-width="3" stroke-linecap="round" stroke-linejoin="round" stroke-miterlimit="10" d="
							M402.4,127.3c0,0-1.6-87.8,0-90s64.8-1.6,71-3.8c6.1-2.1,17.8-6.1,17.8-6.1"/>
						<line fill="none" stroke="#FFFFFF" stroke-width="2" stroke-miterlimit="10" x1="398.4" y1="84.1" x2="473.4" y2="81"/>
						
							<path fill="none" stroke="#FFFFFF" stroke-width="3" stroke-linecap="round" stroke-linejoin="round" stroke-miterlimit="10" d="
							M421.1,120.3c0,0-2.8-5.9-2.8-12.3s-0.5-72.2-0.5-72.2"/>
						
							<line fill="none" stroke="#FFFFFF" stroke-width="3" stroke-linecap="round" stroke-linejoin="round" stroke-miterlimit="10" x1="446.6" y1="36" x2="444.5" y2="105.1"/>
						
							<path fill="none" stroke="#FFFFFF" stroke-width="3" stroke-linecap="round" stroke-linejoin="round" stroke-miterlimit="10" d="
							M473.4,48.8c-1.6-3.1-2.4-16.1-3.5-21.3s-10-24-13.5-28.2c-3.6-4.2-50-42.6-52.8-46.9c-2.8-4.2-8.1-9-9.2-15.9"/>
						
							<path fill="none" stroke="#FFFFFF" stroke-width="3" stroke-linecap="round" stroke-linejoin="round" stroke-miterlimit="10" d="
							M469.6,26.5c0,0,15.2-11.3,16.8-14.2c1.6-2.9,2.4-10.7,6.9-16.6s25.1-27.7,26.5-32.4c1.6-4.7,2.6-9.9,2.6-17
							c0-6.9-1.9-110.5-2.6-115.2c-0.5-4.8-13-23.2-13.2-33.6c0-10.4,2.6-19.9,13.2-32c10.6-12.3,40.7-43.8,46.2-44.8
							c5.5-0.9,23.2,1.9,33.8,2.4s52.3-6.1,61-16.1c8.5-9.9,22.7-31.2,27.5-46.8c5-15.6,6.6-45.4,6.6-59.6s0-31.2,18.7-64.8
							c5.9-12.3,6.6-19.9,14-19.9s98.7,15.9,98.7,15.9"/>
						
							<path fill="none" stroke="#FCBB31" stroke-width="6" stroke-linecap="round" stroke-linejoin="round" stroke-miterlimit="10" d="
							M-185.6,402.9c0,0,402.9,182.2,422.3,190c19.4,7.6,44.7,10,58.4,8.8c13.7-1.2,142.7-56.6,156.4-60.8c13.9-4.2,36,0.5,47.8,0
							c11.6-0.5,162.1-4.2,166.4-5.4c4.3-1.2,30.1-151,33.9-164c3.8-13,46.6-306.5,48.3-321.9s29.6-67.7,39-99
							c9.4-31.2,22-32.4,27.5-40.2c5.7-7.8,6.2-31.9,4.3-40"/>
						
							<path fill="none" stroke="#FFFFFF" stroke-width="3" stroke-linecap="round" stroke-linejoin="round" stroke-miterlimit="10" d="
							M380.9-16.5c1.4-3.8,71-2.9,73.6-2.4c2.6,0.7,4.7,15.9,1.6,18c-2.9,2.1-21.8-0.7-30,0C418-0.2,393.7,3.9,392,1.9
							C390.5-0.4,378.2-8.3,380.9-16.5z"/>
						<line fill="none" stroke="#FFFFFF" stroke-width="2" stroke-miterlimit="10" x1="404.7" y1="-19.1" x2="405" y2="1.9"/>
						
							<path fill="none" stroke="#FFFFFF" stroke-width="3" stroke-linecap="round" stroke-linejoin="round" stroke-miterlimit="10" d="
							M287.6,163.5c0,0,12.8-10.2,14.4-9.7s36.4,2.3,38.1,0c1.6-2.3,4.7-7.6,2.1-10.9s-10.2-14.2-13.9-14.5
							c-3.6-0.3-31.3,1.4-31.3,1.4s-5,1.4-3.1,6.1s7.1,15.4,7.1,15.4"/>
						<path fill="none" stroke="#FFFFFF" stroke-width="2" stroke-miterlimit="10" d="M304.6,105.1c0,0-0.9,17,0,18.9
							s2.9,5.5,2.9,5.5"/>
						<polyline fill="none" stroke="#FFFFFF" stroke-width="2" stroke-miterlimit="10" points="328.7,119 324.3,124 324.3,127.3 
													"/>
						<line fill="none" stroke="#FFFFFF" stroke-width="2" stroke-miterlimit="10" x1="277.4" y1="120.3" x2="293.3" y2="133"/>
						
							<path fill="none" stroke="#FFFFFF" stroke-width="3" stroke-linecap="round" stroke-linejoin="round" stroke-miterlimit="10" d="
							M232,590l33.6-66.3c0,0,6.2-0.5,7.3-4.5c1-3.8-14.2-106-14.2-106s-8-8.8-11.1,0c0.5,10.6,9.9,106.5,13.9,108.4"/>
						
							<line fill="none" stroke="#FFFFFF" stroke-width="3" stroke-linecap="round" stroke-linejoin="round" stroke-miterlimit="10" x1="666" y1="279" x2="668.2" y2="338"/>
						<line fill="none" stroke="#FFFFFF" stroke-width="2" stroke-miterlimit="10" x1="423.9" y1="252.5" x2="451.1" y2="252.5"/>
						<line fill="none" stroke="#FFFFFF" stroke-width="2" stroke-miterlimit="10" x1="423.5" y1="269.8" x2="451.1" y2="269.8"/>
						<path fill="#3FB2CB" d="M781.8-76v2.6c0,0-11.3,4-13.9,6.4c-2.6,2.4-13.5,6.6-17.3,9.2c-3.8,2.6-15.6,8-15.6,8
							s-45.7,22.3-48.8,24.1c-2.9,1.6-67.7,37.9-67.7,37.9S575,37.1,569.8,39.9c-5,2.8-86.8,50-89.4,51.9
							c-2.8,1.9-13.2,6.8-13.2,6.8l-0.7-2.4c0,0,102.3-58.9,107-61.1S690-29.8,690-29.8s50.9-26,54.9-27.9s23.4-10.2,26.3-12.5
							C774.2-72.6,781.8-76,781.8-76z"/>
						<path fill="#FCBB31" d="M726.9,787.5c0,0-8.3-2.1-9.5-2.9c-1-1-3.6-13.2-6.1-17.8c-2.6-4.7-6.9-8.5-6.9-24.8s-1-59.7-1.6-74.6
							c-0.5-14.9,2.8-36,3.6-40c0.7-4.2,13.2-76,14.4-79.5c1-3.6,2.9-19,3.6-22.5c0.5-3.5,4.8-28.2,6.2-34.6s9.4-42.4,10.4-46.6
							s10.4-50.2,11.4-53c1-2.6,11.8-67,12.6-75.2c0.9-8.1,6.1-51.3,7.1-55.8s1-11.6,0-14.9s0.9-16.1,2.3-19.6
							c1.4-3.5-1.9-7.4,0-14.7c1.9-7.1,7.4-43.8,8.5-48.7c1-4.8,6.2-35.3,6.9-38.3c0.5-2.8,3.3-21.6,4.5-27.2
							c1.2-5.5,1.9-15.2,5.2-22s5.5-27.2,6.2-30.3c0.9-3.1,14.4-46.4,15.6-48.8s15.9-49,17.3-51.9c1.4-2.8,16.5-48,16.5-48
							s14.5-41,14.5-43.6c0.3-2.6-0.3-10.6,5.5-19c5.9-8.5,10.4-15.8,13.7-30c3.3-14.2,13.3-36.7,14.4-39c1.1-2.3,6.6-33.9,8.1-47.3
							c1.6-13.5,9.4-73.8,10.2-80c0.9-6.2,7.8-58.2,8.5-61.8c0.7-3.6,4.8-32,6.2-40.5s5.9-45.9,6.6-51.4c0.9-5.4,2.3-18.7,3.3-28.6
							c0.9-10.2,2.8-67.2,3.5-70.3c0.5-3.1,5.5-72,6.6-76c1-3.8,5.2-48.7,4.8-59.9c-0.3-11.3,0.9-46.6,1.6-51.3c0.9-4.7,5-54,6.4-61
							s3.3-9.9,2.8-19.9s2.8-40.3,0.2-51.4c-2.6-11.1-0.9-118.6-0.2-125.5c0.9-6.9,6.1-56.6,6.6-63.2c0.5-6.8,7.8-37.7,7.3-53
							c-0.5-15.2-1.6-73.8-1.6-73.8s-2.3-107.2-2.3-110.5s-1-26.1-2.6-36s-0.5-46.9,0-53.3s-2.6-86.8-1.9-91.1
							c0.5-4.3,0-45.9,0.3-49.5s-0.3-48.3-0.9-55.8c-0.5-7.4-4.5-52.6-4.8-56.5c-0.5-3.8-5.9-61-5.5-64.2c0.3-3.5-3.1-35-3.1-35
							s7.4,2.8,9.4,3.5c2.1,0.7,7.3,9.5,5.4,13.5c-1.9,4-0.5,11.3,0.3,15.9c0.9,4.8,5.4,27.7,5.7,32.4c0.3,4.7,5,83.1,6.2,86.4
							s-4.5,19-4.2,22.2c0.3,2.9,6.4,49,6.2,51.4c-0.2,2.6-4.7,24.1-4,28.6c0.5,4.5,2.9,18,2.9,20.4s-0.9,31.9-0.3,34.3
							c0.5,2.6,2.8,11.4,2.6,14.4c-0.3,2.8-5,61-5,63.9s1,28.4,0.3,34.1s-2.4,15.2-1.6,19.9c0.7,4.7,3.3,14.7,3.3,19.9
							s-1,77.6-0.9,80.3c0.2,2.8,6.2,43.1,6.6,46.9c0.2,3.8-5.2,42.8-5.2,45.4s1.6,5.2,1,7.6c-0.5,2.4-1.6,9.9-1.6,14.4
							c0.2,4.3,1.4,54.9,1.2,58.4s-4.7,25.1-4.5,30.1s1.6,51.3,0.5,56.6c-1,5.4-2.8,15.9-2.6,29.3c0.2,13.3,2.1,40.9,1.6,44.7
							s-8.3,31.3-8.3,35s3.8,44.2,3.1,46.1s-2.1,11.3-2.8,22.5c-0.5,11.3-2.6,39-2.1,42.3s1.4,15.2,0.9,27.9
							c-0.5,12.6-0.3,22.3-1,25.3c-0.7,2.8-4.7,21.8-5.7,31.3c-1,9.7-1.4,16.8-1.9,21.1c-0.5,4.5-3.8,18.5-4.3,22.2
							s0.2,10.6-0.7,14.5c-0.9,3.8-5.2,13.7-4.7,18s-2.8,83.5-3.3,87.8s-4,16.3-4.8,25.1c-0.5,8.8-0.2,16.1-1.4,19.4
							c-1.2,3.5-2.6,6.9-3.3,14.5s-2.1,26.8-4.7,31.2s-4.5,31.2-4.8,35s-1.9,36.5-2.3,41.4c-0.3,4.8-1.6,26.1-2.1,30
							c-0.5,3.8-3.1,19.9-3.1,23.9c-0.2,4.2-0.7,41.6-1,45.9c-0.3,4.5-0.9,19.7-1.7,25.5c-0.9,5.9-4.2,20.1-7.1,23.4
							c-2.9,3.3-3.8,6.1-4.8,11.3c-1,5-4.5,15.1-6.9,17.5c-2.3,2.4-6.1,3.6-7.1,6.1c-1,2.6-3.1,9.7-4.8,11.1
							c-1.7,1.4-1.9,1.7-3.3,5.4c-1.4,3.6-11.3,29.1-13,35c-1.6,5.9-3.8,10-4.3,12.6c-0.5,2.8-8.1,25.3-12.1,32.9
							c-3.8,7.6-4.8,9.2-4.8,11.4c-0.2,2.4-0.5,7.4-1.7,10.2c-1.2,2.8-3.1,8.1-3.8,13.3s-1.9,21-3.3,23.7c-1.6,2.8-4.7,10.2-5,13.3
							c-0.5,3.1-0.2,41.2-0.7,44.8c-0.7,3.8-6.8,33.4-8.1,37.2c-1.6,3.8-13.3,32.6-14.5,36.9c-1.4,4.3-11.6,53.3-11.6,53.3
							s-12.5,58.7-12.5,65.3s1.2,15.6-1.6,22.2c-2.8,6.6-20.8,139.2-20.8,139.2s1.4,19.6,0,23.9s-7.3,23.9-8,30.5
							c-0.5,6.6-1.4,12.5-2.3,15.4c-0.7,2.9-1.9,10.7-2.8,14.4c-0.7,3.6-4.7,12.6-6.2,17.3c-1.7,4.7-8.7,24.6-9.9,30.1
							s-21.3,96.8-23,102.2s-3.8,10.7-4.2,13.9c-0.3,3.1-2.6,42.1-2.8,44.7c-0.3,2.6,3.8,94,4,97.8
							C720,777.8,726.9,787.5,726.9,787.5z"/>
						<path fill="#C4E3CA" d="M693,533.2h30.1c0,0,37.6-186.7,39.8-202.1c2.3-15.4,13.7-81.4,9.4-86.1c-6.2-0.3-28.1,2.1-28.1,2.1
							s-5.5,56.6-9.5,72.4C730.7,335.4,693,533.2,693,533.2z"/>
						<path fill="#C4E3CA" d="M536.1,241h19.4v11.4h26.3c0,0,6.4,103.2,5.4,105.5s-95.8,5.5-98.5,5.2s-1.7-20.6-1.7-20.6
							s49.2-0.2,51.3-2.1C540.3,338.6,536.1,241,536.1,241z"/>
						<polygon fill="#C4E3CA" points="659.2,115.1 660.8,140.1 690,140.1 686.1,114.1 						"/>
						<polygon fill="#C4E3CA" points="743,-19.4 734.9,2.8 786.8,21.5 799.1,-3.5 						"/>
						<polygon fill="#C4E3CA" points="581.6,31.7 581.6,48.8 618.4,48.8 615.6,14.4 						"/>
						<path fill="#C4E3CA" d="M669.1,8.5h13.5l-1.7-30.2L651.4-6.1c0,0,13.7-0.3,15.6,1.9C668.6-1.7,669.1,8.5,669.1,8.5z"/>
						<path fill="#37827F" d="M390.3,75.1h11.3l-1,7.4c0,0-3.1-1.7-3.1,1.6c0,3.3,0.3,22.5,1,23.9c0.9,1.2,3.3,1.6,3.3,1.6v14.5
							c0,0-7.3,3.8-9.4,3.5C390.1,126.9,390.3,75.1,390.3,75.1z"/>
						<path fill="#C4E3CA" d="M510,17.1c0,0,19.6,29.6,20.1,31.9c0.5,1.9,5.7,0.5,10.6-2.8c4.8-3.1,36-22.3,36-22.3s2.8-1.2,3.1-3.6
							c0.5-2.3,30.1-66.1,31-67.9c0.9-1.9,12.3-22.9,12.6-25.8c0.5-2.9,3.1-37.6,3.6-41.4s5.4-42.3,4.7-43.5
							c-0.7-1.2-6.4-3.1-11.6-12.5c-5-9.2-10.7-16.6-10.4-18c0.2-1.6,1.9-3.6,4.7-3.6s8.7,7.8,9,9.9c0.2,2.1-1.4,6.8-0.5,9.4
							c0.9,2.8,7.8,11.4,10.7,11.4s3.5-1.9,5.9-1.6c2.6,0.2,18.7,2.3,21.1,2.3s11.1-37.2,12.5-40c1.4-2.8,12.6-44.3,13.5-47.8
							c0.7-3.5,7.4-45.4,7.1-48c-4.3-1.2-24.2-2.9-24.2-2.9s-9.2,10-11.8,11.1c-2.8,1-20.3,9.4-32.4,10.7
							c-12.1,1.2-31.2,2.3-33.2,1.9c0,1.9-11.3,27-22.2,34.8c-10.7,7.8-23,23.9-24.8,33.9c-1.7,10.2,4.2,32.4,4,36.4s0,56.8,0,56.8
							s4.8-0.2,6.2,2.3c1.4,2.6,0.5,6.9-1.6,8.1c-1.9,1.2-3.8,2.1-3.8,2.1s0,61.6-0.5,65.3c-0.5,3.8-8.3,20.8-21.8,34.3
							C514.5,12.1,510,17.1,510,17.1z"/>
						<path fill="#3FB2CB" d="M538.2,1.9c2.3-0.5,2.3-3.6,2.6-5.9s3.8-3.8,5.4-3.8c1.6,0,3.1-0.3,1.9,1.9s-5.5,6.2-4.7,8
							c0.9,1.6,8.3,4,10.2,4c1.7,0,2.4-2.1,7.4-2.8s11.3-1.4,11.3-1.4s2.6,8.1,0.9,12.3c-1.6,4-10.4,7.6-17.1,9.7
							c-6.6,2.1-11.4,1.6-17.7,0c-6.1-1.6-7.8-5.9-10.2-6.1c-2.6-0.3-6.6-0.5-6.6-0.5l1.9-2.8C523.1,14.4,535.6,2.8,538.2,1.9z"/>
						<path fill="none" stroke="#00C86A" stroke-width="6" stroke-miterlimit="10" d="M491.3,27.7"/>
						<path fill="none" stroke="#00C86A" stroke-width="6" stroke-miterlimit="10" d="M402.4,37.4"/>
						<path fill="none" stroke="#00C86A" stroke-width="6" stroke-miterlimit="10" d="M446.6,396"/>
					</g>
				</g>
			</g>
		</g>
	</g>
	<path fill="none" stroke="#015468" stroke-width="7" stroke-linecap="round" stroke-miterlimit="10" d="M402.4,37.4
		c0,0,57.5,0.9,71-3.8s17.8-6.1,17.8-6.1"/>
	<circle fill="#A7A9AC" cx="432.4" cy="35.7" r="11.1"/>
	<circle fill="#A7A9AC" cx="404.8" cy="82.4" r="11.1"/>
	<circle fill="#A7A9AC" cx="392.7" cy="122.9" r="11.1"/>
	<circle fill="#A7A9AC" cx="446.6" cy="119.2" r="11.1"/>
	<path fill="none" stroke="#015468" stroke-width="6" stroke-linecap="round" stroke-miterlimit="10" d="M413.3,284.8
		c10.2-0.7,273.1-8,279.3-7.3c6.1,0.5,53,7.3,53,7.3"/>
	<circle fill="#A7A9AC" cx="450.9" cy="282.4" r="11.1"/>
	<path fill="none" stroke="#015468" stroke-width="7" stroke-linecap="round" stroke-miterlimit="10" d="M462,396
		c13.2-0.5,200-6.2,210.2-4.8c10,1.4,38.6,6.6,55.6,4.8"/>
	<circle fill="#A7A9AC" cx="457.7" cy="396" r="11.1"/>
	<circle fill="#A7A9AC" cx="461.3" cy="504.1" r="11.1"/>
	<g>
		<text transform="matrix(1 0 0 1 268.0795 97.1549)" fill="#8C8E90" font-family="'MyriadPro-Regular'" font-size="18.4442">Sunset Harbour</text>
	</g>
	<text transform="matrix(1 0 0 1 478.7796 274.7213)" fill="#808285" font-family="'MyriadPro-Regular'" font-size="18.4442">14th St</text>
	<text transform="matrix(1 0 0 1 410.1596 59.9909)" fill="#8C8E90" font-family="'MyriadPro-Regular'" font-size="18.4442">20th St</text>
	<text transform="matrix(1 0 0 1 413.3088 97.1549)" fill="#8C8E90" font-family="'MyriadPro-Regular'" font-size="18.4442">18th St</text>
	<text transform="matrix(1 0 0 1 508.8138 116.6961)" fill="#8C8E90" font-family="'MyriadPro-Regular'" font-size="18.4442">17th St</text>
	
		<text transform="matrix(0.1388 -0.9903 0.9903 0.1388 754.1104 165.5774)" fill="#8C8E90" font-family="'MyriadPro-Regular'" font-size="18.4434">Collins Ave</text>
	
		<text transform="matrix(-5.783651e-02 -0.9983 0.9983 -5.783651e-02 714.2347 208.1131)" fill="#808285" font-family="'MyriadPro-Regular'" font-size="18.4434">Washington Ave</text>
	
		<text transform="matrix(-2.708172e-02 -0.9996 0.9996 -2.708172e-02 499.0067 235.2003)" fill="#808285" font-family="'MyriadPro-Regular'" font-size="18.4424">Alton Rd</text>
	<text transform="matrix(1 0 0 1 483.0191 387.9498)" fill="#808285" font-family="'MyriadPro-Regular'" font-size="18.4442">10th St</text>
	<text transform="matrix(1 0 0 1 490.8686 506.4624)" fill="#808285" font-family="'MyriadPro-Regular'" font-size="18.4442">6th St</text>
	<g>
		
			<text transform="matrix(0.9989 -4.670095e-02 4.670095e-02 0.9989 251.3199 156.5506)" fill="#8C8E90" font-family="'MyriadPro-Regular'" font-size="18.4442">Venetian Causeway</text>
	</g>
</g>
</svg>
