<?xml version="1.0" encoding="utf-8"?>
<!-- Generator: Adobe Illustrator 18.1.1, SVG Export Plug-In . SVG Version: 6.00 Build 0)  -->
<!DOCTYPE svg PUBLIC "-//W3C//DTD SVG 1.1//EN" "http://www.w3.org/Graphics/SVG/1.1/DTD/svg11.dtd">
<svg version="1.1" id="Layer_1" xmlns="http://www.w3.org/2000/svg" xmlns:xlink="http://www.w3.org/1999/xlink" x="0px" y="0px"
	 viewBox="0 0 960 560" enable-background="new 0 0 960 560" xml:space="preserve">
<g id="Layer_7">
	<g>
		<g>
			<g>
				<g>
					<defs>
						<rect id="SVGID_1_" x="-3.1" y="0" width="970.1" height="1299.2"/>
					</defs>
					<clipPath id="SVGID_2_">
						<use xlink:href="#SVGID_1_"  overflow="visible"/>
					</clipPath>
					<g clip-path="url(#SVGID_2_)">
						<path fill="#FFCB45" d="M835.5-1858.7l14.6-2.8l26.7-0.5l24.9-13l55.3-2.8l25.6,12.1h5.1l4.9,18.1l-2.6,5.3l10.2,57.2
							c0,0,7,112.7,8.8,119.4c-1.4,7.9-5.8,24.9-5.8,28.3c0,3.7,7.9,67.2,8.4,69c0.5,2.1-5.3,37.4-5.3,37.4s4,25.1,4,28.1
							s-0.9,43-0.5,46c0.7,3,3.7,16.7,3.7,16.7s-7,80.4-7,87.8s1.4,36.9,0.9,40.2c-0.5,3-3.7,23.9-3,32.3c0.7,8.1,4.4,17.7,4.4,23.7
							c0,6.3-0.5,102.5-0.9,106.4c-0.7,4.2,0.9,21.6,3,30.2c1.9,8.6,6.3,35.8,5.8,42.3s-5.8,53.7-7.4,55.8c-1.4,2.1,1.9,7.7,1.9,7.7
							s-2.1,12.3-2.6,15.8s2.1,86,1.4,89s-5.8,30.9-5.8,33.9s3,69.5,0.5,79.5c-2.6,10-3.3,23.9-3.3,28.8c0,4.9,1.4,65.3,2.6,70.2
							c-0.9,5.3-10.9,41.1-11.4,45.3s2.6,52.7,4.9,60.9c-4,7.9-4.4,23.5-4,31.1c0.5,7.9-3.7,50-3,55.3s2.6,13,1.9,28.3
							s-1.9,44.1-1.9,44.1s-6.3,22.3-7,37.9c-2.6,13-3,31.1-3.7,36S974-331,973.5-328s0.7,15.1-0.9,20s-5.1,14.9-4.4,27.2
							c-0.9,12.8-4.9,91.1-5.1,106c-0.5,14.9-5.1,28.8-6.5,38.3s-0.5,22.1-1.9,26c-1.4,4.2-4,10.9-4,13.7s-3.7,40.9-5.8,45.5
							s-3.3,15.3-3.7,21.1c-0.5,5.8-3.7,23.5-4,35.1c-0.5,11.6-4,77.1-4.9,84.3c-0.7,7.2-4.9,30.9-4.9,34.6s-0.9,53.7-1.4,63.2
							s-2.1,23-1.9,27.4c0.5,4.4-3.3,23.7-4.9,28.8c-1.4,5.1-5.3,10-7.9,11.6c-2.6,1.9-5.1,21.6-6.5,24.4s-6.5,13.7-9.5,14.9
							c-3,0.9-5.3,2.8-6.5,5.1c-1.2,2.3-4.9,12.8-6.5,14.9c-1.9,2.1-2.6,0.5-3.7,4.9c-0.9,4.4-15.1,36.9-16,40.9
							c-0.9,3.7-4,17.2-6.3,20.2c-2.1,3-4.4,19.5-7,25.3s-2.6,7.2-2.6,7.2l-15.1,29.7c0,0,0,12.1-2.3,16.3
							c-2.6,4.2-5.1,12.8-5.3,20.7c-1.4,6.3-3.7,28.8-7,34.6c-3.3,5.8-5.1,16.3-5.1,20.9c0,4.6,0.5,49,0,51.4
							c-0.5,2.3-7.9,41.8-9.8,46.9s-20.2,49.5-22.1,56s-17.2,82-17.2,82s-13.7,66.7-13.7,73.4s0.7,20.9-2.1,29.7
							C744,883,730.3,982,730.3,982s-11.9,74.4-10.9,81.8s1.4,24.4,0,29.3s-9.3,28.3-10.2,37.4s-0.7,17.7-3.3,23.9
							c-2.6,6.5-2.6,22.1-7.7,32.1c-5.1,10-16.7,44.1-17.2,48.1s-20.9,92.7-22.1,97.6c-0.9,4.9-5.1,18.6-5.8,24.4s-4,20.7-5.1,23.5
							c-0.9,2.8-4,9.1-4.4,16.5c-0.5,7.7-1.4,50.9-3.7,58.1c0,7.9,5.1,103.6,5.1,107.8c0,4.2,0.7,25.8,0.9,27.2
							c0.2,1.4,9.5,14.9,12.3,16.5s127.3,55.8,127.3,55.8l30.9,13.5l-2.1,5.1L679.5,1623l-2.6,3l-37.4-17.7v-3.7l-186.6-79.9
							l-6.3-10.7l8.8-5.1l-3.7-3.7l-7.4,3.7c0,0-71.6-103.2-75.5-109.7c-3.7-6.5-67.6-102.7-71.6-116.4c-4-13.7-17.2-46.9-18.1-59.5
							c-0.9-12.3-14.6-61.8-15.3-69s-3.3-50-3.3-50l2.6,0.5c0,0-4.9-65.8-6.5-75.8c-1.9-10-9.3-50.2-9.3-50.2l-3,0.5l-1.4-6.5l3-0.5
							c0,0-7-24.9-30-48.8c-23-23.9-33.2-54.1-33.9-59c-0.7-4.9-3-17.9,3-25.1c5.8-7.2,20.4-26,23.5-43.7c3-17.7,2.1-39.3,2.1-39.3
							l0.5-20.2c0,0,18.1-12.8,22.1-13.9c3.7-1.4,24.9-12.3,28.1-14.9c3.3-2.3,8.4-6.3,8.4-6.3l1.9,2.3l1.9-1.4l-2.1-2.8l34.9-19.5
							l-0.9-3.3l-18.6,11.4c0,0-61.8,35.1-65.5,35.8s-18.1,4.2-18.1,2.3c-0.5-1.9,0-10.9,0.5-13.5c0.5-2.3-3-1.9-2.6-4.2
							c0.5-2.3-0.5-7.9,0.9-10.2s-1.4-16.3-1.4-22.5c0-6.5,0.7-17.2-0.7-29.3c-1.4-12.1-3.3-69.7-2.1-71.1s99-2.3,100.6-3.5
							c1.9-0.9-3.3-10.2-3.3-10.2s-87.6,3.3-92,3.3s-10.9-2.3-12.3-3.7s-25.3-26.5-25.3-31.6s0.9-15.1,7-19.3
							c5.8-4.2,67.2-4.4,67.2-4.4l-10.7-8.6c0,0-75.8,3-79,2.3c-3.3-0.7-12.3-9.3-13.2-13.7c-0.7-4.4-5.8-12.8-7.4-13.7
							c-1.4-0.9-0.7-14.4,1.9-17.2c2.6-2.8,3.3-6.3,3.3-6.3s7.7-2.8,17.2-3.5s148.5-3.7,152-3s13.7,4.2,16.5,13.5
							c3,9.3,0,30.2-4.4,34.6s-11.9,7.7-11.9,7.7l-64.3,0.1c0,0,5.3,6.5,7.4,6.7c1.9,0.5,53-2.1,56.5-1.4
							c3.3,0.7,14.2,8.6,15.3,15.8c0.9,7.2-0.5,24.4-2.6,28.1c-2.1,3.7-14.6,12.8-14.6,12.8l5.3,9.3c0,0,10.9-6.7,12.1-9.3
							c0.9-2.3,5.1-13,6.3-19.3c0.9-6.3-0.9-36.9,0.5-38.3c1.4-1.6,20.2-2.1,25.3-4.9s8.8-5.3,7.9-20.7
							c-0.9-15.3-3.7-152.9-3.7-152.9s-6.3-10.9-10.2-11.4c-4-0.5-17.7-4.9-18.1-11.4c-0.7-6.5,0-16.7,0-16.7l-15.1,1.4
							c0,0,1.4,22.3,0.5,26s-9.5,13.9-14.6,15.8s-96.2,4.9-96.2,4.9l0.5,20.7c0,0,85.7-2.3,93.2,0c7.7,2.3,17.7,7.2,19.1,18.1
							c1.4,10.9,1.4,42.3,0.7,45.5c-0.7,3-4.9,11.4-10.9,12.8s-141,8.1-173.6,5.3c-12.8-4.4-16-10.9-16-29.3c0-18.1,0-26.5,0-28.1
							s1.4-4.2,2.1-6.7c0.7-2.6,0-9.3,12.1-13.7c4.9-1.9,66.7-2.3,66.7-2.3l-0.7-21.1c0,0-36.9,1.4-41.4,0c-4.4-1.4-16-6.5-16-9.1
							s2.1-4.4,2.1-4.4s-3.3-5.8-0.9-10.7c2.3-4.9,9.8-20.9,12.3-23c2.6-2.1,27.9-31.1,73-35.3s83,11.6,86.2,19.5
							c0,4.4,2.1,10.2,2.1,10.2h14.2c0,0-0.9-15.1,0.5-16.7c1.4-1.9,27.9-31.1,27.9-31.1l60.2-62.5c0,0,15.1-15.1,16-17.9
							s2.6-13,0.5-14.4s-172.9-5.3-176.8-4.9c-4,0.7-53.9-0.5-56.5,0.5c-2.6,0.7-7.4-0.7-11.6-0.7c-4.4,0-8.8,0.5-13.7,0.7
							c-4.9,0.5-7.9-1.4-14.6-1.9c-6.5,0-19.1-0.7-19.1-0.7s-4-0.5-3.7-6.7c0.5-6.5-1.9-12.8,4.9-13.5c6.5-0.7,10.2,0,10.2,0
							s5.3-4.4,13.7-4.2c8.4,0.5,12.1-6.5,22.1-6.3c10,0.5,64.4-61.3,64.4-61.3s93.6-87.3,107.8-91.5c5.1-3.5,8.4-8.6,13.7-9.5
							c5.1-0.9,16-1.4,19.5-6.3s0.5-25.8,1.4-29.5s5.1-3,4.9-10.2c-0.5-7.2-3.7-5.3-0.7-13.9c2.8-8.6,7.7-13.9,12.3-15.1
							c4.9-0.9,13.2-6.7,16-11.4c2.8-4.6,0.9-9.3,9.8-14.4c8.8-5.1,7.9-15.8,4-20.7c-4-4.9-13.7-11.4-13.7-20.7s-5.1-39.7,0.5-45.1
							c5.3-5.1,23.5-22.3,24.2-25.3s0.5-9.3-2.1-13.5s-0.7-9.1,7.4-14.9c7.9-5.8,9.5-12.8,9.8-20.2c0.5-7.7,4.9-14.4,11.9-17.7
							c7-3,52-32.5,54.8-33.9s8.4-3.5,12.8,1.9c4.4,5.1,15.3,15.3,15.3,15.3l8.8-6.7c0,0-22.3-22.3-23-26.7
							c-0.7-4.4-2.1-15.3-0.7-21.1c1.4-5.8,8.4-21.1,10.2-23.7c1.9-2.3,10.9-16.3,12.1-17.9c0.9-1.9,17.7-10.2,22.3-13.5
							c4.9-3,27.9-20,33-29.7c5.1-9.5,25.3-40.9,27-54.6c1.6-13.7,1.9-15.3,1.9-15.3v-3.5l2.1-0.5c0,0-1.9-6.7-0.5-9.1
							c1.4-2.1-0.9-2.1-0.9-2.1l-0.5-2.8l1.9-0.5c0,0,0-10-0.5-13.5s-3.7-10.7-3.3-13c0.5-2.3-1.4-12.8-3.7-13.9
							c-2.1-1.4,1.4-8.1-6.3-20.9s-55.3-77.4-60.6-85.5s-27-32.1-4-87.6c4.9-18.1,7.4-32.5-0.9-55.8c-8.4-23.2,30.4-28.8,43.9-38.8
							s64.8-44.6,83.4-72s33.7-50,38.3-51.4c-0.7-3-2.6-7.7-2.6-7.7s-80.9,16.5-84.6,16.5c-3.7,0-49.5,4.2-61.3-5.8
							c-12.1-10-16.7-24.9-15.8-41.1c0.9-16.5,24.6-43.2,45.5-57.4c20.9-13.9,36.7-18.8,66.2-20c29.7-0.9,31.4-4.4,46.5,0
							s24.2,13,32.5,20.7c8.4,7.7,13.7,25.8,14.2,33.5s6.5,41.8,6.3,43.7c-0.5,1.9-43.2,8.6-43.2,8.6l1.4,7.9c0,0,41.1-7.9,43.7-7.2
							c2.6,0.7,26.7,81.6,26.7,81.6s20.4-3,21.6-3.7s-13.7-81.8-13.7-81.8s-15.8-93.4-16.5-97.4c-0.7-3.7-0.9-20.7,16.7-26
							c18.1-5.3,30.4,10.7,31.4,20c0.9,9.3,29.7,177.3,29.7,177.3l26.7-3.7c0,0,5.3-19.5,5.1-38.8c-0.2-19.3-0.7-46.5-6.3-60.9
							c-5.6-14.4-12.3-77.4-13.7-83c-1.4-5.3-40.2-89.2-46.9-93.4c1.9-1.9,1.9-1.9,1.9-1.9s-12.3-14.4-13.7-18.6
							c-1.4-4.2-3.7-12.1-7.9-18.1c-4.4-6.3-12.8-20-12.8-20s-27.4,1.4-28.6,0.5c-0.9-0.9-18.1-25.8-18.1-25.8h-15.1
							c0,0,12.8,16.7,15.1,23c2.1,6.3,16.7,28.3,21.1,33.7c4.4,5.1,16,19.3,4.4,34.6c-11.9,15.3-29.3,11.6-52.7,13.5
							c-23.5,1.9-80.4,4.2-87.1,4.4c-6.5,0.5-50.2,15.8-58.3,20.7c-8.1,4.9-20.4,11.6-21.6,13.9c-1.2,2.3-3,3-6.3,5.1
							s-24.9,22.1-36.9,27.9c-12.1,5.8-37.6,23-69.2,32.1c-31.6,9.1-82.7,12.8-99.5,11.4c-16.7-1.4-70.6-18.1-79.9-23.7
							c-9.3-5.6-64.8-42.8-76-60.6c-11.2-17.9-34.4-72.3-36-100.4c-1.6-27.9,16-91.3,33.7-120.6c17.7-29.5,73.9-70.2,107.6-78.5
							c33.7-8.4,57.2-13.7,70.6-13.7c13.5,0,200.8-3.7,210.3-3s43.5,23.9,43.5,23.9s32.8,44.4,38.6,52.7s26.5,44.8,30.4,44.8
							c4,0,7.2,4.6,11.2,9.8c4,5.1,6.5,12.8,10.5,14.4s20,24.9,20,24.9l16-0.7c0,0-16-18.1-16-20.4c0-2.1,59.5-4.6,59.5-4.6
							s1.6-15.8-0.7-18.8s-7-13.5-8.6-15.1c-1.6-1.9-5.1-5.1-6.7-5.1s-4.4,1.4-4.4,1.4s-0.9,3.7,0.9,5.8c1.9,2.1,4,6.5,6.5,7.9
							c2.6,1.2,9.5,6.5,10.2,9.5s1.6,7-0.7,7.9c-2.1,0.7-48.8,3.3-52.3,3c-3.5-0.2-8.4-2.3-12.1-8.4c-3.7-6.3-37.9-53.7-38.3-55.1
							c-0.5-1.4-1.9-23.5-1.6-25.1c0.5-1.9,15.8-16.7,20.9-17.4s34.2-3,36.9-2.3c2.8,0.7,8.4,3.5,8.4,5.8s-2.1,28.1-3.7,30.9
							c-1.6,3,0.9,4.4,2.1,7.2c1.2,2.8,19.3,14.2,19.8,18.4c0.7,4,3.7,4.6,6.3,3.7c2.6-0.9,3.7-6.5,1.9-10.2
							c-1.9-3.5-12.3-4-14.9-5.8c-2.3-1.9-9.5-6.5-9.5-11.4c0-4.6,0.5-2.6,2.8-9.1s4-29.3,2.1-32.5s-2.1-4.6-10.7-4.6
							c-8.4,0-33.7,1.4-36.2,0c-2.8-1.4-3.5-32.5-3.3-34.4c0.5-1.9-7.9-1.9-7.9-0.2c0,1.4,1.6,32.1,0,35.6s-13,14.2-15.6,14.9
							c-2.6,0.7-5.6-2.3-5.1-6.5c0.5-4.4,1.2-44.1,1.2-44.1l-4.6-0.2c0,0,1.2,23-0.7,23.7s-11.4-1.2-17-8.1
							c-5.6-7-24.2-23.5-30.4-26.7c-6.3-3.3-31.4-16-36.9-18.1c-5.6-2.1-23.2-6.3-27-6.5c-3.7-0.7-15.6-4.6-30-4.6s-111.5,3-111.5,3
							s-131.3,3.5-135.2,3.5s-4.4-2.3-7.4-2.3c-3.3,0-0.5,3.5-3.3,3.3s-12.8-0.7-17.4-4c-4.6-3.5-15.1-12.5-16.7-18.6
							c-1.6-6.3-2.8-20.4,0-24.2c2.8-3.7,10-18.1,22.1-20.4s266.1-7.9,269.3-8.1c3.3-0.5,24.2-3.5,26.7-4.4
							c2.3-0.7,52.3-17.4,66.9-32.5s30.9-30.9,32.8-33c2.1-2.1,5.1-3,8.4-1.9c3.3,1.2,6.3,1.9,7.4-0.7c1.2-2.3-1.6-29.5-9.5-33.9
							c-7.9-4.6-9.1-7.2-36.9-5.8c-27.9,1.4-226.6,3.3-229.1,2.3c-2.3-0.7-7.4-4.4-7.2-8.8c0.5-4.4-0.7-13.9,3.7-16.7
							c4.4-3,5.1-5.8,10.2-5.1c5.1,0.7,232.6-7.7,236.5-8.1c4-0.7,36.7-30.9,39-31.1c2.3-0.5,119.2-8.8,121.8-4
							c2.3,4.6,4.4,29.3,4.4,29.3l16.7-0.2"/>
						<path fill="#3FB2CB" d="M818.6-952l21.6-3.7c0,0,4.9,21.8,5.6,26.5c0.7,4.6,14.4,41.4,18.4,43.7s17.7,5.1,20-4.6
							c2.3-9.8,7.9-22.5,8.8-29.5c0.7-6.7-4.9-44.4-4.9-44.4l26.5-3.7c0,0,0,44.4,0,57.2s-2.3,46.7-4.9,54.1
							c-2.3,7.7,3.3,15.8,4.9,27.9c1.6,12.1-1.6,77.4,0,87.4c1.6,9.8,6.5,16.7,4.9,26.5s3.3,39,4,48.3c0.7,9.1-8.8,40.7-11.2,48.8
							c-2.3,8.1-14.4,100.1-14.4,114.3c0,14.2,11.2,82.7,10.5,100.8s-25.6,138-25.6,146.9c0,8.8-2.3,51.8-4.9,67.6
							c-2.3,15.8-15.1,82.7-16.7,90.9c-1.6,8.4-7.9,49-8.8,63.2s-8.8,62.5-15.1,75.3c-6.5,12.8-10.5,46.7-9.5,55.8
							c0.7,9.1,0.7,34.6-0.7,40.7c-1.6,6,5.6,26.5,4.9,38.3c-0.7,12.1-18.4,41.4-28.8,50.4c-10.5,9.1-29.7,42.8-29.7,46.7
							c0,3.7-0.7,3.7-4.9,10.7c-4,6.7-10.5,33-10.5,37.6s-1.6,43.7,0,48.3s16,6.7,16.7,12.1c0.7,5.3,1.6,28.6-2.3,37.6
							s-12.5,18.1-15.1,20.2c-4.2,0-4.9-1.4-7.7,1.4c-2.6,2.8-7.2,6-7.2,6s1.6,6.7,0,9.5s-4.2,14.2-6.7,14.6
							c-2.6,0.5-5.1-1.4-4.2-10.2c0.9-8.8,1.2-8.8-0.2-10.2c-1.4-1.4-1.2-3.5,0-6.3s5.3,0.5,10-6.3c4.6-6.7,9.1-17,10.2-29
							c1.2-12.1,1.2-80.4,1.9-86c0.7-5.6,5.6-36.9,11.6-47.9c6-10.9,33.9-70.4,36.7-75.1c2.6-4.6,7.2-17.4,8.6-33
							c1.6-15.6-1.6-55.3-0.7-61.6c0.9-6.3,0-16,0-20.2s4.6-52,6.7-58.8s9.1-48.8,9.1-54.6s-0.5-10-0.5-10l2.1-1.9
							c0,0,6.7-49.3,8.6-53.9s10.9-33,11.6-39c0.7-6-5.6-26.7-5.6-31.6c0-4.9-5.6-86.9-5.1-92.5c0.7-5.6,25.1-78.8,32.1-91.1
							c3-5.3,1.2-33,1.2-35.3s-3.5-7.4-3.5-10c0-2.3-4.2-43.2-5.6-50.7c-1.4-7.4-2.6-80.4-2.6-87.4s1.2-48.6,1.9-52.7
							c0.7-4.2,9.8-36.9,11.6-40.4c1.9-3.7,9.8-13.5,9.8-17.4c0-4-1.2-9.3,0-12.8c1.2-3.7-5.1-33.5-5.1-39.7
							c0-6.5-0.7-17.7,0.5-19.8s4.2-7,4.2-11.6s-5.1-13.5-5.1-19.5s-0.7-60.6-0.7-62s-34.4-90.2-39.7-99.7
							C830.4-917.9,818.6-952,818.6-952z"/>
						
							<line fill="none" stroke="#FFFFFF" stroke-width="3" stroke-linecap="round" stroke-linejoin="round" stroke-miterlimit="10" x1="595" y1="508.2" x2="604.8" y2="731.7"/>
						<path fill="none" stroke="#FCBB31" stroke-width="9" stroke-miterlimit="10" d="M875.7,33.9c-10.9,0-67.4-15.1-82.7-16.7
							c-15.3-1.6-89-7-119.7-7s-99.9-2.6-118.7,0s-220.5,98.1-272.6,105c-52,7-174.5,4.6-188,4.6s-559.5-4.6-559.5-4.6"/>
						
							<path fill="none" stroke="#FFFFFF" stroke-width="5" stroke-linecap="round" stroke-linejoin="round" stroke-miterlimit="10" d="
							M437-45.3c1.2,17.7-3.7,26.7,14.2,45.5s37.6,27.7,35.3,56.5S470.2,174,461.9,189.4s-54.1,43-57.9,87.4
							c5.8,48.6,10.7,203.6,7,220c-3.7,16.5-93.2,105.3-96.7,123.4c-3.7,18.1,16.5,640.9,17.7,651.8s114.3,174.7,115.5,184.7
							s3.7,17.7,8.1,18.8c4.9,1.2,139-5.6,139-5.6"/>
						
							<path fill="none" stroke="#FFFFFF" stroke-width="4" stroke-linecap="round" stroke-linejoin="round" stroke-miterlimit="10" d="
							M766.5-952c4.2,8.6,42.3,100.4,47.6,138.3s15.3,127.6,0,186.4c-15.3,59-11.6,145.5-9.3,155.2c2.3,9.3,12.1,28.8,12.1,28.8
							c2.6,10.7,11.2,69.5,5.1,91.8c-6,22.3-38.8,82.5-32.5,113.2s14.6,48.3,13.9,55.8S773.7,17.9,767,29.2
							c-6.7,11.2-11.4,19.8-14.2,37.9s-25.6,223.3-26.7,228.2c-0.9,4.9-6.3,20.2-22.8,29.7s-17.6,21.9-19.3,33.7
							c-1.9,11.9-13.7,90.2-18.8,98.8c-5.1,8.6-5.1,12.3-14.2,17.7c-9.1,5.3-423.8,241.7-427.3,243.3s-26.3,6.5-38.1,7
							c-12.1,0.5-392.5,18.6-400.6,18.8s-237.5,11.4-244.9,13.2"/>
						
							<path fill="none" stroke="#FFFFFF" stroke-width="3" stroke-linecap="round" stroke-linejoin="round" stroke-miterlimit="10" d="
							M482.8,1420l-17.9-545.8c0,0-10.2-275.4-10.5-283.5c-0.5-16.3,63.4-140.6,63.4-140.6s7.4-110.4,10.9-112.9s5.6-5.1,10.9-4.4
							c5.6,0.7,25.3,3.5,25.3,3.5l160.6-40.7"/>
						
							<path fill="none" stroke="#FFFFFF" stroke-width="3" stroke-linecap="round" stroke-linejoin="round" stroke-miterlimit="10" d="
							M512.5,703.1c-0.9-22.5-3.7-138.7-3.7-138.7s-1.9-13.7,13-41.6c14.9-27.9,31.4-64.4,31.4-64.4l12.3-122.5"/>
						
							<path fill="none" stroke="#FFFFFF" stroke-width="3" stroke-linecap="round" stroke-linejoin="round" stroke-miterlimit="10" d="
							M563.2,357.8c9.3-8.6,23.5-26,27-37.4c3.7-11.2,28.3-105,30.4-113.9c1.9-8.6,20.4-164,21.1-171.3c0.9-7,6.5-25.6,6.5-25.6"/>
						
							<path fill="none" stroke="#FFFFFF" stroke-width="3" stroke-linecap="round" stroke-linejoin="round" stroke-miterlimit="10" d="
							M576.7,560.4c0,0,23-0.7,24.4,0s125,46,125,46"/>
						
							<line fill="none" stroke="#FFFFFF" stroke-width="3" stroke-linecap="round" stroke-linejoin="round" stroke-miterlimit="10" x1="705.9" y1="461.7" x2="683.6" y2="523"/>
						
							<path fill="none" stroke="#FFFFFF" stroke-width="3" stroke-linecap="round" stroke-linejoin="round" stroke-miterlimit="10" d="
							M612.5,610.4c0,0,51.8-119.7,51.8-123.6s-7.7-15.8-7.7-15.8"/>
						
							<line fill="none" stroke="#FFFFFF" stroke-width="3" stroke-linecap="round" stroke-linejoin="round" stroke-miterlimit="10" x1="664.3" y1="486.8" x2="745.1" y2="513.7"/>
						
							<path fill="none" stroke="#FFFFFF" stroke-width="3" stroke-linecap="round" stroke-linejoin="round" stroke-miterlimit="10" d="
							M594.8,523c0,0,33.9-20.4,37.2-19.8c3.7,0.7,117.8,37.4,119.2,40.9c1.4,3.3-14.9,39.5-14.9,39.5L596,535"/>
						
							<line fill="none" stroke="#FFFFFF" stroke-width="3" stroke-linecap="round" stroke-linejoin="round" stroke-miterlimit="10" x1="668.9" y1="560" x2="646.8" y2="610.4"/>
						
							<path fill="none" stroke="#FFFFFF" stroke-width="3" stroke-linecap="round" stroke-linejoin="round" stroke-miterlimit="10" d="
							M397.1,619.9c0,0-10.9-4.9-13-9.3c-2.1-4.6-26-42.8-29.7-46c-3.7-3.3-16-13.2-16-13.2"/>
						
							<path fill="none" stroke="#FFFFFF" stroke-width="3" stroke-linecap="round" stroke-linejoin="round" stroke-miterlimit="10" d="
							M314.1,614.1c-2.1-4.2-3.3-21.6-4.6-28.6c-1.4-7-13.5-32.3-18.1-37.9c-4.6-5.6-67.2-57.2-70.9-63
							c-3.7-5.6-10.9-12.1-12.3-21.4"/>
						
							<path fill="none" stroke="#FFFFFF" stroke-width="3" stroke-linecap="round" stroke-linejoin="round" stroke-miterlimit="10" d="
							M309,584.1c0,0,20.4-15.1,22.5-19.1s3.3-14.4,9.3-22.3c6-7.9,33.7-37.2,35.6-43.5c2.1-6.3,3.5-13.2,3.5-22.8
							c0-9.3-2.6-148.2-3.5-154.5c-0.7-6.4-17.5-31-17.7-45c0-13.9,3.5-26.7,17.7-43c14.2-16.5,54.6-58.8,62-60.2
							c7.4-1.2,31.1,2.6,45.3,3.3s70.2-8.1,81.8-21.6c11.4-13.2,30.4-41.8,36.9-62.7c6.7-20.9,8.8-60.9,8.8-79.9s0-41.8,25.1-86.9
							c7.9-16.5,8.8-26.7,18.8-26.7s132.4,21.4,132.4,21.4"/>
						<line fill="none" stroke="#FFFFFF" stroke-width="2" stroke-miterlimit="10" x1="517.9" y1="449.8" x2="553" y2="458.4"/>
						<line fill="none" stroke="#FFFFFF" stroke-width="2" stroke-miterlimit="10" x1="750.2" y1="449.8" x2="779.1" y2="461.7"/>
						<line fill="none" stroke="#FFFFFF" stroke-width="2" stroke-miterlimit="10" x1="779.1" y1="411.3" x2="797.7" y2="419.4"/>
						
							<path fill="none" stroke="#FCBB31" stroke-width="6" stroke-linecap="round" stroke-linejoin="round" stroke-miterlimit="10" d="
							M-570.3,1089.3c0,0,540.7,244.4,566.7,254.9c26,10.2,60,13.5,78.3,11.9s191.5-76,209.8-81.6c18.6-5.6,48.3,0.7,64.1,0
							c15.6-0.7,217.5-5.6,223.3-7.2s40.4-202.6,45.5-220s62.5-411.3,64.8-432s39.7-90.9,52.3-132.9c12.5-41.8,29.5-43.5,36.9-53.9
							c7.7-10.5,8.4-42.8,5.8-53.7"/>
						<line fill="none" stroke="#FFFFFF" stroke-width="2" stroke-miterlimit="10" x1="781.2" y1="373.6" x2="807.6" y2="385.5"/>
						<line fill="none" stroke="#FFFFFF" stroke-width="2" stroke-miterlimit="10" x1="764.7" y1="321.8" x2="824.1" y2="342.5"/>
						<line fill="none" stroke="#FFFFFF" stroke-width="2" stroke-miterlimit="10" x1="767.7" y1="299.5" x2="805.3" y2="312.5"/>
						<path fill="none" stroke="#FFFFFF" stroke-width="2" stroke-miterlimit="10" d="M776.5,278.6c0,0,40.2,13.7,43,16.7
							s10.2,8.8,13.2,6.7c3-2.1,3.5-7.2,0-9.3c-3.5-1.9-14.2-4-14.2-4"/>
						<line fill="none" stroke="#FFFFFF" stroke-width="2" stroke-miterlimit="10" x1="792.5" y1="250.2" x2="854.1" y2="273.5"/>
						<line fill="none" stroke="#FFFFFF" stroke-width="2" stroke-miterlimit="10" x1="805.3" y1="232.3" x2="866" y2="253.2"/>
						<line fill="none" stroke="#FFFFFF" stroke-width="2" stroke-miterlimit="10" x1="818.3" y1="212.8" x2="874.6" y2="233.3"/>
						<path fill="none" stroke="#FFFFFF" stroke-width="2" stroke-miterlimit="10" d="M829.7,194c0,0,41.1,11.9,46.9,13.2"/>
						<path fill="none" stroke="#FFFFFF" stroke-width="2" stroke-miterlimit="10" d="M835.5,183.5c0,0,42.8,3.3,47.2,4.9"/>
						<line fill="none" stroke="#FFFFFF" stroke-width="2" stroke-miterlimit="10" x1="835.5" y1="162.9" x2="885.5" y2="168.7"/>
						<line fill="none" stroke="#FFFFFF" stroke-width="2" stroke-miterlimit="10" x1="832.7" y1="139.4" x2="889.9" y2="146.1"/>
						<line fill="none" stroke="#FFFFFF" stroke-width="2" stroke-miterlimit="10" x1="834.6" y1="117.1" x2="893.4" y2="124.5"/>
						<line fill="none" stroke="#FFFFFF" stroke-width="2" stroke-miterlimit="10" x1="832.7" y1="95.2" x2="893.4" y2="102.4"/>
						<line fill="none" stroke="#FFFFFF" stroke-width="2" stroke-miterlimit="10" x1="836.7" y1="72.9" x2="897.1" y2="79.7"/>
						<line fill="none" stroke="#FFFFFF" stroke-width="2" stroke-miterlimit="10" x1="843.2" y1="51.3" x2="897.1" y2="58.5"/>
						<line fill="none" stroke="#FFFFFF" stroke-width="2" stroke-miterlimit="10" x1="878.7" y1="34.4" x2="904.3" y2="35.8"/>
						<line fill="none" stroke="#FFFFFF" stroke-width="2" stroke-miterlimit="10" x1="861.3" y1="9" x2="912.2" y2="16.7"/>
						
							<path fill="none" stroke="#FFFFFF" stroke-width="3" stroke-linecap="round" stroke-linejoin="round" stroke-miterlimit="10" d="
							M678.4-213.6l116.2-3.3c0,0-19.5,18.8-23.7,24.4c-4.2,5.3-7.4,42.3-8.4,45.5c-0.7,3.3-24.2,151.5-24.2,151.5
							s-4.2,44.1-8.1,53.9c-4,9.8-16,22.3-19.5,28.1c-3.5,5.3-20.9,122.9-17.4,130.8c7.7,20.4,5.1,46.9,3.3,56.2
							c-1.6,9.3-9.3,51.1-5.6,62.5"/>
						
							<path fill="none" stroke="#FFFFFF" stroke-width="3" stroke-linecap="round" stroke-linejoin="round" stroke-miterlimit="10" d="
							M680.8-244.9c0,0-2.8,32.1-4.6,45.3c-1.9,13.2-22.5,100.8-23.7,114.6S646,9.6,646,9.6"/>
						
							<path fill="none" stroke="#FFFFFF" stroke-width="3" stroke-linecap="round" stroke-linejoin="round" stroke-miterlimit="10" d="
							M744.7-244.9c0,0-13.9,148.5-28.6,167.8c-14.4,19.3-20.7,24.2-23,41.1c-2.3,17-6.5,46.5-6.5,46.5s-24.9,155.6-25.8,175.6
							s-0.9,66.5-2.8,72.5c-1.9,6-2.1,12.3-2.1,12.3"/>
						
							<line fill="none" stroke="#FFFFFF" stroke-width="3" stroke-linecap="round" stroke-linejoin="round" stroke-miterlimit="10" x1="603.9" y1="270.7" x2="697" y2="270.7"/>
						
							<line fill="none" stroke="#FFFFFF" stroke-width="3" stroke-linecap="round" stroke-linejoin="round" stroke-miterlimit="10" x1="666.6" y1="270.7" x2="660.8" y2="312"/>
						
							<line fill="none" stroke="#FFFFFF" stroke-width="3" stroke-linecap="round" stroke-linejoin="round" stroke-miterlimit="10" x1="634.1" y1="270.7" x2="626.4" y2="320.6"/>
						
							<line fill="none" stroke="#FFFFFF" stroke-width="3" stroke-linecap="round" stroke-linejoin="round" stroke-miterlimit="10" x1="611.3" y1="242.8" x2="732.1" y2="245.1"/>
						
							<line fill="none" stroke="#FFFFFF" stroke-width="3" stroke-linecap="round" stroke-linejoin="round" stroke-miterlimit="10" x1="611.3" y1="207" x2="734.7" y2="222.8"/>
						
							<line fill="none" stroke="#FFFFFF" stroke-width="3" stroke-linecap="round" stroke-linejoin="round" stroke-miterlimit="10" x1="575" y1="142.9" x2="741.4" y2="162.9"/>
						
							<line fill="none" stroke="#FFFFFF" stroke-width="3" stroke-linecap="round" stroke-linejoin="round" stroke-miterlimit="10" x1="603.9" y1="88.3" x2="747.9" y2="107.3"/>
						<line fill="none" stroke="#FFFFFF" stroke-width="2" stroke-miterlimit="10" x1="594.8" y1="110.8" x2="587.8" y2="144.5"/>
						
							<path fill="none" stroke="#FFFFFF" stroke-width="3" stroke-linecap="round" stroke-linejoin="round" stroke-miterlimit="10" d="
							M610.8,33c0,0,134.1,9.8,146.2,16.3"/>
						<line fill="none" stroke="#FFFFFF" stroke-width="2" stroke-miterlimit="10" x1="758.6" y1="14.4" x2="754.7" y2="48.1"/>
						
							<path fill="none" stroke="#FFFFFF" stroke-width="3" stroke-linecap="round" stroke-linejoin="round" stroke-miterlimit="10" d="
							M767,33c0,0,17.2,19.5,18.1,37.9c0.9,18.1,0.9,35.6-2.8,46s0,30,5.3,39.5c5.3,9.3,5.8,15.1,2.1,20.4
							c-3.7,5.1-7.9,4.6-10.5,13.9c-2.3,9.3-23,55.3-22.8,65.8c0.2,10.7,4.2,26.7-4.4,33.9c-8.6,7-25.8,10-24.4,28.1
							c1.4,18.1,6.5,23,2.3,29.7s-6.5,6-12.3,3s-6.5-7.2-12.5-6.7c-6.5,0.5-19.3,2.8-19.3,2.8"/>
						<path fill="none" stroke="#FFFFFF" stroke-width="2" stroke-miterlimit="10" d="M726.1,353.2c0,0,6.5,1.6,6,17.4
							c-0.7,15.8-2.1,37.4-6,40.7c-4,3.3-13.7,8.8-16.7,38.6"/>
						<path fill="none" stroke="#FFFFFF" stroke-width="2" stroke-miterlimit="10" d="M727.5,409.2c0,0,6-0.7,7,2.1
							c0.9,2.8-3,13.7-8.6,18.8c-5.6,5.1-9.5,8.4-16.7,8.4s-37.6-6.5-37.6-6.5"/>
						<line fill="none" stroke="#FFFFFF" stroke-width="2" stroke-miterlimit="10" x1="675.9" y1="419.4" x2="713.8" y2="423.8"/>
						<line fill="none" stroke="#FFFFFF" stroke-width="2" stroke-miterlimit="10" x1="705.2" y1="344.8" x2="694.7" y2="421.7"/>
						<line fill="none" stroke="#FFFFFF" stroke-width="2" stroke-miterlimit="10" x1="678.9" y1="390.6" x2="730.3" y2="397.1"/>
						
							<path fill="none" stroke="#FFFFFF" stroke-width="3" stroke-linecap="round" stroke-linejoin="round" stroke-miterlimit="10" d="
							M404.7,282.1l-117.1,2.1c0,0-17.4-15.3-64.1-10.5c-46.9,5.1-59.3,33.9-59.3,36.2c0,2.1,30.9,2.1,38.1,2.1s78.5-1.9,82-2.1
							c3.7-0.5,2.1-23,2.1-23"/>
						<path fill="none" stroke="#FFFFFF" stroke-width="2" stroke-miterlimit="10" d="M395.9,256.7c-2.8,5.1-10.7,24.9,0,36.9
							c10.7,12.1,10.7,12.3,10.7,12.3"/>
						<line fill="none" stroke="#FFFFFF" stroke-width="2" stroke-miterlimit="10" x1="252.8" y1="273.2" x2="255.1" y2="310.9"/>
						<line fill="none" stroke="#FFFFFF" stroke-width="2" stroke-miterlimit="10" x1="226.7" y1="273.2" x2="226.7" y2="310.9"/>
						
							<line fill="none" stroke="#FFFFFF" stroke-width="3" stroke-linecap="round" stroke-linejoin="round" stroke-miterlimit="10" x1="196.3" y1="280.2" x2="198.4" y2="373.1"/>
						
							<path fill="none" stroke="#FFFFFF" stroke-width="3" stroke-linecap="round" stroke-linejoin="round" stroke-miterlimit="10" d="
							M136.3,375c0.7-3.7,152.4-4.2,152.4-4.2s0.9,34.4,0,38.1s-25.1,1.4-35.6,2.1c-10.7,0.7-109.9,4.6-113.6,3.3
							C135.2,412.9,133.8,390.1,136.3,375z"/>
						<line fill="none" stroke="#FFFFFF" stroke-width="2" stroke-miterlimit="10" x1="190" y1="370.8" x2="190" y2="413.6"/>
						<line fill="none" stroke="#FFFFFF" stroke-width="2" stroke-miterlimit="10" x1="204.2" y1="371.8" x2="206" y2="413.1"/>
						<line fill="none" stroke="#FFFFFF" stroke-width="2" stroke-miterlimit="10" x1="233.9" y1="371.3" x2="233.9" y2="412.2"/>
						<line fill="none" stroke="#FFFFFF" stroke-width="2" stroke-miterlimit="10" x1="261.6" y1="371.3" x2="261.6" y2="410.8"/>
						
							<path fill="none" stroke="#FFFFFF" stroke-width="3" stroke-linecap="round" stroke-linejoin="round" stroke-miterlimit="10" d="
							M217.4,481.2c-10.9,0.2-61.6,3.7-64.1,2.3c-2.6-1.4-7.9-12.3-5.1-15.3c2.3-3.3,3.5-2.8,8.1-2.8s130.8-7.2,132.4-3.7
							c1.4,3.7,5.8,12.5,0,15.1C283.2,478.9,217.4,481.2,217.4,481.2z"/>
						<line fill="none" stroke="#FFFFFF" stroke-width="2" stroke-miterlimit="10" x1="260.9" y1="461" x2="260.9" y2="479.3"/>
						<line fill="none" stroke="#FFFFFF" stroke-width="2" stroke-miterlimit="10" x1="182.3" y1="464.2" x2="182.3" y2="483.1"/>
						<line fill="none" stroke="#FFFFFF" stroke-width="2" stroke-miterlimit="10" x1="229.1" y1="461" x2="229.1" y2="480.7"/>
						
							<path fill="none" stroke="#FFFFFF" stroke-width="3" stroke-linecap="round" stroke-linejoin="round" stroke-miterlimit="10" d="
							M190,526.5c1.9-5.1,95.3-4,98.8-3.3c3.5,0.9,6.3,21.4,2.1,24.2c-4,2.8-29.3-0.9-40.2,0c-10.9,0.9-43.5,6.5-45.8,3.7
							C202.8,548.1,186.3,537.4,190,526.5z"/>
						<line fill="none" stroke="#FFFFFF" stroke-width="2" stroke-miterlimit="10" x1="221.9" y1="523" x2="222.3" y2="551.1"/>
						<line fill="none" stroke="#FFFFFF" stroke-width="2" stroke-miterlimit="10" x1="255.3" y1="516.3" x2="255.3" y2="547.4"/>
						<path fill="none" stroke="#FFFFFF" stroke-width="2" stroke-miterlimit="10" d="M279.7,537.2c0,0,0.7,9.5-3,10.5"/>
						
							<path fill="none" stroke="#FFFFFF" stroke-width="3" stroke-linecap="round" stroke-linejoin="round" stroke-miterlimit="10" d="
							M254.8,35.5c-2.3,13.9-1.4,51.1,4.2,59.7c5.8,8.6,17.4,8.6,34.6,3.7c17.4-5.1,71.3-15.8,77.8-23.9
							c6.8-8.1,11.9-14.1,10.3-26.5c-1.4-12.3-6.3-20.4-4.9-26.3c1.4-5.8,0-39.3-3-42.1"/>
						<path fill="none" stroke="#FFFFFF" stroke-width="2" stroke-miterlimit="10" d="M382.2,55c-4.9,4.4-33.7,13.9-42.5,15.6
							c-8.8,1.9,2.6,15.8,2.6,15.8"/>
						<line fill="none" stroke="#FFFFFF" stroke-width="2" stroke-miterlimit="10" x1="376.8" y1="25.3" x2="387.3" y2="25.3"/>
						
							<path fill="none" stroke="#FFFFFF" stroke-width="3" stroke-linecap="round" stroke-linejoin="round" stroke-miterlimit="10" d="
							M536.2-358.8c0,0,41.1,46.5,46.7,51.4c5.3,4.9,35.1,20.9,39.5,35.6c4.4,14.9,6.3,28.3,3.7,53s-11.6,74.4-20.4,94.1
							c-8.8,19.8-39.3,81.8-40,87.6s-9.3,28.8-9.5,33.2c-0.5,4.4-0.7,47.2-0.7,51.1s-7.9,30.7-9.8,41.1c-1.9,10.5-9.3,27-16.7,32.5
							c-7.7,5.1-14.6,7.9-23.9,7c-9.3-0.7-27-5.6-27-5.6"/>
						<path fill="none" stroke="#FFFFFF" stroke-width="2" stroke-miterlimit="10" d="M515.6,40.9c3-0.7,39.5,6,39.5,6"/>
						
							<path fill="none" stroke="#FFFFFF" stroke-width="3" stroke-linecap="round" stroke-linejoin="round" stroke-miterlimit="10" d="
							M509.8,29.9c3,6.7,5.3,7,5.8,13.9c0.5,7-15.1,99-15.1,99"/>
						<path fill="none" stroke="#FFFFFF" stroke-width="2" stroke-miterlimit="10" d="M479.1,88.3c7,0.7,55.8,5.1,63.2,9.5"/>
						<path fill="none" stroke="#FFFFFF" stroke-width="2" stroke-miterlimit="10" d="M485.8,62.5c7.9,0,56.7,3.7,63.4,7.9"/>
						<line fill="none" stroke="#FFFFFF" stroke-width="2" stroke-miterlimit="10" x1="520.9" y1="-10" x2="534.1" y2="17.4"/>
						
							<path fill="none" stroke="#FFFFFF" stroke-width="3" stroke-linecap="round" stroke-linejoin="round" stroke-miterlimit="10" d="
							M563.2-29.1c-2.3,0.7-68.8,28.3-68.8,28.3"/>
						
							<path fill="none" stroke="#FFFFFF" stroke-width="3" stroke-linecap="round" stroke-linejoin="round" stroke-miterlimit="10" d="
							M479.1,25.3c4-2.3,15.1-15.1,15.1-28.8c0.5-13.7-5.3-38.6-4.4-47.9c0.9-9.3,0.9-16.7,6.5-26.5c5.3-9.5,34.6-81.6,37.2-88.3
							c2.6-6.7,12.3-48.3,12.8-70.9c0.5-22.5,9.8-55.5,9.8-55.5"/>
						
							<path fill="none" stroke="#FFFFFF" stroke-width="3" stroke-linecap="round" stroke-linejoin="round" stroke-miterlimit="10" d="
							M506.3-244.9c-2.1,5.8-7.7,17.9-5.1,26.7c2.6,8.8,11.2,18.8,11.6,30.9c0.5,12.1,0.7,34.2-5.1,43S468.2-86.4,468-84.6
							c-0.5,1.9-5.6,53.7-3.7,55.8c1.9,2.1,26.3,26.7,30.2,28.3"/>
						
							<path fill="none" stroke="#FCBB31" stroke-width="6" stroke-linecap="round" stroke-linejoin="round" stroke-miterlimit="10" d="
							M813.9-1345.9c7.2,10.9,109.7,165.9,109.7,182.6s20.7,159.2,8.1,173.6c-12.3,14.6-5.8,108.3-1.2,132.7
							c4.6,24.4,25.8,174.7,16.5,201.2c-9.3,26.7-44.8,95-41.1,139.4c3.7,44.1,9.3,75.3,8.1,101.8c-1.2,26.7-25.8,161.5-25.8,173.6
							s-2.3,55.5-6.5,79.7c-4,24.2-18.1,163.8-26.5,184.7c-8.1,20.9-26.3,52.7-23.5,79c2.8,26.5-1.6,36.2-1.6,40
							c0,3.7,9.3,23.5,3.7,41.1c-5.3,17.7-26.7,45.5-32.8,50.9c-6.3,5.3-31.1,54.8-34.4,68.3s-5.1,59.3-3.7,63.9s11.6,8.6,15.1,8.6
							s32.5-78.3,36.5-82.3c4.2-3.7,37.4-71.3,39-87.4s35.1-248.4,35.6-252.3c0.5-3.7,1.2-13.2-7.4-13.9c-8.8-0.7-15.1,0-15.1,0"/>
						<path fill="none" stroke="#FCBB31" stroke-width="4" stroke-miterlimit="10" d="M249.5,120.3c18.1,3.5,126.9,7.9,141,7.2
							c14.2-0.7,36.9-4.4,40-20.2c3.3-15.8,1.6-21.6-13.9-44.8c-15.6-23.2-2.6-34.9,2.1-37.2c4.9-2.1,24.2-5.3,25.8,11.9
							s-5.1,17.7-5.1,17.7"/>
						<path fill="none" stroke="#FCBB31" stroke-width="4" stroke-miterlimit="10" d="M470.7,146.6c-0.9-13.5-4.6-22.5-8.8-26.3
							c-4.2-3.5-12.1-5.1-17-3.5s-36.7,15.8-40.2,14.4c-3.7-1.4-11.4-4-11.4-4"/>
						<path fill="none" stroke="#FCBB31" stroke-width="4" stroke-miterlimit="10" d="M418.9-25.4c0,0-14.6,19.8-17.4,29
							c-2.8,9.3-6,29.7-5.3,40.2c0.7,10.7,6,33.5,14.6,40s45.1,23.9,49.7,29.5c4.4,5.6,6.5,14.4,6.5,14.4"/>
						<path fill="none" stroke="#FCBB31" stroke-width="4" stroke-miterlimit="10" d="M474.4,127.8c-2.6-11.2-3.7-22.3-14.2-30
							c-10.7-7.7-38.3-27.2-38.3-27.2"/>
						
							<path fill="none" stroke="#FFFFFF" stroke-width="6" stroke-linecap="round" stroke-linejoin="round" stroke-miterlimit="10" d="
							M460.3,113.4c5.6-3.7,12.1-9.5,14.2-14.2c2.1-4.6,9.1-17,9.1-17"/>
						<path fill="none" stroke="#FCBB31" stroke-width="4" stroke-miterlimit="10" d="M382.2,40.9c0,0,5.6-4,8.6,0s2.6,10,0,16.3
							s-13.7,25.1-13.7,25.1"/>
						<path fill="none" stroke="#FCBB31" stroke-width="4" stroke-miterlimit="10" d="M414-10c0,0-9.3,21.8-9.3,29.5
							c0.2,7.7-1.2,17.4,0,24.4s9.3,18.6,9.3,18.6l2.6,2.1"/>
						
							<path fill="none" stroke="#FFFFFF" stroke-width="6" stroke-linecap="round" stroke-linejoin="round" stroke-miterlimit="10" d="
							M471.9,43.7c-9.3-2.1-20.9-6.5-23.7-10.7s-24-20.9-26.3-28.1c-2.3-7.4-3-17.7-3-17.7"/>
						
							<path fill="none" stroke="#FFFFFF" stroke-width="3" stroke-linecap="round" stroke-linejoin="round" stroke-miterlimit="10" d="
							M744.7,149.1c6,1.2,25.8,2.1,29,0c3.3-2.1,8.1-9.5,8.1-9.5"/>
						<path fill="none" stroke="#FFFFFF" stroke-width="2" stroke-miterlimit="10" d="M773.7,149.1c0,0,10.2-0.9,11.2,1.2"/>
						
							<path fill="none" stroke="#FFFFFF" stroke-width="3" stroke-linecap="round" stroke-linejoin="round" stroke-miterlimit="10" d="
							M739.6,178.7c7.9,0,34.9,0.5,39.7,12.3"/>
						<path fill="none" stroke="#FFFFFF" stroke-width="2" stroke-miterlimit="10" d="M773.7,183.8c9.3-0.2,13.9-4.6,13.9-4.6"/>
						<path fill="none" stroke="#000000" stroke-miterlimit="10" d="M720.7,312"/>
						<path fill="none" stroke="#000000" stroke-miterlimit="10" d="M726.1,302.5"/>
						<path fill="#3FB2CB" d="M727.9,446.6v3.5c0,0-15.1,5.3-18.6,8.6c-3.7,3.3-18.1,8.8-23.2,12.3s-20.9,10.7-20.9,10.7
							s-61.3,30-65.5,32.3c-4,2.1-90.9,50.9-90.9,50.9s-58.3,33.5-65.3,37.2c-6.7,3.7-116.4,67.2-119.9,69.7
							c-3.7,2.6-17.7,9.1-17.7,9.1l-0.9-3.3c0,0,137.3-79,143.6-82S605,508.5,605,508.5s68.3-34.9,73.7-37.4
							c5.3-2.6,31.4-13.7,35.3-16.7C717.7,451.2,727.9,446.6,727.9,446.6z"/>
						<path fill="#FCBB31" d="M654.3,1605.4c0,0-11.2-2.8-12.8-4c-1.4-1.4-4.9-17.7-8.1-23.9c-3.5-6.3-9.3-11.4-9.3-33.2
							c0-21.8-1.4-80.2-2.1-100.1c-0.7-20,3.7-48.3,4.9-53.7c0.9-5.6,17.7-102,19.3-106.7c1.4-4.9,4-25.6,4.9-30.2
							c0.7-4.6,6.5-37.9,8.4-46.5s12.5-56.9,13.9-62.5s13.9-67.4,15.3-71.1c1.4-3.5,15.8-89.9,17-100.8c1.2-10.9,8.1-68.8,9.5-74.8
							s1.4-15.6,0-20s1.2-21.6,3-26.3c1.9-4.6-2.6-10,0-19.8c2.6-9.5,10-58.8,11.4-65.3s8.4-47.4,9.3-51.4c0.7-3.7,4.4-29,6-36.5
							c1.6-7.4,2.6-20.4,7-29.5c4.4-9.1,7.4-36.5,8.4-40.7c1.2-4.2,19.3-62.3,20.9-65.5s21.4-65.8,23.2-69.7
							c1.9-3.7,22.1-64.4,22.1-64.4s19.5-55.1,19.5-58.6c0.5-3.5-0.5-14.2,7.4-25.6s13.9-21.1,18.4-40.2
							c4.4-19.1,17.9-49.3,19.3-52.3s8.8-45.5,10.9-63.4c2.1-18.1,12.5-99,13.7-107.4s10.5-78.1,11.4-83s6.5-43,8.4-54.4
							s7.9-61.6,8.8-69c1.2-7.2,3-25.1,4.4-38.3c1.2-13.7,3.7-90.2,4.6-94.3c0.7-4.2,7.4-96.7,8.8-102c1.4-5.1,7-65.3,6.5-80.4
							s1.2-62.5,2.1-68.8c1.2-6.3,6.7-72.5,8.6-81.8s4.4-13.2,3.7-26.7c-0.7-13.5,3.7-54.1,0.2-69S982-865.6,983-874.9
							c1.2-9.3,8.1-76,8.8-84.8c0.7-9.1,10.5-50.7,9.8-71.1s-2.1-99-2.1-99s-3-143.8-3-148.2s-1.4-35.1-3.5-48.3s-0.7-63,0-71.6
							s-3.5-116.4-2.6-122.2c0.7-5.8,0-61.6,0.5-66.5s-0.5-64.8-1.2-74.8s-6-70.6-6.5-75.8c-0.7-5.1-7.9-81.8-7.4-86.2
							c0.5-4.4-4.2-46.9-4.2-46.9s10,3.7,12.5,4.6c2.8,0.9,9.8,12.8,7.2,18.1c-2.6,5.3-0.7,15.1,0.5,21.4c1.2,6.5,7.2,37.2,7.7,43.5
							s6.7,111.5,8.4,116c1.6,4.4-6,25.6-5.6,29.7c0.5,4,8.6,65.8,8.4,69c-0.2,3.5-6.3,32.3-5.3,38.3c0.7,6,4,24.2,4,27.4
							c0,3.3-1.2,42.8-0.5,46c0.7,3.5,3.7,15.3,3.5,19.3c-0.5,3.7-6.7,81.8-6.7,85.7c0,4,1.4,38.1,0.5,45.8
							c-0.9,7.7-3.3,20.4-2.1,26.7c0.9,6.3,4.4,19.8,4.4,26.7c0,7-1.4,104.1-1.2,107.8s8.4,57.9,8.8,63c0.2,5.1-7,57.4-7,60.9
							s2.1,7,1.4,10.2c-0.7,3.3-2.1,13.2-2.1,19.3c0.2,5.8,1.9,73.7,1.6,78.3c-0.2,4.6-6.3,33.7-6,40.4c0.2,6.7,2.1,68.8,0.7,76
							s-3.7,21.4-3.5,39.3c0.5,17.9,2.8,54.8,2.1,60c-0.7,5.1-11.2,42.1-11.2,46.9c0,4.9,5.1,59.3,4.2,61.8
							c-0.9,2.6-2.8,15.1-3.7,30.2c-0.7,15.1-3.5,52.3-2.8,56.7c0.7,4.4,1.9,20.4,1.2,37.4c-0.7,17-0.5,30-1.4,33.9
							c-0.9,3.7-6.3,29.3-7.7,42.1c-1.4,13-1.9,22.5-2.6,28.3c-0.7,6-5.1,24.9-5.8,29.7c-0.7,4.9,0.2,14.2-0.9,19.5
							c-1.2,5.1-7,18.4-6.3,24.2c0.7,5.8-3.7,112-4.4,117.8s-5.3,21.8-6.5,33.7c-0.7,11.9-0.2,21.6-1.9,26
							c-1.6,4.6-3.5,9.3-4.4,19.5s-2.8,36-6.3,41.8s-6,41.8-6.5,46.9s-2.6,49-3,55.5c-0.5,6.5-2.1,35.1-2.8,40.2
							c-0.7,5.1-4.2,26.7-4.2,32.1c-0.2,5.6-0.9,55.8-1.4,61.6c-0.5,6-1.2,26.5-2.3,34.2c-1.2,7.9-5.6,27-9.5,31.4
							c-4,4.4-5.1,8.1-6.5,15.1c-1.4,6.7-6,20.2-9.3,23.5c-3,3.3-8.1,4.9-9.5,8.1c-1.4,3.5-4.2,13-6.5,14.9s-2.6,2.3-4.4,7.2
							c-1.9,4.9-15.1,39-17.4,46.9c-2.1,7.9-5.1,13.5-5.8,17s-10.9,33.9-16.3,44.1c-5.1,10.2-6.5,12.3-6.5,15.3
							c-0.2,3.3-0.7,10-2.3,13.7c-1.6,3.7-4.2,10.9-5.1,17.9s-2.6,28.1-4.4,31.8c-2.1,3.7-6.3,13.7-6.7,17.9
							c-0.7,4.2-0.2,55.3-0.9,60.2c-0.9,5.1-9.1,44.8-10.9,50c-2.1,5.1-17.9,43.7-19.5,49.5c-1.9,5.8-15.6,71.6-15.6,71.6
							s-16.7,78.8-16.7,87.6s1.6,20.9-2.1,29.7c-3.7,8.8-27.9,186.8-27.9,186.8s1.9,26.3,0,32.1c-1.9,5.8-9.8,32.1-10.7,40.9
							c-0.7,8.8-1.9,16.7-3,20.7c-0.9,4-2.6,14.4-3.7,19.3c-0.9,4.9-6.3,17-8.4,23.2c-2.3,6.3-11.6,33-13.2,40.4
							s-28.6,129.9-30.9,137.1s-5.1,14.4-5.6,18.6s-3.5,56.5-3.7,60c-0.5,3.5,5.1,126.2,5.3,131.3S654.3,1605.4,654.3,1605.4z"/>
						<polygon fill="#C4E3CA" points="675.9,522.6 665,552.3 734.7,577.4 751.2,543.9 						"/>
						<path fill="#C4E3CA" d="M576.7,560h18.1l-2.3-40.4L553,540.5c0,0,18.4-0.5,20.9,2.6C576,546.3,576.7,560,576.7,560z"/>
						<path fill="#C4E3CA" d="M363.1,571.6c0,0,26.3,39.7,27,42.8c0.7,2.6,7.7,0.7,14.2-3.7c6.5-4.2,48.3-30,48.3-30
							s3.7-1.6,4.2-4.9c0.7-3,40.4-88.8,41.6-91.1c1.2-2.6,16.5-30.7,17-34.6c0.7-4,4.2-50.4,4.9-55.5s7.2-56.7,6.3-58.3
							c-0.9-1.6-8.6-4.2-15.6-16.7c-6.7-12.3-14.4-22.3-13.9-24.2c0.2-2.1,2.6-4.9,6.3-4.9s11.6,10.5,12.1,13.2
							c0.2,2.8-1.9,9.1-0.7,12.5c1.2,3.7,10.5,15.3,14.4,15.3c4,0,4.6-2.6,7.9-2.1c3.5,0.2,25.1,3,28.3,3c3.3,0,14.9-50,16.7-53.7
							s17-59.5,18.1-64.1c1.2-4.6,10-60.9,9.5-64.4c-5.8-1.6-32.5-4-32.5-4s-12.3,13.5-15.8,14.9c-3.7,1.4-27.2,12.5-43.5,14.4
							c-16.3,1.6-41.8,3-44.6,2.6c0,2.6-15.1,36.2-29.7,46.7c-14.4,10.5-30.9,32.1-33.2,45.5c-2.3,13.7,5.6,43.5,5.3,48.8
							s0,76.2,0,76.2s6.5-0.2,8.4,3c1.9,3.5,0.7,9.3-2.1,10.9c-2.6,1.6-5.1,2.8-5.1,2.8s0,82.7-0.7,87.6c-0.7,5.1-11.2,27.9-29.3,46
							C369.2,564.9,363.1,571.6,363.1,571.6z"/>
						<path fill="#3FB2CB" d="M401,551.1c3-0.7,3-4.9,3.5-7.9s5.1-5.1,7.2-5.1c2.1,0,4.2-0.5,2.6,2.6c-1.6,3-7.4,8.4-6.3,10.7
							c1.2,2.1,11.2,5.3,13.7,5.3s3.3-2.8,10-3.7c6.7-0.7,15.1-1.9,15.1-1.9s3.5,10.9,1.2,16.5c-2.1,5.3-13.9,10.2-23,13
							c-8.8,2.8-15.3,2.1-23.7,0c-8.1-2.1-10.5-7.9-13.7-8.1c-3.5-0.5-8.8-0.7-8.8-0.7l2.6-3.7C380.8,567.9,397.5,552.3,401,551.1z"
							/>
						<path fill="#3FB2CB" d="M477.5,332.5c2.1-1.2,6.7,7.4,6.7,7.4s-3,9.8-3.5,16.3c-0.5,6.3,7.7,13.7,7.7,19.1
							c0,5.3-3.7,18.1-3.7,21.1c0,3.3-4.2,4.9-4.2,4.9s-3-6-3-11.9c0-6,2.6-12.3,1.2-14.2c-1.2-1.6-14.2-17.9-13.7-19.8
							c0.5-2.1,5.8-7.9,6.7-10.9C472.6,341.1,472.3,335.3,477.5,332.5z"/>
						<path fill="#3FB2CB" d="M416.6,286c0,3.3,0.5,7,3.7,9.3c3.5,2.3,16-23.5,19.3-24.6s5.8-4,4.6-11.2c-1.2-7-11.4-4.9-13.7,0
							c-2.1,4.9-0.9,13-2.6,15.8C426.3,278.1,416.6,286,416.6,286z"/>
						<path fill="#3FB2CB" d="M476.5,250.2c0.7-3.7-0.5-4.4,3-6.3c3.5-1.9,6.7-2.1,6.7-2.1s5.3,7.7,5.3,10.7c0,3.3-3,5.6-7.7,7.9
							c-4.6,2.3-7.2,9.5-10.5,12.3c-3.3,2.6-10.5,4.6-16,10.9c-5.3,6.3-7.7,4-7.7,4s-1.2-10.7,0-12.3s9.3,0,13-2.8s8.4-9.1,9.3-11.9
							C473.3,257.9,476.5,250.2,476.5,250.2z"/>
						<path fill="#3FB2CB" d="M486.5,278.8c0,0,1.6-0.9,2.1,2.6s0.5,6-0.9,8.8c-1.6,2.8-12.8,10.7-13.7,13.7
							c-0.7,3.3-6.5,19.3-8.8,19.3c-2.6,0-4.6-6.5-4.6-6.5S475.6,288.3,486.5,278.8z"/>
						<path fill="#3FB2CB" d="M454.4,332.5c3.7-1.9,5.8,0,5.8,0l4.6-3.5c0,0,0,4.9,0,7.2c0,2.3-4.6,3.5-4.6,6.5s-1.6,5.1-2.6,3.7
							c-0.7-1.6-6.3-10.2-6.3-10.2L454.4,332.5z"/>
						<path fill="#3FB2CB" d="M494.2,212.4c1.6-2.8,9.3-5.8,11.4-5.1c2.1,0.7,3-5.1,3-5.1s5.8,6.7,9.3,5.1c3.5-1.9,8.8-5.8,16.7-5.1
							s20.9-0.5,23,2.8s4.2,6.5,3.7,12.5s3.7,7-3,7.9c-6.7,0.7-10-0.5-13.7,3.7c-3.7,4-4.9,5.1-7.7,5.1s-9.5-3.7-11.6-7.4
							c-2.1-4-3.5-11.2-5.1-11.4c-1.6-0.5-7.7-2.8-7.7-2.8l-4.6,2.8c0,0,7.2,13.5,7.7,16.7c0.5,3.3-3,5.1-7.2,2.3
							C504.4,231.2,494.2,212.4,494.2,212.4z"/>
						<path fill="#3FB2CB" d="M479.1,193.8c0,0-17.2,30.9-17.2,33.9c0,3.3,0,6,0,6h6.7c0,0,10.5-30.7,14.6-31.6
							c4.2-0.9,24.2-3,24.6-4.6c0.5-1.6,2.1-2.3-2.3-3.7c-4.6-1.2-17,2.8-19.3,2.3C484.2,195.6,479.1,193.8,479.1,193.8z"/>
						<path fill="#3FB2CB" d="M572.3,216.5c3.5-2.3,7.2-3,7.2-3v3c0,0-4.4,4.6-4.2,6.5s5.1,6.5,0,10.7c-5.1,4-10,11.4-12.1,16.3
							c-1.9,4.9-4,9.8-4,9.8L555,257c0,0,7.7-6.5,5.3-7.9c-2.1-1.6-2.1-0.7-5.3-0.7c-3.3,0-6.7-3-6.7-3s11.2-5.3,13.9-10
							C565.3,230.7,572.3,216.5,572.3,216.5z"/>
						<path fill="#3FB2CB" d="M515.6,239.5l3-3c0,0,1.2,8.4,3.7,11.2c2.6,2.8,5.1,6.5,3.5,7.4s-3.3-1.9-4.9-4.2
							S515.6,239.5,515.6,239.5z"/>
						<path fill="#C4E3CA" d="M563.2,357.8c0,0,18.4-16.5,20.9-21.8c6.3-1.6,66.5-15.3,66.5-15.3s13.9,11.6,13.7,15.3
							s-4,17.7-3.7,21.8c0.5,4,0.2,3.7,0,8.8c-0.2,5.1,0.5,7,5.8,8.4s9.1,0,9.1,0l-5.3,26l-19.8-3.7l-2.1,18.1h-8.6
							c0,0-23.9-15.1-28.6-18.1c-4.6-3.5-48.1-6.5-48.1-6.5L563.2,357.8L563.2,357.8z"/>
						<path fill="#3FB2CB" d="M860.6-404.8c0,0-45.8,4.9-57.6,8.4c-11.9,3.7-14.2,11.2-15.1,23c-1.2,11.9-3.3,26.3-5.3,31.8
							c-2.1,5.6-10.9,33.2-14.9,38.3c-3.7,5.1-17.4,12.3-24.4,8.4s-11.6-15.1-19.5-17.2s-75.8,1.2-83.2,0.5
							c-7.2-0.7-29.7-8.8-36.9-15.1c-7.2-6.5-23.9-25.8-23.9-25.8l-7.4,7.7c0,0,28.3,29.7,32.5,33s34.2,15.1,37.2,17.2
							s7.7,8.8,6.5,21.4c-1.2,12.3-3,62.7-8.1,83s-12.3,54.1-20.9,74.4s-29.3,67.6-33,76S575.4-1,575.7,2c4.2,0,11.4,0,11.4,0
							s8.6-40.2,15.3-51.8s25.3-49.5,27.9-57.9c2.6-8.4,18.1-46.2,18.1-50.7c0.2-4.4,8.4-39.7,10.5-59.5c2.1-19.5,1.9-41.1,4.6-43.9
							c2.8-2.6,8.6-2.3,17.2-3.3c8.6-0.7,66.2-2.1,72-3.7c6-1.6,13.9-9.3,17-15.6S789-326.2,792-332c3-5.6,5.6-15.8,7.2-26.7
							c1.9-10.9,0.7-19.3,6.5-23.2c5.6-4,12.8-5.1,24.9-6.5c12.1-1.2,33.9-2.1,33.9-2.1l-1.9-14.4L860.6-404.8L860.6-404.8z"/>
						<path fill="none" stroke="#000000" stroke-width="6" stroke-miterlimit="10" d="M754.7,48.1"/>
						<path fill="none" stroke="#000000" stroke-width="6" stroke-miterlimit="10" d="M611.3,34.4"/>
						<path fill="none" stroke="#000000" stroke-width="6" stroke-miterlimit="10" d="M627.8,139.4"/>
						<path fill="none" stroke="#000000" stroke-width="6" stroke-miterlimit="10" d="M639.9,39.2"/>
						<path fill="none" stroke="#000000" stroke-width="6" stroke-miterlimit="10" d="M664.3,142.9"/>
						<path fill="none" stroke="#000000" stroke-width="6" stroke-miterlimit="10" d="M680.8,43.9"/>
						<path fill="none" stroke="#000000" stroke-miterlimit="10" d="M701.2,100.1"/>
						<path fill="none" stroke="#000000" stroke-miterlimit="10" d="M603.9,88.3"/>
						<path fill="none" stroke="#000000" stroke-width="6" stroke-miterlimit="10" d="M701.2,149.4"/>
						<path fill="none" stroke="#000000" stroke-width="6" stroke-miterlimit="10" d="M707.3,102"/>
						<path fill="none" stroke="#000000" stroke-width="6" stroke-miterlimit="10" d="M724.2,68.5"/>
						<path fill="none" stroke="#000000" stroke-width="6" stroke-miterlimit="10" d="M601.1,146.6"/>
						<path fill="none" stroke="#000000" stroke-width="6" stroke-miterlimit="10" d="M752.3,290.7"/>
						<path fill="none" stroke="#000000" stroke-width="6" stroke-miterlimit="10" d="M758.6,250.2"/>
					</g>
				</g>
			</g>
		</g>
	</g>
	<path fill="none" stroke="#A7A9AC" stroke-width="4" stroke-linecap="round" stroke-miterlimit="10" stroke-dasharray="12" d="
		M680.8,43.9c-1.2,11.4-14.2,96.7-15.6,106.4"/>
	<circle fill="#A7A9AC" cx="675.7" cy="92" r="14.9"/>
	<circle fill="#A7A9AC" cx="720" cy="160.3" r="14.9"/>
	<path fill="none" stroke="#A7A9AC" stroke-width="4" stroke-linecap="round" stroke-miterlimit="10" stroke-dasharray="12" d="
		M710.3,299.5c-18.4,4.6-134.3,38.3-145.2,42.5"/>
	<path fill="none" stroke="#A7A9AC" stroke-width="4" stroke-linecap="round" stroke-miterlimit="10" stroke-dasharray="12" d="
		M626.9,158c-1.6,12.3-10.5,65.3-19.5,99.9c-9.3,34.6-17,62.5-17,62.5"/>
	<circle fill="#A7A9AC" cx="596.2" cy="333.2" r="14.9"/>
	<circle fill="#A7A9AC" cx="730" cy="295.3" r="14.9"/>
	<circle fill="#A7A9AC" cx="690.3" cy="488.4" r="14.9"/>
	<circle fill="#A7A9AC" cx="229.1" cy="473.5" r="14.9"/>
	<circle fill="#A7A9AC" cx="244.2" cy="535.8" r="14.9"/>
	<path fill="none" stroke="#A7A9AC" stroke-width="4" stroke-linecap="round" stroke-miterlimit="10" stroke-dasharray="12" d="
		M611.1,20.4c0,10-0.5,57.4-14.9,82.7c-14.6,25.3-17.4,45.5-34.9,58.6c-17.4,13-66.9,15.1-94.8,13.7"/>
	<circle fill="#A7A9AC" cx="589.7" cy="135.7" r="14.9"/>
	<g>
		<g>
			
				<path fill="none" stroke="#A7A9AC" stroke-width="4" stroke-linecap="round" stroke-miterlimit="10" stroke-dasharray="12.4522,12.4522" d="
				M611.1,30.6c1.2,0.2,5.3,0.7,12.1,0.9"/>
			
				<path fill="none" stroke="#A7A9AC" stroke-width="4" stroke-linecap="round" stroke-miterlimit="10" stroke-dasharray="12.4522,12.4522" d="
				M648,33.4c27.2,2.3,63.2,5.6,86.9,8.6"/>
			
				<path fill="none" stroke="#A7A9AC" stroke-width="4" stroke-linecap="round" stroke-miterlimit="10" stroke-dasharray="12.4522,12.4522" d="
				M747,44.1c6.3,0.9,10.5,2.1,11.6,3"/>
		</g>
	</g>
	<path fill="none" stroke="#A7A9AC" stroke-width="4" stroke-linecap="round" stroke-miterlimit="10" stroke-dasharray="12" d="
		M640.6,47.1c-0.7,7.4-12.1,98.5-12.1,98.5"/>
	<path fill="none" stroke="#A7A9AC" stroke-width="4" stroke-linecap="round" stroke-miterlimit="10" stroke-dasharray="12" d="
		M730.3,58.5c-4,7.4-17.7,21.8-19.5,28.1c-1.9,6.3-9.5,63-9.5,63"/>
	<path fill="none" stroke="#A7A9AC" stroke-width="4" stroke-linecap="round" stroke-miterlimit="10" stroke-dasharray="12" d="
		M604.6,146.4c5.8,0.7,96.7,11.6,96.7,11.6"/>
	
		<text transform="matrix(0.9418 0.3362 -0.3362 0.9418 705.3554 492.9125)" fill="#808285" font-family="'MyriadPro-Regular'" font-size="24.7508">23rd St</text>
	
		<text transform="matrix(7.838871e-02 -0.9969 0.9969 7.838871e-02 847.4537 250.4244)" fill="#808285" font-family="'MyriadPro-Regular'" font-size="24.7508">Indian Creek</text>
</g>
<path fill="none" stroke="#33827F" stroke-width="6" stroke-linecap="round" stroke-miterlimit="10" d="M814.4,33.4
	c-1.2,8.1-6.3,57.9-5.1,87.4c1.2,29.5,2.6,57.2-6,75.1s-28.1,58.6-31.1,64.4s-22.3,36-19.5,85c2.8,49-1.6,86.4-11.6,92.7"/>
<path fill="none" stroke="#33827F" stroke-width="6" stroke-linecap="round" stroke-miterlimit="10" d="M419.8,160.3
	c-14.4,10.7-93.2,95.3-93.9,103.6c-0.7,8.4-2.8,41.1,0.9,46.2c4,5.1,27.7-3.3,28.3,31.6c0.7,34.9,5.1,141,2.8,146.6
	s-10.5,13.5-32.8,14.2c-4.2,11.4,5.3,48.3-6.5,57.6"/>
</svg>
