<?xml version="1.0" encoding="utf-8"?>
<!-- Generator: Adobe Illustrator 18.1.1, SVG Export Plug-In . SVG Version: 6.00 Build 0)  -->
<!DOCTYPE svg PUBLIC "-//W3C//DTD SVG 1.1//EN" "http://www.w3.org/Graphics/SVG/1.1/DTD/svg11.dtd">
<svg version="1.1" id="Layer_1" xmlns="http://www.w3.org/2000/svg" xmlns:xlink="http://www.w3.org/1999/xlink" x="0px" y="0px"
	 viewBox="273.6 170 416.4 226" enable-background="new 273.6 170 416.4 226" xml:space="preserve">
<g id="Layer_1_1_">
	<g>
		<text transform="matrix(1 0 0 1 277.041 344.3896)" fill="#FFFFFF" font-family="'ArialMT'" font-size="14">0</text>
		<text transform="matrix(1 0 0 1 277.041 301.7665)" fill="#FFFFFF" font-family="'ArialMT'" font-size="14">2</text>
		<text transform="matrix(1 0 0 1 277.041 259.1436)" fill="#FFFFFF" font-family="'ArialMT'" font-size="14">4</text>
	</g>
	<g>
		<g>
			<g>
				<g>
					<line fill="none" stroke="#FFFFFF" stroke-miterlimit="10" x1="294" y1="343.1" x2="294.4" y2="343.1"/>
					
						<line fill="none" stroke="#FFFFFF" stroke-width="1.2" stroke-miterlimit="10" stroke-dasharray="1.9991,1.9991" x1="295.2" y1="343.2" x2="663.8" y2="343.3"/>
					<line fill="none" stroke="#FFFFFF" stroke-miterlimit="10" x1="664" y1="343.1" x2="664.4" y2="343.1"/>
					
						<line fill="none" stroke="#FFFFFF" stroke-width="1.2" stroke-miterlimit="10" stroke-dasharray="1.9991,1.9991" x1="295.2" y1="364.1" x2="663.8" y2="364.1"/>
				</g>
			</g>
			<g>
				<g>
					<line fill="none" stroke="#FFFFFF" stroke-miterlimit="10" x1="294.4" y1="224.8" x2="294.9" y2="224.8"/>
					
						<line fill="none" stroke="#FFFFFF" stroke-miterlimit="10" stroke-dasharray="2,2" x1="295.7" y1="224.8" x2="663.6" y2="224.8"/>
					<line fill="none" stroke="#FFFFFF" stroke-miterlimit="10" x1="664" y1="224.8" x2="664.4" y2="224.8"/>
				</g>
			</g>
		</g>
	</g>
	<g>
		<g>
			<line fill="none" stroke="#EC1C24" stroke-width="4" stroke-miterlimit="10" x1="315.7" y1="363" x2="301" y2="363.9"/>
			<line fill="none" stroke="#EC1C24" stroke-width="4" stroke-miterlimit="10" x1="330.2" y1="361.7" x2="315.7" y2="363"/>
			<line fill="none" stroke="#EC1C24" stroke-width="4" stroke-miterlimit="10" x1="344.8" y1="359.6" x2="330.2" y2="361.7"/>
			
				<line fill="none" stroke="#EC1C24" stroke-width="4" stroke-linecap="square" stroke-miterlimit="10" x1="359.4" y1="357.1" x2="344.8" y2="359.6"/>
			
				<line fill="none" stroke="#EC1C24" stroke-width="4" stroke-linecap="square" stroke-miterlimit="10" x1="374" y1="354.1" x2="359.4" y2="357.1"/>
			
				<line fill="none" stroke="#EC1C24" stroke-width="4" stroke-linecap="square" stroke-miterlimit="10" x1="388.6" y1="350.4" x2="374" y2="354.1"/>
			
				<line fill="none" stroke="#EC1C24" stroke-width="4" stroke-linecap="square" stroke-miterlimit="10" x1="403.1" y1="346.2" x2="388.6" y2="350.4"/>
			
				<line fill="none" stroke="#EC1C24" stroke-width="4" stroke-linecap="square" stroke-miterlimit="10" x1="417.8" y1="341.5" x2="403.1" y2="346.2"/>
			
				<line fill="none" stroke="#EC1C24" stroke-width="4" stroke-linecap="square" stroke-miterlimit="10" x1="432.3" y1="336.4" x2="417.8" y2="341.5"/>
			
				<line fill="none" stroke="#EC1C24" stroke-width="4" stroke-linecap="square" stroke-miterlimit="10" x1="447" y1="330.7" x2="432.3" y2="336.4"/>
			
				<line fill="none" stroke="#EC1C24" stroke-width="4" stroke-linecap="square" stroke-miterlimit="10" x1="461.5" y1="324.3" x2="447" y2="330.7"/>
			
				<line fill="none" stroke="#EC1C24" stroke-width="4" stroke-linecap="square" stroke-miterlimit="10" x1="476.1" y1="317.4" x2="461.5" y2="324.3"/>
			
				<line fill="none" stroke="#EC1C24" stroke-width="4" stroke-linecap="square" stroke-miterlimit="10" x1="490.7" y1="310" x2="476.1" y2="317.4"/>
			
				<line fill="none" stroke="#EC1C24" stroke-width="4" stroke-linecap="square" stroke-miterlimit="10" x1="505.3" y1="301.8" x2="490.7" y2="310"/>
			
				<line fill="none" stroke="#EC1C24" stroke-width="4" stroke-linecap="square" stroke-miterlimit="10" x1="519.9" y1="293.4" x2="505.3" y2="301.8"/>
			
				<line fill="none" stroke="#EC1C24" stroke-width="4" stroke-linecap="square" stroke-miterlimit="10" x1="534.5" y1="284.4" x2="519.9" y2="293.4"/>
			
				<line fill="none" stroke="#EC1C24" stroke-width="4" stroke-linecap="square" stroke-miterlimit="10" x1="549.1" y1="274.8" x2="534.5" y2="284.4"/>
			
				<line fill="none" stroke="#EC1C24" stroke-width="4" stroke-linecap="square" stroke-miterlimit="10" x1="563.6" y1="264.6" x2="549.1" y2="274.8"/>
			
				<line fill="none" stroke="#EC1C24" stroke-width="4" stroke-linecap="square" stroke-miterlimit="10" x1="578.2" y1="253.9" x2="563.6" y2="264.6"/>
			
				<line fill="none" stroke="#EC1C24" stroke-width="4" stroke-linecap="square" stroke-miterlimit="10" x1="592.8" y1="242.9" x2="578.2" y2="253.9"/>
			
				<line fill="none" stroke="#EC1C24" stroke-width="4" stroke-linecap="square" stroke-miterlimit="10" x1="607.4" y1="230.9" x2="592.8" y2="242.9"/>
			
				<line fill="none" stroke="#EC1C24" stroke-width="4" stroke-linecap="square" stroke-miterlimit="10" x1="622.1" y1="218.6" x2="607.4" y2="230.9"/>
		</g>
	</g>
	<g>
		<g>
			<line fill="none" stroke="#FDBB11" stroke-width="4" stroke-miterlimit="10" x1="315.7" y1="363" x2="301" y2="364.1"/>
			<line fill="none" stroke="#FDBB11" stroke-width="4" stroke-miterlimit="10" x1="330.2" y1="361.9" x2="315.7" y2="363"/>
			<line fill="none" stroke="#FDBB11" stroke-width="4" stroke-miterlimit="10" x1="344.8" y1="360.5" x2="330.2" y2="361.9"/>
			
				<line fill="none" stroke="#FDBB11" stroke-width="4" stroke-linecap="square" stroke-miterlimit="10" x1="359.4" y1="358.8" x2="344.8" y2="360.5"/>
			
				<line fill="none" stroke="#FDBB11" stroke-width="4" stroke-linecap="square" stroke-miterlimit="10" x1="374" y1="356.6" x2="359.4" y2="358.8"/>
			
				<line fill="none" stroke="#FDBB11" stroke-width="4" stroke-linecap="square" stroke-miterlimit="10" x1="388.6" y1="354.3" x2="374" y2="356.6"/>
			
				<line fill="none" stroke="#FDBB11" stroke-width="4" stroke-linecap="square" stroke-miterlimit="10" x1="403.1" y1="351.6" x2="388.6" y2="354.3"/>
			
				<line fill="none" stroke="#FDBB11" stroke-width="4" stroke-linecap="square" stroke-miterlimit="10" x1="417.8" y1="348.6" x2="403.1" y2="351.6"/>
			
				<line fill="none" stroke="#FDBB11" stroke-width="4" stroke-linecap="square" stroke-miterlimit="10" x1="432.3" y1="345.1" x2="417.8" y2="348.6"/>
			
				<line fill="none" stroke="#FDBB11" stroke-width="4" stroke-linecap="square" stroke-miterlimit="10" x1="447" y1="341.5" x2="432.3" y2="345.1"/>
			
				<line fill="none" stroke="#FDBB11" stroke-width="4" stroke-linecap="square" stroke-miterlimit="10" x1="461.5" y1="337.7" x2="447" y2="341.5"/>
			
				<line fill="none" stroke="#FDBB11" stroke-width="4" stroke-linecap="square" stroke-miterlimit="10" x1="476.1" y1="333.4" x2="461.5" y2="337.7"/>
			
				<line fill="none" stroke="#FDBB11" stroke-width="4" stroke-linecap="square" stroke-miterlimit="10" x1="490.7" y1="328.9" x2="476.1" y2="333.4"/>
			
				<line fill="none" stroke="#FDBB11" stroke-width="4" stroke-linecap="square" stroke-miterlimit="10" x1="505.3" y1="324.1" x2="490.7" y2="328.9"/>
			
				<line fill="none" stroke="#FDBB11" stroke-width="4" stroke-linecap="square" stroke-miterlimit="10" x1="519.9" y1="319" x2="505.3" y2="324.1"/>
			
				<line fill="none" stroke="#FDBB11" stroke-width="4" stroke-linecap="square" stroke-miterlimit="10" x1="534.5" y1="313.6" x2="519.9" y2="319"/>
			
				<line fill="none" stroke="#FDBB11" stroke-width="4" stroke-linecap="square" stroke-miterlimit="10" x1="549.1" y1="307.9" x2="534.5" y2="313.6"/>
			
				<line fill="none" stroke="#FDBB11" stroke-width="4" stroke-linecap="square" stroke-miterlimit="10" x1="563.6" y1="301.8" x2="549.1" y2="307.9"/>
			
				<line fill="none" stroke="#FDBB11" stroke-width="4" stroke-linecap="square" stroke-miterlimit="10" x1="578.2" y1="295.5" x2="563.6" y2="301.8"/>
			
				<line fill="none" stroke="#FDBB11" stroke-width="4" stroke-linecap="square" stroke-miterlimit="10" x1="592.8" y1="288.9" x2="578.2" y2="295.5"/>
			
				<line fill="none" stroke="#FDBB11" stroke-width="4" stroke-linecap="square" stroke-miterlimit="10" x1="607.4" y1="281.8" x2="592.8" y2="288.9"/>
			
				<line fill="none" stroke="#FDBB11" stroke-width="4" stroke-linecap="square" stroke-miterlimit="10" x1="622.1" y1="274.6" x2="607.4" y2="281.8"/>
		</g>
	</g>
	<g>
		<g>
			<line fill="none" stroke="#C4E3CA" stroke-width="4" stroke-miterlimit="10" x1="315.7" y1="363.3" x2="301" y2="364.1"/>
			<line fill="none" stroke="#C4E3CA" stroke-width="4" stroke-miterlimit="10" x1="330.2" y1="362.2" x2="315.7" y2="363.3"/>
			<line fill="none" stroke="#C4E3CA" stroke-width="4" stroke-miterlimit="10" x1="344.8" y1="361.2" x2="330.2" y2="362.2"/>
			
				<line fill="none" stroke="#C4E3CA" stroke-width="4" stroke-linecap="square" stroke-miterlimit="10" x1="359.4" y1="360.1" x2="344.8" y2="361.2"/>
			
				<line fill="none" stroke="#C4E3CA" stroke-width="4" stroke-linecap="square" stroke-miterlimit="10" x1="374" y1="358.8" x2="359.4" y2="360.1"/>
			
				<line fill="none" stroke="#C4E3CA" stroke-width="4" stroke-linecap="square" stroke-miterlimit="10" x1="388.6" y1="357.5" x2="374" y2="358.8"/>
			
				<line fill="none" stroke="#C4E3CA" stroke-width="4" stroke-linecap="square" stroke-miterlimit="10" x1="403.1" y1="356" x2="388.6" y2="357.5"/>
			
				<line fill="none" stroke="#C4E3CA" stroke-width="4" stroke-linecap="square" stroke-miterlimit="10" x1="417.8" y1="354.5" x2="403.1" y2="356"/>
			
				<line fill="none" stroke="#C4E3CA" stroke-width="4" stroke-linecap="square" stroke-miterlimit="10" x1="432.3" y1="353" x2="417.8" y2="354.5"/>
			
				<line fill="none" stroke="#C4E3CA" stroke-width="4" stroke-linecap="square" stroke-miterlimit="10" x1="447" y1="351.3" x2="432.3" y2="353"/>
			
				<line fill="none" stroke="#C4E3CA" stroke-width="4" stroke-linecap="square" stroke-miterlimit="10" x1="461.5" y1="349.6" x2="447" y2="351.3"/>
			
				<line fill="none" stroke="#C4E3CA" stroke-width="4" stroke-linecap="square" stroke-miterlimit="10" x1="476.1" y1="347.7" x2="461.5" y2="349.6"/>
			
				<line fill="none" stroke="#C4E3CA" stroke-width="4" stroke-linecap="square" stroke-miterlimit="10" x1="490.7" y1="345.5" x2="476.1" y2="347.7"/>
			
				<line fill="none" stroke="#C4E3CA" stroke-width="4" stroke-linecap="square" stroke-miterlimit="10" x1="505.3" y1="343.6" x2="490.7" y2="345.5"/>
			
				<line fill="none" stroke="#C4E3CA" stroke-width="4" stroke-linecap="square" stroke-miterlimit="10" x1="519.9" y1="341.3" x2="505.3" y2="343.6"/>
			
				<line fill="none" stroke="#C4E3CA" stroke-width="4" stroke-linecap="square" stroke-miterlimit="10" x1="534.5" y1="339.2" x2="519.9" y2="341.3"/>
			
				<line fill="none" stroke="#C4E3CA" stroke-width="4" stroke-linecap="square" stroke-miterlimit="10" x1="549.1" y1="336.8" x2="534.5" y2="339.2"/>
			
				<line fill="none" stroke="#C4E3CA" stroke-width="4" stroke-linecap="square" stroke-miterlimit="10" x1="563.6" y1="334.3" x2="549.1" y2="336.8"/>
			
				<line fill="none" stroke="#C4E3CA" stroke-width="4" stroke-linecap="square" stroke-miterlimit="10" x1="578.2" y1="331.8" x2="563.6" y2="334.3"/>
			
				<line fill="none" stroke="#C4E3CA" stroke-width="4" stroke-linecap="square" stroke-miterlimit="10" x1="592.8" y1="329.1" x2="578.2" y2="331.8"/>
			
				<line fill="none" stroke="#C4E3CA" stroke-width="4" stroke-linecap="square" stroke-miterlimit="10" x1="607.4" y1="326.4" x2="592.8" y2="329.1"/>
			
				<line fill="none" stroke="#C4E3CA" stroke-width="4" stroke-linecap="square" stroke-miterlimit="10" x1="622.1" y1="323.6" x2="607.4" y2="326.4"/>
		</g>
	</g>
	<g>
		<g>
			
				<line fill="none" stroke="#015468" stroke-width="4" stroke-linecap="square" stroke-miterlimit="10" x1="315.7" y1="363.3" x2="301" y2="364.1"/>
			
				<line fill="none" stroke="#015468" stroke-width="4" stroke-linecap="square" stroke-miterlimit="10" x1="330.2" y1="362.4" x2="315.7" y2="363.3"/>
			
				<line fill="none" stroke="#015468" stroke-width="4" stroke-linecap="square" stroke-miterlimit="10" x1="344.8" y1="361.5" x2="330.2" y2="362.4"/>
			
				<line fill="none" stroke="#015468" stroke-width="4" stroke-linecap="square" stroke-miterlimit="10" x1="359.4" y1="360.7" x2="344.8" y2="361.5"/>
			
				<line fill="none" stroke="#015468" stroke-width="4" stroke-linecap="square" stroke-miterlimit="10" x1="374" y1="359.8" x2="359.4" y2="360.7"/>
			
				<line fill="none" stroke="#015468" stroke-width="4" stroke-linecap="square" stroke-miterlimit="10" x1="388.6" y1="359.1" x2="374" y2="359.8"/>
			
				<line fill="none" stroke="#015468" stroke-width="4" stroke-linecap="square" stroke-miterlimit="10" x1="403.1" y1="358.1" x2="388.6" y2="359.1"/>
			
				<line fill="none" stroke="#015468" stroke-width="4" stroke-linecap="square" stroke-miterlimit="10" x1="417.8" y1="357.3" x2="403.1" y2="358.1"/>
			
				<line fill="none" stroke="#015468" stroke-width="4" stroke-linecap="square" stroke-miterlimit="10" x1="432.3" y1="356.4" x2="417.8" y2="357.3"/>
			
				<line fill="none" stroke="#015468" stroke-width="4" stroke-linecap="square" stroke-miterlimit="10" x1="447" y1="355.6" x2="432.3" y2="356.4"/>
			
				<line fill="none" stroke="#015468" stroke-width="4" stroke-linecap="square" stroke-miterlimit="10" x1="461.5" y1="354.7" x2="447" y2="355.6"/>
			
				<line fill="none" stroke="#015468" stroke-width="4" stroke-linecap="square" stroke-miterlimit="10" x1="476.1" y1="354.1" x2="461.5" y2="354.7"/>
			
				<line fill="none" stroke="#015468" stroke-width="4" stroke-linecap="square" stroke-miterlimit="10" x1="490.7" y1="353.3" x2="476.1" y2="354.1"/>
			
				<line fill="none" stroke="#015468" stroke-width="4" stroke-linecap="square" stroke-miterlimit="10" x1="505.3" y1="352.4" x2="490.7" y2="353.3"/>
			
				<line fill="none" stroke="#015468" stroke-width="4" stroke-linecap="square" stroke-miterlimit="10" x1="519.9" y1="351.6" x2="505.3" y2="352.4"/>
			
				<line fill="none" stroke="#015468" stroke-width="4" stroke-linecap="square" stroke-miterlimit="10" x1="534.5" y1="350.7" x2="519.9" y2="351.6"/>
			
				<line fill="none" stroke="#015468" stroke-width="4" stroke-linecap="square" stroke-miterlimit="10" x1="549.1" y1="349.9" x2="534.5" y2="350.7"/>
			
				<line fill="none" stroke="#015468" stroke-width="4" stroke-linecap="square" stroke-miterlimit="10" x1="563.6" y1="349" x2="549.1" y2="349.9"/>
			
				<line fill="none" stroke="#015468" stroke-width="4" stroke-linecap="square" stroke-miterlimit="10" x1="578.2" y1="348.1" x2="563.6" y2="349"/>
			
				<line fill="none" stroke="#015468" stroke-width="4" stroke-linecap="square" stroke-miterlimit="10" x1="592.8" y1="347.2" x2="578.2" y2="348.1"/>
			
				<line fill="none" stroke="#015468" stroke-width="4" stroke-linecap="square" stroke-miterlimit="10" x1="607.4" y1="346.5" x2="592.8" y2="347.2"/>
			
				<line fill="none" stroke="#015468" stroke-width="4" stroke-linecap="square" stroke-miterlimit="10" x1="622.1" y1="345.5" x2="607.4" y2="346.5"/>
		</g>
	</g>
	<g>
		<text transform="matrix(1 0 0 1 291.4853 379.1074)" fill="#FFFFFF" font-family="'ArialMT'" font-size="14">1990</text>
	</g>
	<g>
		<text transform="matrix(1 0 0 1 467.4433 379.1074)" fill="#FFFFFF" font-family="'ArialMT'" font-size="14">2050</text>
	</g>
	<g>
		<text transform="matrix(1 0 0 1 613.1914 379.1074)" fill="#FFFFFF" font-family="'ArialMT'" font-size="14">2100</text>
	</g>
	<g>
		<path fill="#A2DADD" d="M649.1,236.9c-0.3-1.3-1.3-1-1.6-3.7c-0.3-2.8,0.2-5.4,1.6-6.6s4.1-2.1,6.7-1.1c2.6,1.1,3,2.3,3,4
			c0.1,1.6,0.3,4.7,0,5.6c-0.3,0.9-0.8,1.3-1.3,1.9c-0.4,0.6-0.3,2.4-0.1,2.9c0.1,0.4,7.7,4.4,9.3,4.9c1.6,0.5,2.8,2.5,3.3,6.2
			c0.5,3.6,1.9,16.1,1.7,17c-0.1,1-4.2,11.5-6.9,13.9c-0.8,3-2.3,17.8-2.4,19.5s-0.1,3.8,0.3,5c0.3,1.1-2.5,23.9-4,27.8
			c-0.4,1.2-1,2.2-1.1,3c-0.1,0.8,0.3,4.7,0.1,5.1s-6.4,0.5-7,0.4c-0.6-0.1,0-1.6,0.8-2.6c0.8-1,0.5-2.1,0.8-5.1
			c0.3-3,1.1-12.2,1.6-19.9c0.3-2.1,0.6-3.7,0.4-7c-0.3-3.3,0-15.8-0.3-17.3c-0.3-1.5-1.2-1.9-1.6-1.8c-0.4,0.1-0.4,0.8-0.5,2.8
			c-0.1,2,0,14.7-0.6,15.7c-0.6,1-1.1,1.9-1.1,3c0,1.1,0.8,4.3,1.6,5.9c0.8,1.6,0.6,3.5,0.4,4.9c-0.1,1.4,0,10-0.3,11.2
			c-0.3,1.2-1.2,3.6-2.6,3.2c-1.3-0.4-3.7-2.3-3.6-4.8s1.3-7.6,0.8-9.5c-0.4-1.9-4.3-7.2-4.7-9.8c-0.3-2.6-0.8-22.9-1.3-24.5
			c-0.4-1.6-0.8-4.3-2.4-5.4c-1.5-1.1-1.3-3.5-1.3-4.5c0-1-2.9-4.8-4-10.2c-0.4-3,2.7-16.4,3-18s1.7-3.8,3.8-5.1
			c2.1-1.2,7.2-3,8.2-3.6c1-0.6,1.1-0.8,1.3-1.3C649.3,238.5,649.1,236.9,649.1,236.9z"/>
		<g>
			<path fill="#FFFFFF" d="M648.1,240.5c0.1-0.4,0.8-0.5,1.1,0c0.3,0.5,2.6,3.3,3.2,3.5c0.6,0.1,1.6,0,2.2-0.6
				c0.6-0.6,1.5-1.8,1.7-2.3c0.3-0.5,0.7-0.8,1.2-0.8c0.5-0.1,0.1,5.7-0.4,7.2c-0.5,1.5-3.7,10.1-4.2,10.4c-0.5,0.3-3-7.8-3.4-9.3
				C649.1,247.2,647.9,243.4,648.1,240.5z"/>
			<path fill="#FFFFFF" d="M639.5,262.5c0.1-0.6,0.8-0.8,0.8-0.5c0.1,0.4,0.3,8.6,0,9.1s-0.6,0.8-0.8,0
				C639.2,270.2,639,264.1,639.5,262.5z"/>
			<path fill="#FFFFFF" d="M663.7,261.8c-0.6,0.6-1.2,2-1.3,3c-0.1,1-0.6,1.5,0,3.3c0.6,1.8,1.1,4.2,1.3,3.5
				c0.3-0.6,0.6-5.4,0.6-6.5s0.6-3.3,0-3.3C663.7,261.8,663.7,261.8,663.7,261.8z"/>
			<path fill="#FFFFFF" d="M662.6,276.3c0.3-0.3,0.6-0.8,1.5-0.5c0.8,0.3,3,2.4,2.8,2.8c-0.2,0.4-0.6,1.1-0.8,1.3
				C666,280.1,662.6,276.3,662.6,276.3z"/>
			<path fill="#FFFFFF" d="M637,279.9c0.7-0.5,2.3-2.2,3-2.1c0.6,0.1,0.7,0.8,0,1.6c-0.7,0.8-2.3,1.8-2.3,1.8
				C637.5,281.1,637,279.9,637,279.9z"/>
		</g>
	</g>
	<line fill="none" stroke="#EC1C24" stroke-width="6" stroke-miterlimit="10" x1="303.2" y1="187.4" x2="316.7" y2="187.4"/>
	<line fill="none" stroke="#FDBB11" stroke-width="6" stroke-miterlimit="10" x1="361.1" y1="187.4" x2="374" y2="187.4"/>
	<line fill="none" stroke="#C4E3CA" stroke-width="6" stroke-miterlimit="10" x1="481.6" y1="187.4" x2="494" y2="187.4"/>
	<line fill="none" stroke="#015468" stroke-width="6" stroke-miterlimit="10" x1="598.7" y1="187.4" x2="611.9" y2="187.4"/>
	<text transform="matrix(1 0 0 1 323.0641 191.066)" fill="#FFFFFF" font-family="'ArialMT'" font-size="12">High</text>
	<text transform="matrix(1 0 0 1 380.7848 191.066)" fill="#FFFFFF" font-family="'ArialMT'" font-size="12">Intermediate high</text>
	<text transform="matrix(1 0 0 1 500.3106 191.0661)" fill="#FFFFFF" font-family="'ArialMT'" font-size="12">Intermediate low</text>
	<text transform="matrix(1 0 0 1 618.6562 191.066)" fill="#FFFFFF" font-family="'ArialMT'" font-size="12">Low</text>
	<g>
		<text transform="matrix(1 0 0 1 615.035 213.0322)" fill="#FFFFFF" font-family="'ArialMT'" font-size="12">5.85</text>
	</g>
	<circle fill="#FFFFFF" stroke="#EC1C24" stroke-width="2" stroke-miterlimit="10" cx="621.8" cy="218.2" r="3"/>
	<text transform="matrix(1 0 0 1 273.5951 226.1709)" fill="#FFFFFF" font-family="'ArialMT'" font-size="14">5.6</text>
</g>
<g id="ai2html-settings">
</g>
</svg>
