<?xml version="1.0" encoding="utf-8"?>
<!-- Generator: Adobe Illustrator 18.1.1, SVG Export Plug-In . SVG Version: 6.00 Build 0)  -->
<!DOCTYPE svg PUBLIC "-//W3C//DTD SVG 1.1//EN" "http://www.w3.org/Graphics/SVG/1.1/DTD/svg11.dtd">
<svg version="1.1" id="Layer_1" xmlns="http://www.w3.org/2000/svg" xmlns:xlink="http://www.w3.org/1999/xlink" x="0px" y="0px"
	 viewBox="0 95 960 454" enable-background="new 0 95 960 454" xml:space="preserve">
<text transform="matrix(4.489659e-11 -1 1 4.489659e-11 19.9174 474.9375)" fill="#2A2A2A" font-family="'JosefinSlab-SemiBold'" font-size="18.9966">Sea Level Rise in Feet (LMSL)</text>
<g>
	<g>
		<text transform="matrix(1 0 0 1 68.2386 531.5641)" fill="#2A2A2A" font-family="'JosefinSlab-SemiBold'" font-size="18.9966">1990</text>
	</g>
</g>
<g>
	<g>
		<text transform="matrix(1 0 0 1 135.705 530.6432)" fill="#2A2A2A" font-family="'JosefinSlab-SemiBold'" font-size="18.9966">2000</text>
	</g>
</g>
<g>
	<g>
		<text transform="matrix(1 0 0 1 209.3451 529.7244)" fill="#2A2A2A" font-family="'JosefinSlab-SemiBold'" font-size="18.9966">2010</text>
	</g>
</g>
<g>
	<g>
		<text transform="matrix(1 0 0 1 273.7552 530.6443)" fill="#2A2A2A" font-family="'JosefinSlab-SemiBold'" font-size="18.9966">2020</text>
	</g>
</g>
<g>
	<g>
		<text transform="matrix(1 0 0 1 340.8227 530.6443)" fill="#2A2A2A" font-family="'JosefinSlab-SemiBold'" font-size="18.9966">2030</text>
	</g>
</g>
<g>
	<g>
		<text transform="matrix(1 0 0 1 412.8813 531.5652)" fill="#2A2A2A" font-family="'JosefinSlab-SemiBold'" font-size="18.9966">2040</text>
	</g>
</g>
<g>
	<g>
		<text transform="matrix(1 0 0 1 486.0331 531.5641)" fill="#2A2A2A" font-family="'JosefinSlab-SemiBold'" font-size="18.9966">2050</text>
	</g>
</g>
<g>
	<g>
		<text transform="matrix(1 0 0 1 552.1918 531.5641)" fill="#2A2A2A" font-family="'JosefinSlab-SemiBold'" font-size="18.9966">2060</text>
	</g>
</g>
<g>
	<g>
		<text transform="matrix(1 0 0 1 624.2845 531.5641)" fill="#2A2A2A" font-family="'JosefinSlab-SemiBold'" font-size="18.9966">2070</text>
	</g>
</g>
<g>
	<g>
		<text transform="matrix(1 0 0 1 691.1331 531.5641)" fill="#2A2A2A" font-family="'JosefinSlab-SemiBold'" font-size="18.9966">2080</text>
	</g>
</g>
<g>
	<g>
		<text transform="matrix(1 0 0 1 757.7523 531.5641)" fill="#2A2A2A" font-family="'JosefinSlab-SemiBold'" font-size="18.9966">2090</text>
	</g>
</g>
<g>
	<g>
		<text transform="matrix(1 0 0 1 826.1342 531.5641)" fill="#2A2A2A" font-family="'JosefinSlab-SemiBold'" font-size="18.9966">2100</text>
	</g>
</g>
<g>
	<path fill="#A2DADD" d="M902.4,257.2c-0.6-3.2-3-2.3-3.7-8.7c-0.6-6.4,0.5-12.7,3.7-15.5c3.2-2.7,9.6-5,15.8-2.5
		c6.1,2.5,7,5.3,7,9.3c0.2,3.8,0.6,10.9,0,13s-2,3.2-3.2,4.4c-0.9,1.3-0.6,5.6-0.3,6.7c0.3,0.9,18.1,10.2,21.7,11.3
		c3.7,1.1,6.5,5.9,7.6,14.2c1.1,8.4,4.4,37.3,4,39.7c-0.3,2.3-9.8,26.7-16.3,32.2c-1.8,6.9-5.3,41.5-5.6,45.5s-0.2,9,0.6,11.7
		c0.6,2.6-5.9,55.6-9.3,64.7c-0.9,2.8-2.4,5.2-2.6,6.9c-0.2,1.7,0.6,10.9,0.3,11.9c-0.3,0.9-15,1.1-16.4,0.9c-1.4-0.2,0-3.8,1.8-6.1
		s1.1-5,1.8-11.9c0.6-6.9,2.6-28.5,3.8-46.4c0.6-4.7,1.4-8.6,0.9-16.3c-0.6-7.7,0-36.7-0.6-40.2s-2.9-4.4-3.8-4.3
		c-0.9,0.3-0.9,1.8-1.1,6.4c-0.2,4.6,0,34.3-1.3,36.5c-1.3,2.3-2.6,4.4-2.6,6.9c0,2.6,1.8,10.1,3.7,13.8c1.8,3.8,1.3,8,0.9,11.3
		c-0.3,3.3,0,23.2-0.6,26s-2.9,8.4-6.1,7.4c-3.2-0.9-8.8-5.3-8.5-11.2s3.2-17.6,2-22.3c-0.9-4.4-10.1-16.8-11-22.9
		c-0.6-6.1-2-53.3-3.2-57.1c-0.9-3.7-2-10.1-5.6-12.7c-3.5-2.6-3.2-8-3.2-10.5c0-2.3-6.8-11.2-9.3-23.7c-0.9-6.9,6.4-38.2,7-41.8
		c0.6-3.7,4-9,9-11.9c5-2.8,16.9-6.9,19.3-8.4c2.4-1.3,2.7-1.8,3-3.2C903,260.9,902.4,257.2,902.4,257.2z"/>
	<g>
		<path fill="#FFFFFF" d="M900.4,265.6c0.2-0.8,1.8-1.1,2.6,0c0.6,1.1,6.1,7.7,7.5,8c1.3,0.2,3.8,0,5.2-1.4c1.3-1.4,3.5-4.3,4-5.3
			c0.6-1.1,1.7-1.8,2.9-1.8c1.1-0.2,0.2,13.3-0.9,16.8c-1.1,3.5-8.7,23.5-9.8,24.2c-1.1,0.6-7-18.3-7.9-21.6
			C902.7,281.1,899.8,272.4,900.4,265.6z"/>
		<path fill="#FFFFFF" d="M880.2,316.8c0.3-1.3,1.8-2,2-1.1c0.3,0.9,0.6,19.9,0,21.1c-0.6,1.1-1.3,1.8-2,0
			C879.4,334.8,879,320.5,880.2,316.8z"/>
		<path fill="#FFFFFF" d="M936.8,315.1c-1.3,1.3-2.9,4.6-3.2,6.9s-1.4,3.5,0,7.5c1.4,4.3,2.6,9.8,3.2,8.2c0.6-1.4,1.3-12.7,1.3-15.2
			s1.3-7.5,0-7.5S936.8,315.1,936.8,315.1z"/>
		<path fill="#FFFFFF" d="M934.4,349c0.6-0.6,1.4-1.8,3.5-1.1c1.8,0.6,7,5.6,6.5,6.4s-1.4,2.6-1.8,3
			C942.2,357.9,934.4,349,934.4,349z"/>
		<path fill="#FFFFFF" d="M874.1,357.1c1.7-1.1,5.5-5.2,7-4.7c1.4,0.3,1.7,2,0,3.7c-1.7,1.8-5.3,4.3-5.3,4.1
			C875.5,360,874.1,357.1,874.1,357.1z"/>
	</g>
</g>
<line fill="none" stroke="#EC1C24" stroke-width="4" stroke-miterlimit="10" x1="165.8" y1="120.5" x2="183.5" y2="120.5"/>
<g>
	<text transform="matrix(1 0 0 1 196.8184 124.7825)" fill="#2A2A2A" font-family="'JosefinSlab-SemiBold'" font-size="17.0969">Maximum (NOAA)</text>
</g>
<line fill="none" stroke="#FDBB11" stroke-width="4" stroke-miterlimit="10" x1="360.4" y1="120.5" x2="378.1" y2="120.5"/>
<g>
	<text transform="matrix(1 0 0 1 391.4077 124.7825)" fill="#2A2A2A" font-family="'JosefinSlab-SemiBold'" font-size="17.0969">Maximum (USACE)</text>
</g>
<line fill="none" stroke="#015468" stroke-width="4" stroke-miterlimit="10" x1="568.5" y1="118.4" x2="586.1" y2="118.4"/>
<text transform="matrix(1 0 0 1 600.4287 122.6453)" fill="#2A2A2A" font-family="'JosefinSlab-SemiBold'" font-size="17.0969">Minimum (NOAA &amp; USACE)</text>
<g>
	<g>
		<text transform="matrix(1 0 0 1 838.0814 187.8343)" fill="#2A2A2A" font-family="'JosefinSlab-Bold'" font-size="18.9966">6.81</text>
	</g>
</g>
<g>
	<g>
		<text transform="matrix(1 0 0 1 835.6624 278.2351)" fill="#2A2A2A" font-family="'JosefinSlab-Bold'" font-size="18.9966">5.17</text>
	</g>
</g>
<g>
	<text transform="matrix(1 0 0 1 41.2367 513.485)" fill="#2A2A2A" font-family="'JosefinSlab-SemiBold'" font-size="18.9966">0</text>
</g>
<g>
	<text transform="matrix(1 0 0 1 41.2367 463.0037)" fill="#2A2A2A" font-family="'JosefinSlab-SemiBold'" font-size="18.9966">1</text>
</g>
<g>
	<text transform="matrix(1 0 0 1 41.2367 412.5232)" fill="#2A2A2A" font-family="'JosefinSlab-SemiBold'" font-size="18.9966">2</text>
</g>
<g>
	<text transform="matrix(1 0 0 1 41.2367 362.0417)" fill="#2A2A2A" font-family="'JosefinSlab-SemiBold'" font-size="18.9966">3</text>
</g>
<g>
	<text transform="matrix(1 0 0 1 41.2367 311.5603)" fill="#2A2A2A" font-family="'JosefinSlab-SemiBold'" font-size="18.9966">4</text>
</g>
<g>
	<text transform="matrix(1 0 0 1 41.2367 261.0789)" fill="#2A2A2A" font-family="'JosefinSlab-SemiBold'" font-size="18.9966">5</text>
</g>
<g>
	<text transform="matrix(1 0 0 1 41.2367 210.598)" fill="#2A2A2A" font-family="'JosefinSlab-SemiBold'" font-size="18.9966">6</text>
</g>
<line fill="none" stroke="#2A2A2A" stroke-width="1.2" stroke-miterlimit="10" stroke-dasharray="1.9991,1.9991" x1="67.4" y1="503.8" x2="928.3" y2="503.8"/>
<line fill="none" stroke="#EC1C24" stroke-width="4" stroke-linecap="square" stroke-miterlimit="10" x1="158" y1="497.8" x2="88.8" y2="503.3"/>
<line fill="none" stroke="#EC1C24" stroke-width="4" stroke-linecap="square" stroke-miterlimit="10" x1="227.1" y1="487.2" x2="158" y2="497.8"/>
<line fill="none" stroke="#EC1C24" stroke-width="4" stroke-linecap="square" stroke-miterlimit="10" x1="296.3" y1="471.5" x2="227.1" y2="487.2"/>
<line fill="none" stroke="#EC1C24" stroke-width="4" stroke-linecap="square" stroke-miterlimit="10" x1="365.4" y1="450.3" x2="296.3" y2="471.5"/>
<line fill="none" stroke="#EC1C24" stroke-width="4" stroke-linecap="square" stroke-miterlimit="10" x1="434.6" y1="424.6" x2="365.4" y2="450.3"/>
<line fill="none" stroke="#EC1C24" stroke-width="4" stroke-linecap="square" stroke-miterlimit="10" x1="503.8" y1="393.3" x2="434.6" y2="424.6"/>
<line fill="none" stroke="#EC1C24" stroke-width="4" stroke-linecap="square" stroke-miterlimit="10" x1="572.9" y1="356.4" x2="503.8" y2="393.3"/>
<line fill="none" stroke="#EC1C24" stroke-width="4" stroke-linecap="square" stroke-miterlimit="10" x1="642.1" y1="315" x2="572.9" y2="356.4"/>
<line fill="none" stroke="#2A2A2A" stroke-width="1.2" stroke-miterlimit="10" stroke-dasharray="1.9991,1.9991" x1="67.4" y1="226.5" x2="928.3" y2="226.5"/>
<line fill="none" stroke="#EC1C24" stroke-width="4" stroke-linecap="square" stroke-miterlimit="10" x1="711.3" y1="268.1" x2="642.1" y2="315"/>
<line fill="none" stroke="#EC1C24" stroke-width="4" stroke-linecap="square" stroke-miterlimit="10" x1="780.4" y1="216.6" x2="711.3" y2="268.1"/>
<line fill="none" stroke="#EC1C24" stroke-width="4" stroke-linecap="square" stroke-miterlimit="10" x1="849.6" y1="159" x2="780.4" y2="216.6"/>
<circle fill="#FFFFFF" stroke="#EC1C24" stroke-width="2" stroke-miterlimit="10" cx="849.5" cy="158" r="6.3"/>
<line fill="none" stroke="#FDBB11" stroke-width="4" stroke-miterlimit="10" x1="158" y1="498.3" x2="88.8" y2="503.3"/>
<line fill="none" stroke="#FDBB11" stroke-width="4" stroke-miterlimit="10" x1="227.1" y1="489.7" x2="158" y2="498.3"/>
<line fill="none" stroke="#FDBB11" stroke-width="4" stroke-miterlimit="10" x1="296.3" y1="477.1" x2="227.1" y2="489.7"/>
<line fill="none" stroke="#FDBB11" stroke-width="4" stroke-miterlimit="10" x1="365.4" y1="460.9" x2="296.3" y2="477.1"/>
<line fill="none" stroke="#FDBB11" stroke-width="4" stroke-miterlimit="10" x1="434.6" y1="440.7" x2="365.4" y2="460.9"/>
<line fill="none" stroke="#FDBB11" stroke-width="4" stroke-miterlimit="10" x1="503.8" y1="417" x2="434.6" y2="440.7"/>
<line fill="none" stroke="#FDBB11" stroke-width="4" stroke-miterlimit="10" x1="572.9" y1="389.2" x2="503.8" y2="417"/>
<line fill="none" stroke="#FDBB11" stroke-width="4" stroke-miterlimit="10" x1="642.1" y1="357.9" x2="572.9" y2="389.2"/>
<line fill="none" stroke="#FDBB11" stroke-width="4" stroke-miterlimit="10" x1="711.3" y1="323.1" x2="642.1" y2="357.9"/>
<line fill="none" stroke="#FDBB11" stroke-width="4" stroke-miterlimit="10" x1="780.4" y1="284.2" x2="711.3" y2="323.1"/>
<line fill="none" stroke="#FDBB11" stroke-width="4" stroke-miterlimit="10" x1="849.6" y1="241.8" x2="780.4" y2="284.2"/>
<circle fill="#FFFFFF" stroke="#FDBB11" stroke-width="2" stroke-miterlimit="10" cx="848.6" cy="241.7" r="6.3"/>
<line fill="none" stroke="#DFDFDF" stroke-width="2" stroke-linecap="round" stroke-miterlimit="10" x1="158" y1="499.8" x2="88.8" y2="503.8"/>
<line fill="none" stroke="#DFDFDF" stroke-width="2" stroke-linecap="round" stroke-miterlimit="10" x1="227.1" y1="495.7" x2="158" y2="499.8"/>
<line fill="none" stroke="#DFDFDF" stroke-width="2" stroke-linecap="round" stroke-miterlimit="10" x1="296.3" y1="491.7" x2="227.1" y2="495.7"/>
<line fill="none" stroke="#DFDFDF" stroke-width="2" stroke-linecap="round" stroke-miterlimit="10" x1="365.4" y1="487.7" x2="296.3" y2="491.7"/>
<line fill="none" stroke="#DFDFDF" stroke-width="2" stroke-linecap="round" stroke-miterlimit="10" x1="434.6" y1="483.6" x2="365.4" y2="487.7"/>
<line fill="none" stroke="#DFDFDF" stroke-width="2" stroke-linecap="round" stroke-miterlimit="10" x1="503.8" y1="479.6" x2="434.6" y2="483.6"/>
<line fill="none" stroke="#DFDFDF" stroke-width="2" stroke-linecap="round" stroke-miterlimit="10" x1="572.9" y1="476" x2="503.8" y2="479.6"/>
<line fill="none" stroke="#DFDFDF" stroke-width="2" stroke-linecap="round" stroke-miterlimit="10" x1="642.1" y1="472" x2="572.9" y2="476"/>
<line fill="none" stroke="#DFDFDF" stroke-width="2" stroke-linecap="round" stroke-miterlimit="10" x1="711.3" y1="468" x2="642.1" y2="472"/>
<line fill="none" stroke="#DFDFDF" stroke-width="2" stroke-linecap="round" stroke-miterlimit="10" x1="780.4" y1="463.9" x2="711.3" y2="468"/>
<line fill="none" stroke="#DFDFDF" stroke-width="2" stroke-linecap="round" stroke-miterlimit="10" x1="849.6" y1="459.9" x2="780.4" y2="463.9"/>
<line fill="none" stroke="#015468" stroke-width="4" stroke-linecap="square" stroke-miterlimit="10" x1="158" y1="499.8" x2="88.8" y2="503.8"/>
<line fill="none" stroke="#015468" stroke-width="4" stroke-linecap="square" stroke-miterlimit="10" x1="227.1" y1="495.7" x2="158" y2="499.8"/>
<line fill="none" stroke="#015468" stroke-width="4" stroke-linecap="square" stroke-miterlimit="10" x1="296.3" y1="491.7" x2="227.1" y2="495.7"/>
<line fill="none" stroke="#015468" stroke-width="4" stroke-linecap="square" stroke-miterlimit="10" x1="365.4" y1="487.7" x2="296.3" y2="491.7"/>
<line fill="none" stroke="#015468" stroke-width="4" stroke-linecap="square" stroke-miterlimit="10" x1="434.6" y1="483.6" x2="365.4" y2="487.7"/>
<line fill="none" stroke="#015468" stroke-width="4" stroke-linecap="square" stroke-miterlimit="10" x1="503.8" y1="479.6" x2="434.6" y2="483.6"/>
<line fill="none" stroke="#015468" stroke-width="4" stroke-linecap="square" stroke-miterlimit="10" x1="572.9" y1="476" x2="503.8" y2="479.6"/>
<line fill="none" stroke="#015468" stroke-width="4" stroke-linecap="square" stroke-miterlimit="10" x1="642.1" y1="472" x2="572.9" y2="476"/>
<line fill="none" stroke="#015468" stroke-width="4" stroke-linecap="square" stroke-miterlimit="10" x1="711.3" y1="468" x2="642.1" y2="472"/>
<line fill="none" stroke="#015468" stroke-width="4" stroke-linecap="square" stroke-miterlimit="10" x1="780.4" y1="463.9" x2="711.3" y2="468"/>
<line fill="none" stroke="#015468" stroke-width="4" stroke-linecap="square" stroke-miterlimit="10" x1="849.6" y1="459.9" x2="780.4" y2="463.9"/>
</svg>
