<?xml version="1.0" encoding="utf-8"?>
<!-- Generator: Adobe Illustrator 18.1.1, SVG Export Plug-In . SVG Version: 6.00 Build 0)  -->
<!DOCTYPE svg PUBLIC "-//W3C//DTD SVG 1.1//EN" "http://www.w3.org/Graphics/SVG/1.1/DTD/svg11.dtd">
<svg version="1.1" id="Layer_1" xmlns="http://www.w3.org/2000/svg" xmlns:xlink="http://www.w3.org/1999/xlink" x="0px" y="0px"
	 viewBox="0 115 960 445" enable-background="new 0 115 960 445" xml:space="preserve">
<text transform="matrix(4.489659e-11 -1 1 4.489659e-11 19.9174 494.4033)" fill="#2A2A2A" font-family="'JosefinSlab-SemiBold'" font-size="18.9966">Sea Level Rise in Feet (LMSL)</text>
<g>
	<g>
		<text transform="matrix(1 0 0 1 68.2386 551.0298)" fill="#2A2A2A" font-family="'JosefinSlab-SemiBold'" font-size="18.9966">1990</text>
	</g>
</g>
<g>
	<g>
		<text transform="matrix(1 0 0 1 135.705 550.1089)" fill="#2A2A2A" font-family="'JosefinSlab-SemiBold'" font-size="18.9966">2000</text>
	</g>
</g>
<g>
	<g>
		<text transform="matrix(1 0 0 1 209.3451 549.19)" fill="#2A2A2A" font-family="'JosefinSlab-SemiBold'" font-size="18.9966">2010</text>
	</g>
</g>
<g>
	<g>
		<text transform="matrix(1 0 0 1 273.7552 550.1099)" fill="#2A2A2A" font-family="'JosefinSlab-SemiBold'" font-size="18.9966">2020</text>
	</g>
</g>
<g>
	<g>
		<text transform="matrix(1 0 0 1 340.8227 550.1099)" fill="#2A2A2A" font-family="'JosefinSlab-SemiBold'" font-size="18.9966">2030</text>
	</g>
</g>
<g>
	<g>
		<text transform="matrix(1 0 0 1 412.8813 551.0308)" fill="#2A2A2A" font-family="'JosefinSlab-SemiBold'" font-size="18.9966">2040</text>
	</g>
</g>
<g>
	<g>
		<text transform="matrix(1 0 0 1 486.0331 551.0298)" fill="#2A2A2A" font-family="'JosefinSlab-SemiBold'" font-size="18.9966">2050</text>
	</g>
</g>
<g>
	<g>
		<text transform="matrix(1 0 0 1 552.1918 551.0298)" fill="#2A2A2A" font-family="'JosefinSlab-SemiBold'" font-size="18.9966">2060</text>
	</g>
</g>
<g>
	<g>
		<text transform="matrix(1 0 0 1 624.2845 551.0298)" fill="#2A2A2A" font-family="'JosefinSlab-SemiBold'" font-size="18.9966">2070</text>
	</g>
</g>
<g>
	<g>
		<text transform="matrix(1 0 0 1 691.1331 551.0298)" fill="#2A2A2A" font-family="'JosefinSlab-SemiBold'" font-size="18.9966">2080</text>
	</g>
</g>
<g>
	<g>
		<text transform="matrix(1 0 0 1 757.7523 551.0298)" fill="#2A2A2A" font-family="'JosefinSlab-SemiBold'" font-size="18.9966">2090</text>
	</g>
</g>
<g>
	<g>
		<text transform="matrix(1 0 0 1 826.1342 551.0298)" fill="#2A2A2A" font-family="'JosefinSlab-SemiBold'" font-size="18.9966">2100</text>
	</g>
</g>
<g>
	<path fill="#A2DADD" d="M902.4,276.7c-0.6-3.2-3-2.3-3.7-8.7c-0.6-6.4,0.5-12.7,3.7-15.5c3.2-2.7,9.6-5,15.8-2.5
		c6.1,2.5,7,5.3,7,9.3c0.2,3.8,0.6,10.9,0,13c-0.6,2.1-2,3.2-3.2,4.4c-0.9,1.3-0.6,5.6-0.3,6.7c0.3,0.9,18.1,10.2,21.7,11.3
		c3.7,1.1,6.5,5.9,7.6,14.2c1.1,8.4,4.4,37.3,4,39.7c-0.3,2.3-9.8,26.7-16.3,32.2c-1.8,6.9-5.3,41.5-5.6,45.5s-0.2,9,0.6,11.7
		c0.6,2.6-5.9,55.6-9.3,64.7c-0.9,2.8-2.4,5.2-2.6,6.9s0.6,10.9,0.3,11.9c-0.3,0.9-15,1.1-16.4,0.9c-1.4-0.2,0-3.8,1.8-6.1
		s1.1-5,1.8-11.9c0.6-6.9,2.6-28.5,3.8-46.4c0.6-4.7,1.4-8.6,0.9-16.3c-0.6-7.7,0-36.7-0.6-40.2s-2.9-4.4-3.8-4.3
		c-0.9,0.3-0.9,1.8-1.1,6.4c-0.2,4.6,0,34.3-1.3,36.5c-1.3,2.3-2.6,4.4-2.6,6.9c0,2.6,1.8,10.1,3.7,13.8c1.8,3.8,1.3,8,0.9,11.3
		c-0.3,3.3,0,23.2-0.6,26s-2.9,8.4-6.1,7.4c-3.2-0.9-8.8-5.3-8.5-11.2s3.2-17.6,2-22.3c-0.9-4.4-10.1-16.8-11-22.9
		c-0.6-6.1-2-53.3-3.2-57.1c-0.9-3.7-2-10.1-5.6-12.7c-3.5-2.6-3.2-8-3.2-10.5c0-2.3-6.8-11.2-9.3-23.7c-0.9-6.9,6.4-38.2,7-41.8
		c0.6-3.7,4-9,9-11.9c5-2.8,16.9-6.9,19.3-8.4c2.4-1.3,2.7-1.8,3-3.2C903,280.4,902.4,276.7,902.4,276.7z"/>
	<g>
		<path fill="#FFFFFF" d="M900.4,285.1c0.2-0.8,1.8-1.1,2.6,0c0.6,1.1,6.1,7.7,7.5,8c1.3,0.2,3.8,0,5.2-1.4c1.3-1.4,3.5-4.3,4-5.3
			c0.6-1.1,1.7-1.8,2.9-1.8c1.1-0.2,0.2,13.3-0.9,16.8c-1.1,3.5-8.7,23.5-9.8,24.2c-1.1,0.6-7-18.3-7.9-21.6
			C902.7,300.6,899.8,291.9,900.4,285.1z"/>
		<path fill="#FFFFFF" d="M880.2,336.3c0.3-1.3,1.8-2,2-1.1c0.3,0.9,0.6,19.9,0,21.1c-0.6,1.1-1.3,1.8-2,0
			C879.4,354.3,879,340,880.2,336.3z"/>
		<path fill="#FFFFFF" d="M936.8,334.6c-1.3,1.3-2.9,4.6-3.2,6.9s-1.4,3.5,0,7.5c1.4,4.3,2.6,9.8,3.2,8.2c0.6-1.4,1.3-12.7,1.3-15.2
			s1.3-7.5,0-7.5S936.8,334.6,936.8,334.6z"/>
		<path fill="#FFFFFF" d="M934.4,368.5c0.6-0.6,1.4-1.8,3.5-1.1c1.8,0.6,7,5.6,6.5,6.4s-1.4,2.6-1.8,3
			C942.2,377.4,934.4,368.5,934.4,368.5z"/>
		<path fill="#FFFFFF" d="M874.1,376.6c1.7-1.1,5.5-5.2,7-4.7c1.4,0.3,1.7,2,0,3.7c-1.7,1.8-5.3,4.3-5.3,4.1
			C875.5,379.5,874.1,376.6,874.1,376.6z"/>
	</g>
</g>
<line fill="none" stroke="#EC1C24" stroke-width="4" stroke-miterlimit="10" x1="165.8" y1="140" x2="183.5" y2="140"/>
<g>
	<text transform="matrix(1 0 0 1 196.8184 144.2481)" fill="#2A2A2A" font-family="'JosefinSlab-SemiBold'" font-size="17.0969">Maximum (NOAA)</text>
</g>
<line fill="none" stroke="#FDBB11" stroke-width="4" stroke-miterlimit="10" x1="360.4" y1="140" x2="378.1" y2="140"/>
<g>
	<text transform="matrix(1 0 0 1 391.4077 144.2481)" fill="#2A2A2A" font-family="'JosefinSlab-SemiBold'" font-size="17.0969">Maximum (USACE)</text>
</g>
<line fill="none" stroke="#015468" stroke-width="4" stroke-miterlimit="10" x1="568.5" y1="137.9" x2="586.1" y2="137.9"/>
<text transform="matrix(1 0 0 1 600.4287 142.1109)" fill="#2A2A2A" font-family="'JosefinSlab-SemiBold'" font-size="17.0969">Minimum (NOAA &amp; USACE)</text>
<g>
	<g>
		<text transform="matrix(1 0 0 1 838.0814 207.2999)" fill="#2A2A2A" font-family="'JosefinSlab-Bold'" font-size="18.9966">6.81</text>
	</g>
</g>
<g>
	<g>
		<text transform="matrix(1 0 0 1 835.6624 297.7007)" fill="#2A2A2A" font-family="'JosefinSlab-Bold'" font-size="18.9966">5.17</text>
	</g>
</g>
<g>
	<text transform="matrix(1 0 0 1 41.2367 532.9507)" fill="#2A2A2A" font-family="'JosefinSlab-SemiBold'" font-size="18.9966">0</text>
</g>
<g>
	<text transform="matrix(1 0 0 1 41.2367 482.4693)" fill="#2A2A2A" font-family="'JosefinSlab-SemiBold'" font-size="18.9966">1</text>
</g>
<g>
	<text transform="matrix(1 0 0 1 41.2367 431.9888)" fill="#2A2A2A" font-family="'JosefinSlab-SemiBold'" font-size="18.9966">2</text>
</g>
<g>
	<text transform="matrix(1 0 0 1 41.2367 381.5074)" fill="#2A2A2A" font-family="'JosefinSlab-SemiBold'" font-size="18.9966">3</text>
</g>
<g>
	<text transform="matrix(1 0 0 1 41.2367 331.0259)" fill="#2A2A2A" font-family="'JosefinSlab-SemiBold'" font-size="18.9966">4</text>
</g>
<g>
	<text transform="matrix(1 0 0 1 41.2367 280.5445)" fill="#2A2A2A" font-family="'JosefinSlab-SemiBold'" font-size="18.9966">5</text>
</g>
<g>
	<text transform="matrix(1 0 0 1 41.2367 230.0636)" fill="#2A2A2A" font-family="'JosefinSlab-SemiBold'" font-size="18.9966">6</text>
</g>
<line fill="none" stroke="#2A2A2A" stroke-width="1.2" stroke-miterlimit="10" stroke-dasharray="1.9991,1.9991" x1="67.4" y1="523.3" x2="928.3" y2="523.3"/>
<line fill="none" stroke="#EC1C24" stroke-width="4" stroke-linecap="square" stroke-miterlimit="10" x1="158" y1="517.3" x2="88.8" y2="522.8"/>
<line fill="none" stroke="#EC1C24" stroke-width="4" stroke-linecap="square" stroke-miterlimit="10" x1="227.1" y1="506.7" x2="158" y2="517.3"/>
<line fill="none" stroke="#EC1C24" stroke-width="4" stroke-linecap="square" stroke-miterlimit="10" x1="296.3" y1="491" x2="227.1" y2="506.7"/>
<line fill="none" stroke="#EC1C24" stroke-width="4" stroke-linecap="square" stroke-miterlimit="10" x1="365.4" y1="469.8" x2="296.3" y2="491"/>
<line fill="none" stroke="#EC1C24" stroke-width="4" stroke-linecap="square" stroke-miterlimit="10" x1="434.6" y1="444.1" x2="365.4" y2="469.8"/>
<line fill="none" stroke="#EC1C24" stroke-width="4" stroke-linecap="square" stroke-miterlimit="10" x1="503.8" y1="412.8" x2="434.6" y2="444.1"/>
<line fill="none" stroke="#EC1C24" stroke-width="4" stroke-linecap="square" stroke-miterlimit="10" x1="572.9" y1="375.9" x2="503.8" y2="412.8"/>
<line fill="none" stroke="#EC1C24" stroke-width="4" stroke-linecap="square" stroke-miterlimit="10" x1="642.1" y1="334.5" x2="572.9" y2="375.9"/>
<line fill="none" stroke="#2A2A2A" stroke-width="1.2" stroke-miterlimit="10" stroke-dasharray="1.9991,1.9991" x1="67.4" y1="246" x2="928.3" y2="246"/>
<line fill="none" stroke="#EC1C24" stroke-width="4" stroke-linecap="square" stroke-miterlimit="10" x1="711.3" y1="287.6" x2="642.1" y2="334.5"/>
<line fill="none" stroke="#EC1C24" stroke-width="4" stroke-linecap="square" stroke-miterlimit="10" x1="780.4" y1="236.1" x2="711.3" y2="287.6"/>
<line fill="none" stroke="#EC1C24" stroke-width="4" stroke-linecap="square" stroke-miterlimit="10" x1="849.6" y1="178.5" x2="780.4" y2="236.1"/>
<circle fill="#FFFFFF" stroke="#EC1C24" stroke-width="2" stroke-miterlimit="10" cx="849.5" cy="177.5" r="6.3"/>
<line fill="none" stroke="#FDBB11" stroke-width="4" stroke-miterlimit="10" x1="158" y1="517.8" x2="88.8" y2="522.8"/>
<line fill="none" stroke="#FDBB11" stroke-width="4" stroke-miterlimit="10" x1="227.1" y1="509.2" x2="158" y2="517.8"/>
<line fill="none" stroke="#FDBB11" stroke-width="4" stroke-miterlimit="10" x1="296.3" y1="496.6" x2="227.1" y2="509.2"/>
<line fill="none" stroke="#FDBB11" stroke-width="4" stroke-miterlimit="10" x1="365.4" y1="480.4" x2="296.3" y2="496.6"/>
<line fill="none" stroke="#FDBB11" stroke-width="4" stroke-miterlimit="10" x1="434.6" y1="460.2" x2="365.4" y2="480.4"/>
<line fill="none" stroke="#FDBB11" stroke-width="4" stroke-miterlimit="10" x1="503.8" y1="436.5" x2="434.6" y2="460.2"/>
<line fill="none" stroke="#FDBB11" stroke-width="4" stroke-miterlimit="10" x1="572.9" y1="408.7" x2="503.8" y2="436.5"/>
<line fill="none" stroke="#FDBB11" stroke-width="4" stroke-miterlimit="10" x1="642.1" y1="377.4" x2="572.9" y2="408.7"/>
<line fill="none" stroke="#FDBB11" stroke-width="4" stroke-miterlimit="10" x1="711.3" y1="342.6" x2="642.1" y2="377.4"/>
<line fill="none" stroke="#FDBB11" stroke-width="4" stroke-miterlimit="10" x1="780.4" y1="303.7" x2="711.3" y2="342.6"/>
<line fill="none" stroke="#FDBB11" stroke-width="4" stroke-miterlimit="10" x1="849.6" y1="261.3" x2="780.4" y2="303.7"/>
<circle fill="#FFFFFF" stroke="#FDBB11" stroke-width="2" stroke-miterlimit="10" cx="848.6" cy="261.2" r="6.3"/>
<line fill="none" stroke="#DFDFDF" stroke-width="2" stroke-linecap="round" stroke-miterlimit="10" x1="158" y1="519.3" x2="88.8" y2="523.3"/>
<line fill="none" stroke="#DFDFDF" stroke-width="2" stroke-linecap="round" stroke-miterlimit="10" x1="227.1" y1="515.2" x2="158" y2="519.3"/>
<line fill="none" stroke="#DFDFDF" stroke-width="2" stroke-linecap="round" stroke-miterlimit="10" x1="296.3" y1="511.2" x2="227.1" y2="515.2"/>
<line fill="none" stroke="#DFDFDF" stroke-width="2" stroke-linecap="round" stroke-miterlimit="10" x1="365.4" y1="507.2" x2="296.3" y2="511.2"/>
<line fill="none" stroke="#DFDFDF" stroke-width="2" stroke-linecap="round" stroke-miterlimit="10" x1="434.6" y1="503.1" x2="365.4" y2="507.2"/>
<line fill="none" stroke="#DFDFDF" stroke-width="2" stroke-linecap="round" stroke-miterlimit="10" x1="503.8" y1="499.1" x2="434.6" y2="503.1"/>
<line fill="none" stroke="#DFDFDF" stroke-width="2" stroke-linecap="round" stroke-miterlimit="10" x1="572.9" y1="495.5" x2="503.8" y2="499.1"/>
<line fill="none" stroke="#DFDFDF" stroke-width="2" stroke-linecap="round" stroke-miterlimit="10" x1="642.1" y1="491.5" x2="572.9" y2="495.5"/>
<line fill="none" stroke="#DFDFDF" stroke-width="2" stroke-linecap="round" stroke-miterlimit="10" x1="711.3" y1="487.5" x2="642.1" y2="491.5"/>
<line fill="none" stroke="#DFDFDF" stroke-width="2" stroke-linecap="round" stroke-miterlimit="10" x1="780.4" y1="483.4" x2="711.3" y2="487.5"/>
<line fill="none" stroke="#DFDFDF" stroke-width="2" stroke-linecap="round" stroke-miterlimit="10" x1="849.6" y1="479.4" x2="780.4" y2="483.4"/>
<line fill="none" stroke="#015468" stroke-width="4" stroke-linecap="square" stroke-miterlimit="10" x1="158" y1="519.3" x2="88.8" y2="523.3"/>
<line fill="none" stroke="#015468" stroke-width="4" stroke-linecap="square" stroke-miterlimit="10" x1="227.1" y1="515.2" x2="158" y2="519.3"/>
<line fill="none" stroke="#015468" stroke-width="4" stroke-linecap="square" stroke-miterlimit="10" x1="296.3" y1="511.2" x2="227.1" y2="515.2"/>
<line fill="none" stroke="#015468" stroke-width="4" stroke-linecap="square" stroke-miterlimit="10" x1="365.4" y1="507.2" x2="296.3" y2="511.2"/>
<line fill="none" stroke="#015468" stroke-width="4" stroke-linecap="square" stroke-miterlimit="10" x1="434.6" y1="503.1" x2="365.4" y2="507.2"/>
<line fill="none" stroke="#015468" stroke-width="4" stroke-linecap="square" stroke-miterlimit="10" x1="503.8" y1="499.1" x2="434.6" y2="503.1"/>
<line fill="none" stroke="#015468" stroke-width="4" stroke-linecap="square" stroke-miterlimit="10" x1="572.9" y1="495.5" x2="503.8" y2="499.1"/>
<line fill="none" stroke="#015468" stroke-width="4" stroke-linecap="square" stroke-miterlimit="10" x1="642.1" y1="491.5" x2="572.9" y2="495.5"/>
<line fill="none" stroke="#015468" stroke-width="4" stroke-linecap="square" stroke-miterlimit="10" x1="711.3" y1="487.5" x2="642.1" y2="491.5"/>
<line fill="none" stroke="#015468" stroke-width="4" stroke-linecap="square" stroke-miterlimit="10" x1="780.4" y1="483.4" x2="711.3" y2="487.5"/>
<line fill="none" stroke="#015468" stroke-width="4" stroke-linecap="square" stroke-miterlimit="10" x1="849.6" y1="479.4" x2="780.4" y2="483.4"/>
<path fill="none" stroke="#2A2A2A" stroke-width="1.2" stroke-miterlimit="10" stroke-dasharray="1.9991,1.9991" d="M306.8,469.8
	H80.2c-6.6,0-12-5.4-12-12v-77.3c0-6.6,5.4-12,12-12h226.6c6.6,0,12,5.4,12,12v77.3C318.8,464.4,313.4,469.8,306.8,469.8z"/>
<polygon fill="none" stroke="#2A2A2A" stroke-width="1.2" stroke-miterlimit="10" stroke-dasharray="1.9991,1.9991" points="
	80.2,469.8 88.8,511.2 117.8,470.3 "/>
<text transform="matrix(1 0 0 1 80.2387 399.1948)" font-family="'JosefinSlab-SemiBold'" font-size="20.6452">The sea level rise slightly </text>
<text transform="matrix(1 0 0 1 80.2387 423.9948)" font-family="'JosefinSlab-SemiBold'" font-size="20.6452">decreased 0.01-0.02 feet </text>
<text transform="matrix(1 0 0 1 80.2387 448.6948)" font-family="'JosefinSlab-SemiBold'" font-size="20.6452">in 1990.</text>
<polygon fill="#FFFFFF" points="105.4,482.5 86.2,482.5 76.9,460.2 123.1,460.2 "/>
</svg>
