<?xml version="1.0" encoding="utf-8"?>
<!-- Generator: Adobe Illustrator 18.1.1, SVG Export Plug-In . SVG Version: 6.00 Build 0)  -->
<!DOCTYPE svg PUBLIC "-//W3C//DTD SVG 1.1//EN" "http://www.w3.org/Graphics/SVG/1.1/DTD/svg11.dtd">
<svg version="1.1" id="Layer_1" xmlns="http://www.w3.org/2000/svg" xmlns:xlink="http://www.w3.org/1999/xlink" x="0px" y="0px"
	 viewBox="0 98 930 449" enable-background="new 0 98 930 449" xml:space="preserve">
<g>
	<g>
		<text transform="matrix(1 0 0 1 49.6414 495.0919)" fill="#2A2A2A" font-family="'JosefinSlab-SemiBold'" font-size="20">-1</text>
		<text transform="matrix(1 0 0 1 54.5349 447.8127)" fill="#2A2A2A" font-family="'JosefinSlab-SemiBold'" font-size="20">0</text>
		<text transform="matrix(1 0 0 1 54.5349 353.254)" fill="#2A2A2A" font-family="'JosefinSlab-SemiBold'" font-size="20">2</text>
		<text transform="matrix(1 0 0 1 54.5349 258.6963)" fill="#2A2A2A" font-family="'JosefinSlab-SemiBold'" font-size="20">4</text>
		
			<text transform="matrix(4.489659e-11 -1 1 4.489659e-11 33.6821 465.5996)" fill="#2A2A2A" font-family="'JosefinSlab-SemiBold'" font-size="20">Sea Level Rise Change (NAVD88)</text>
		<text transform="matrix(1 0 0 1 54.5349 164.1377)" fill="#2A2A2A" font-family="'JosefinSlab-SemiBold'" font-size="20">6</text>
	</g>
</g>
<g>
	<g>
		<g>
			<g>
				<line fill="none" stroke="#FFFFFF" stroke-miterlimit="10" x1="75.6" y1="444.9" x2="76.5" y2="444.9"/>
				
					<line fill="none" stroke="#2A2A2A" stroke-width="1.2" stroke-miterlimit="10" stroke-dasharray="1.9991,1.9991" x1="78.4" y1="445.2" x2="896" y2="445.3"/>
				<line fill="none" stroke="#FFFFFF" stroke-miterlimit="10" x1="896.4" y1="444.9" x2="897.4" y2="444.9"/>
				<line fill="none" stroke="#2A2A2A" stroke-miterlimit="10" stroke-dasharray="2,2" x1="78.4" y1="491.5" x2="896" y2="491.6"/>
			</g>
		</g>
		<g>
			<g>
				<line fill="none" stroke="#FFFFFF" stroke-miterlimit="10" x1="76.5" y1="182.4" x2="77.6" y2="182.4"/>
				
					<line fill="none" stroke="#2A2A2A" stroke-miterlimit="10" stroke-dasharray="2,2" x1="79.5" y1="182.4" x2="895.5" y2="182.4"/>
				<line fill="none" stroke="#FFFFFF" stroke-miterlimit="10" x1="896.4" y1="182.4" x2="897.4" y2="182.4"/>
			</g>
		</g>
	</g>
</g>
<g>
	<g>
		<line fill="none" stroke="#EC1C24" stroke-width="4" stroke-miterlimit="10" x1="123.7" y1="489.1" x2="91.3" y2="491.1"/>
		<line fill="none" stroke="#EC1C24" stroke-width="4" stroke-miterlimit="10" x1="156" y1="486.3" x2="123.7" y2="489.1"/>
		<line fill="none" stroke="#EC1C24" stroke-width="4" stroke-miterlimit="10" x1="188.4" y1="481.6" x2="156" y2="486.3"/>
		
			<line fill="none" stroke="#EC1C24" stroke-width="4" stroke-linecap="square" stroke-miterlimit="10" x1="220.8" y1="475.9" x2="188.4" y2="481.6"/>
		
			<line fill="none" stroke="#EC1C24" stroke-width="4" stroke-linecap="square" stroke-miterlimit="10" x1="253.1" y1="469.3" x2="220.8" y2="475.9"/>
		
			<line fill="none" stroke="#EC1C24" stroke-width="4" stroke-linecap="square" stroke-miterlimit="10" x1="285.5" y1="461.2" x2="253.1" y2="469.3"/>
		
			<line fill="none" stroke="#EC1C24" stroke-width="4" stroke-linecap="square" stroke-miterlimit="10" x1="317.8" y1="451.8" x2="285.5" y2="461.2"/>
		
			<line fill="none" stroke="#EC1C24" stroke-width="4" stroke-linecap="square" stroke-miterlimit="10" x1="350.2" y1="441.4" x2="317.8" y2="451.8"/>
		
			<line fill="none" stroke="#EC1C24" stroke-width="4" stroke-linecap="square" stroke-miterlimit="10" x1="382.6" y1="430.1" x2="350.2" y2="441.4"/>
		
			<line fill="none" stroke="#EC1C24" stroke-width="4" stroke-linecap="square" stroke-miterlimit="10" x1="415" y1="417.4" x2="382.6" y2="430.1"/>
		
			<line fill="none" stroke="#EC1C24" stroke-width="4" stroke-linecap="square" stroke-miterlimit="10" x1="447.3" y1="403.1" x2="415" y2="417.4"/>
		
			<line fill="none" stroke="#EC1C24" stroke-width="4" stroke-linecap="square" stroke-miterlimit="10" x1="479.7" y1="387.9" x2="447.3" y2="403.1"/>
		
			<line fill="none" stroke="#EC1C24" stroke-width="4" stroke-linecap="square" stroke-miterlimit="10" x1="512.1" y1="371.5" x2="479.7" y2="387.9"/>
		
			<line fill="none" stroke="#EC1C24" stroke-width="4" stroke-linecap="square" stroke-miterlimit="10" x1="544.4" y1="353.4" x2="512.1" y2="371.5"/>
		
			<line fill="none" stroke="#EC1C24" stroke-width="4" stroke-linecap="square" stroke-miterlimit="10" x1="576.9" y1="334.6" x2="544.4" y2="353.4"/>
		
			<line fill="none" stroke="#EC1C24" stroke-width="4" stroke-linecap="square" stroke-miterlimit="10" x1="609.2" y1="314.7" x2="576.9" y2="334.6"/>
		
			<line fill="none" stroke="#EC1C24" stroke-width="4" stroke-linecap="square" stroke-miterlimit="10" x1="641.5" y1="293.5" x2="609.2" y2="314.7"/>
		
			<line fill="none" stroke="#EC1C24" stroke-width="4" stroke-linecap="square" stroke-miterlimit="10" x1="673.8" y1="270.8" x2="641.5" y2="293.5"/>
		
			<line fill="none" stroke="#EC1C24" stroke-width="4" stroke-linecap="square" stroke-miterlimit="10" x1="706.2" y1="247.1" x2="673.8" y2="270.8"/>
		
			<line fill="none" stroke="#EC1C24" stroke-width="4" stroke-linecap="square" stroke-miterlimit="10" x1="738.6" y1="222.6" x2="706.2" y2="247.1"/>
		
			<line fill="none" stroke="#EC1C24" stroke-width="4" stroke-linecap="square" stroke-miterlimit="10" x1="770.9" y1="196.1" x2="738.6" y2="222.6"/>
		
			<line fill="none" stroke="#EC1C24" stroke-width="4" stroke-linecap="square" stroke-miterlimit="10" x1="803.4" y1="168.6" x2="770.9" y2="196.1"/>
	</g>
</g>
<g>
	<g>
		<line fill="none" stroke="#FDBB11" stroke-width="4" stroke-miterlimit="10" x1="123.7" y1="489.1" x2="91.3" y2="491.5"/>
		<line fill="none" stroke="#FDBB11" stroke-width="4" stroke-miterlimit="10" x1="156" y1="486.8" x2="123.7" y2="489.1"/>
	</g>
</g>
<g>
	<g>
		<line fill="none" stroke="#C4E3CA" stroke-width="4" stroke-miterlimit="10" x1="123.7" y1="489.7" x2="91.3" y2="491.5"/>
		<line fill="none" stroke="#C4E3CA" stroke-width="4" stroke-miterlimit="10" x1="156" y1="487.4" x2="123.7" y2="489.7"/>
		<line fill="none" stroke="#C4E3CA" stroke-width="4" stroke-miterlimit="10" x1="188.4" y1="485" x2="156" y2="487.4"/>
		<path fill="none" stroke="#C4E3CA" stroke-width="4" stroke-linecap="square" stroke-miterlimit="10" d="M576.9,441"/>
	</g>
</g>
<g>
	<g>
		
			<line fill="none" stroke="#015468" stroke-width="4" stroke-linecap="square" stroke-miterlimit="10" x1="125.9" y1="489.8" x2="93.3" y2="491.6"/>
		
			<line fill="none" stroke="#015468" stroke-width="4" stroke-linecap="square" stroke-miterlimit="10" x1="158.4" y1="488" x2="125.9" y2="489.8"/>
		
			<line fill="none" stroke="#015468" stroke-width="4" stroke-linecap="square" stroke-miterlimit="10" x1="191" y1="485.9" x2="158.4" y2="488"/>
		
			<line fill="none" stroke="#015468" stroke-width="4" stroke-linecap="square" stroke-miterlimit="10" x1="223.5" y1="484" x2="191" y2="485.9"/>
		
			<line fill="none" stroke="#015468" stroke-width="4" stroke-linecap="square" stroke-miterlimit="10" x1="256" y1="482.1" x2="223.5" y2="484"/>
		
			<line fill="none" stroke="#015468" stroke-width="4" stroke-linecap="square" stroke-miterlimit="10" x1="288.6" y1="480.4" x2="256" y2="482.1"/>
		
			<line fill="none" stroke="#015468" stroke-width="4" stroke-linecap="square" stroke-miterlimit="10" x1="321.1" y1="478.3" x2="288.6" y2="480.4"/>
		
			<line fill="none" stroke="#015468" stroke-width="4" stroke-linecap="square" stroke-miterlimit="10" x1="353.7" y1="476.4" x2="321.1" y2="478.3"/>
		
			<line fill="none" stroke="#015468" stroke-width="4" stroke-linecap="square" stroke-miterlimit="10" x1="386.3" y1="474.5" x2="353.7" y2="476.4"/>
		
			<line fill="none" stroke="#015468" stroke-width="4" stroke-linecap="square" stroke-miterlimit="10" x1="418.8" y1="472.6" x2="386.3" y2="474.5"/>
		
			<line fill="none" stroke="#015468" stroke-width="4" stroke-linecap="square" stroke-miterlimit="10" x1="451.3" y1="470.8" x2="418.8" y2="472.6"/>
		
			<line fill="none" stroke="#015468" stroke-width="4" stroke-linecap="square" stroke-miterlimit="10" x1="483.9" y1="469.3" x2="451.3" y2="470.8"/>
		
			<line fill="none" stroke="#015468" stroke-width="4" stroke-linecap="square" stroke-miterlimit="10" x1="516.5" y1="467.5" x2="483.9" y2="469.3"/>
		
			<line fill="none" stroke="#015468" stroke-width="4" stroke-linecap="square" stroke-miterlimit="10" x1="549" y1="465.6" x2="516.5" y2="467.5"/>
		
			<line fill="none" stroke="#015468" stroke-width="4" stroke-linecap="square" stroke-miterlimit="10" x1="581.7" y1="463.7" x2="549" y2="465.6"/>
		
			<line fill="none" stroke="#015468" stroke-width="4" stroke-linecap="square" stroke-miterlimit="10" x1="614.2" y1="461.7" x2="581.7" y2="463.7"/>
		
			<line fill="none" stroke="#015468" stroke-width="4" stroke-linecap="square" stroke-miterlimit="10" x1="646.6" y1="459.8" x2="614.2" y2="461.7"/>
		
			<line fill="none" stroke="#015468" stroke-width="4" stroke-linecap="square" stroke-miterlimit="10" x1="679.1" y1="457.9" x2="646.6" y2="459.8"/>
		
			<line fill="none" stroke="#015468" stroke-width="4" stroke-linecap="square" stroke-miterlimit="10" x1="711.7" y1="455.9" x2="679.1" y2="457.9"/>
		
			<line fill="none" stroke="#015468" stroke-width="4" stroke-linecap="square" stroke-miterlimit="10" x1="744.3" y1="454" x2="711.7" y2="455.9"/>
		
			<line fill="none" stroke="#015468" stroke-width="4" stroke-linecap="square" stroke-miterlimit="10" x1="776.8" y1="452.3" x2="744.3" y2="454"/>
		
			<line fill="none" stroke="#015468" stroke-width="4" stroke-linecap="square" stroke-miterlimit="10" x1="809.5" y1="450.3" x2="776.8" y2="452.3"/>
	</g>
</g>
<g>
	<g>
		<text transform="matrix(1 0 0 1 77.0615 524.8332)" fill="#2A2A2A" font-family="'JosefinSlab-SemiBold'" font-size="20">1990</text>
	</g>
</g>
<g>
	<g>
		<text transform="matrix(1 0 0 1 143.2484 524.8332)" fill="#2A2A2A" font-family="'JosefinSlab-SemiBold'" font-size="20">2000</text>
	</g>
</g>
<g>
	<g>
		<text transform="matrix(1 0 0 1 206.9471 524.8332)" fill="#2A2A2A" font-family="'JosefinSlab-SemiBold'" font-size="20">2010</text>
	</g>
</g>
<g>
	<g>
		<text transform="matrix(1 0 0 1 270.6439 524.8332)" fill="#2A2A2A" font-family="'JosefinSlab-SemiBold'" font-size="20">2020</text>
	</g>
</g>
<g>
	<g>
		<text transform="matrix(1 0 0 1 334.3409 524.8332)" fill="#2A2A2A" font-family="'JosefinSlab-SemiBold'" font-size="20">2030</text>
	</g>
</g>
<g>
	<g>
		<text transform="matrix(1 0 0 1 402.0994 524.8332)" fill="#2A2A2A" font-family="'JosefinSlab-SemiBold'" font-size="20">2040</text>
	</g>
</g>
<g>
	<g>
		<text transform="matrix(1 0 0 1 467.4219 524.8332)" fill="#2A2A2A" font-family="'JosefinSlab-SemiBold'" font-size="20">2050</text>
	</g>
</g>
<g>
	<g>
		<text transform="matrix(1 0 0 1 531.1188 524.8332)" fill="#2A2A2A" font-family="'JosefinSlab-SemiBold'" font-size="20">2060</text>
	</g>
</g>
<g>
	<g>
		<text transform="matrix(1 0 0 1 596.5557 524.8332)" fill="#2A2A2A" font-family="'JosefinSlab-SemiBold'" font-size="20">2070</text>
	</g>
</g>
<g>
	<g>
		<text transform="matrix(1 0 0 1 660.1374 524.8332)" fill="#2A2A2A" font-family="'JosefinSlab-SemiBold'" font-size="20">2080</text>
	</g>
</g>
<g>
	<g>
		<text transform="matrix(1 0 0 1 727.0867 524.8332)" fill="#2A2A2A" font-family="'JosefinSlab-SemiBold'" font-size="20">2090</text>
	</g>
</g>
<g>
	<g>
		<text transform="matrix(1 0 0 1 790.7626 524.8332)" fill="#2A2A2A" font-family="'JosefinSlab-SemiBold'" font-size="20">2100</text>
	</g>
</g>
<g>
	<path fill="#A2DADD" d="M863.3,209.4c-0.6-3-2.8-2.2-3.5-8.3c-0.6-6.1,0.5-12.1,3.5-14.7s9.1-4.7,14.9-2.4c5.8,2.4,6.6,5,6.6,8.8
		c0.2,3.6,0.6,10.4,0,12.4s-1.9,3-3,4.2c-0.9,1.3-0.6,5.3-0.3,6.4c0.3,0.9,17.1,9.7,20.5,10.8c3.5,1.1,6.1,5.6,7.2,13.6
		c1.1,8,4.2,35.6,3.8,37.8c-0.3,2.2-9.3,25.4-15.4,30.7c-1.7,6.6-5,39.5-5.3,43.3s-0.2,8.5,0.6,11.1c0.6,2.5-5.6,53-8.8,61.6
		c-0.9,2.7-2.2,4.9-2.4,6.6s0.6,10.4,0.3,11.3s-14.1,1.1-15.5,0.9s0-3.6,1.7-5.8c1.7-2.2,1.1-4.7,1.7-11.3
		c0.6-6.6,2.4-27.1,3.6-44.2c0.6-4.5,1.4-8.2,0.9-15.5c-0.6-7.4,0-35-0.6-38.3s-2.7-4.2-3.6-4.1c-0.9,0.3-0.9,1.7-1.1,6.1
		c-0.2,4.4,0,32.6-1.3,34.8c-1.3,2.2-2.4,4.2-2.4,6.6c0,2.5,1.7,9.6,3.5,13.2c1.7,3.6,1.3,7.7,0.9,10.8c-0.3,3.1,0,22.1-0.6,24.8
		c-0.6,2.7-2.7,8-5.8,7.1c-3-0.9-8.3-5-8-10.7c0.3-5.6,3-16.8,1.9-21.2c-0.9-4.2-9.6-16-10.4-21.8c-0.6-5.8-1.9-50.8-3-54.3
		c-0.9-3.5-1.9-9.6-5.3-12.1c-3.3-2.5-3-7.7-3-10c0-2.2-6.4-10.7-8.8-22.6c-0.9-6.6,6-36.4,6.6-39.8c0.6-3.5,3.8-8.5,8.5-11.3
		c4.7-2.7,16-6.6,18.2-8c2.2-1.3,2.5-1.7,2.8-3C863.8,212.9,863.3,209.4,863.3,209.4z"/>
	<g>
		<path fill="#FFFFFF" d="M861.3,217.4c0.2-0.8,1.7-1.1,2.4,0c0.6,1.1,5.8,7.4,7.1,7.7c1.3,0.2,3.6,0,4.9-1.4c1.3-1.4,3.3-4.1,3.8-5
			c0.6-1.1,1.6-1.7,2.7-1.7c1.1-0.2,0.2,12.7-0.9,16c-1.1,3.3-8.2,22.4-9.3,23.1c-1.1,0.6-6.6-17.4-7.5-20.5
			C863.5,232.2,860.8,223.9,861.3,217.4z"/>
		<path fill="#FFFFFF" d="M842.2,266.2c0.3-1.3,1.7-1.9,1.9-1.1c0.3,0.9,0.6,19,0,20.1s-1.3,1.7-1.9,0
			C841.5,283.3,841.1,269.7,842.2,266.2z"/>
		<path fill="#FFFFFF" d="M895.8,264.6c-1.3,1.3-2.7,4.4-3,6.6s-1.4,3.3,0,7.2c1.4,4.1,2.4,9.3,3,7.8c0.6-1.4,1.3-12.1,1.3-14.4
			c0-2.4,1.3-7.2,0-7.2S895.8,264.6,895.8,264.6z"/>
		<path fill="#FFFFFF" d="M893.5,296.8c0.6-0.6,1.4-1.7,3.3-1.1c1.7,0.6,6.6,5.3,6.1,6.1s-1.4,2.5-1.7,2.8
			C900.8,305.3,893.5,296.8,893.5,296.8z"/>
		<path fill="#FFFFFF" d="M836.5,304.6c1.6-1.1,5.2-4.9,6.6-4.5c1.4,0.3,1.6,1.9,0,3.5c-1.6,1.7-5,4.1-5,3.9
			C837.8,307.3,836.5,304.6,836.5,304.6z"/>
	</g>
</g>
<line fill="none" stroke="#EC1C24" stroke-width="4" stroke-miterlimit="10" x1="71.3" y1="116.8" x2="89.9" y2="116.8"/>
<line fill="none" stroke="#C4E3CA" stroke-width="4" stroke-miterlimit="10" x1="699.4" y1="114.6" x2="717.9" y2="114.6"/>
<g>
	<text transform="matrix(1 0 0 1 103.9619 121.325)" fill="#2A2A2A" font-family="'JosefinSlab-SemiBold'" font-size="18">Maximium(NOAA)</text>
</g>
<line fill="none" stroke="#FDBB11" stroke-width="4" stroke-miterlimit="10" x1="276.2" y1="116.8" x2="294.8" y2="116.8"/>
<g>
	<text transform="matrix(1 0 0 1 308.83 121.325)" fill="#2A2A2A" font-family="'JosefinSlab-SemiBold'" font-size="18">Maximium(USACE)</text>
</g>
<text transform="matrix(1 0 0 1 732.9409 119.0748)" fill="#2A2A2A" font-family="'JosefinSlab-SemiBold'" font-size="18">Minimum(USACE)</text>
<line fill="none" stroke="#015468" stroke-width="4" stroke-miterlimit="10" x1="495.3" y1="114.6" x2="513.8" y2="114.6"/>
<text transform="matrix(1 0 0 1 528.8925 119.0748)" fill="#2A2A2A" font-family="'JosefinSlab-SemiBold'" font-size="18">Minimum(NOAA)</text>
<g>
	<g>
		<text transform="matrix(1 0 0 1 787.8522 156.3985)" fill="#2A2A2A" font-family="'JosefinSlab-Bold'" font-size="20">5.85</text>
	</g>
</g>
<g>
	<g>
		<text transform="matrix(1 0 0 1 787.8522 213.9555)" fill="#2A2A2A" font-family="'JosefinSlab-Bold'" font-size="20">4.21</text>
	</g>
</g>
<circle fill="#FFFFFF" stroke="#EC1C24" stroke-width="2" stroke-miterlimit="10" cx="802.8" cy="167.9" r="6.7"/>
<g>
	<text transform="matrix(1 0 0 1 46.8895 185.5477)" fill="#2A2A2A" font-family="'JosefinSlab-SemiBold'" font-size="20">5.6</text>
</g>
<g>
	<line fill="none" stroke="#FDBB11" stroke-width="4" stroke-miterlimit="10" x1="156" y1="486" x2="91.3" y2="491.1"/>
	<line fill="none" stroke="#FDBB11" stroke-width="4" stroke-miterlimit="10" x1="220.8" y1="477.3" x2="156" y2="486"/>
	<line fill="none" stroke="#FDBB11" stroke-width="4" stroke-miterlimit="10" x1="285.5" y1="464.6" x2="220.8" y2="477.3"/>
	<line fill="none" stroke="#FDBB11" stroke-width="4" stroke-miterlimit="10" x1="350.2" y1="448.4" x2="285.5" y2="464.6"/>
	<line fill="none" stroke="#FDBB11" stroke-width="4" stroke-miterlimit="10" x1="415" y1="428" x2="350.2" y2="448.4"/>
	<line fill="none" stroke="#FDBB11" stroke-width="4" stroke-miterlimit="10" x1="479.7" y1="404.1" x2="415" y2="428"/>
	<line fill="none" stroke="#FDBB11" stroke-width="4" stroke-miterlimit="10" x1="544.5" y1="376.2" x2="479.7" y2="404.1"/>
	<line fill="none" stroke="#FDBB11" stroke-width="4" stroke-miterlimit="10" x1="609.2" y1="344.6" x2="544.5" y2="376.2"/>
	<line fill="none" stroke="#FDBB11" stroke-width="4" stroke-miterlimit="10" x1="673.9" y1="309.6" x2="609.2" y2="344.6"/>
	<line fill="none" stroke="#FDBB11" stroke-width="4" stroke-miterlimit="10" x1="738.7" y1="270.4" x2="673.9" y2="309.6"/>
	<line fill="none" stroke="#FDBB11" stroke-width="4" stroke-miterlimit="10" x1="803.4" y1="227.7" x2="738.7" y2="270.4"/>
</g>
<circle fill="#FFFFFF" stroke="#FDBB11" stroke-width="2" stroke-miterlimit="10" cx="804.8" cy="226.1" r="6.7"/>
<g>
	<line fill="none" stroke="#C4E3CA" stroke-width="4" stroke-miterlimit="10" x1="156.6" y1="486.5" x2="91.3" y2="490.6"/>
	<line fill="none" stroke="#C4E3CA" stroke-width="4" stroke-miterlimit="10" x1="221.9" y1="482.4" x2="156.6" y2="486.5"/>
	<line fill="none" stroke="#C4E3CA" stroke-width="4" stroke-miterlimit="10" x1="287.2" y1="478.3" x2="221.9" y2="482.4"/>
	<line fill="none" stroke="#C4E3CA" stroke-width="4" stroke-miterlimit="10" x1="352.5" y1="474.2" x2="287.2" y2="478.3"/>
	<line fill="none" stroke="#C4E3CA" stroke-width="4" stroke-miterlimit="10" x1="417.8" y1="470.1" x2="352.5" y2="474.2"/>
	<line fill="none" stroke="#C4E3CA" stroke-width="4" stroke-miterlimit="10" x1="483" y1="466.5" x2="417.8" y2="470.1"/>
	<line fill="none" stroke="#C4E3CA" stroke-width="4" stroke-miterlimit="10" x1="548.3" y1="462.4" x2="483" y2="466.5"/>
	<line fill="none" stroke="#C4E3CA" stroke-width="4" stroke-miterlimit="10" x1="613.6" y1="458.3" x2="548.3" y2="462.4"/>
	<line fill="none" stroke="#C4E3CA" stroke-width="4" stroke-miterlimit="10" x1="678.9" y1="454.2" x2="613.6" y2="458.3"/>
	<line fill="none" stroke="#C4E3CA" stroke-width="4" stroke-miterlimit="10" x1="744.2" y1="450.1" x2="678.9" y2="454.2"/>
	<line fill="none" stroke="#C4E3CA" stroke-width="4" stroke-miterlimit="10" x1="809.5" y1="446" x2="744.2" y2="450.1"/>
</g>
</svg>
