<?xml version="1.0" encoding="utf-8"?>
<!-- Generator: Adobe Illustrator 18.1.1, SVG Export Plug-In . SVG Version: 6.00 Build 0)  -->
<!DOCTYPE svg PUBLIC "-//W3C//DTD SVG 1.1//EN" "http://www.w3.org/Graphics/SVG/1.1/DTD/svg11.dtd">
<svg version="1.1" id="Layer_1" xmlns="http://www.w3.org/2000/svg" xmlns:xlink="http://www.w3.org/1999/xlink" x="0px" y="0px"
	 viewBox="0 47 960 475" enable-background="new 0 47 960 475" xml:space="preserve">
<g id="Layer_1_1_">
	<g>
		<g>
			<text transform="matrix(1 0 0 1 49.6414 452.5919)" fill="#2A2A2A" font-family="'JosefinSlab-SemiBold'" font-size="20">-1</text>
			<text transform="matrix(1 0 0 1 54.5349 405.3127)" fill="#2A2A2A" font-family="'JosefinSlab-SemiBold'" font-size="20">0</text>
			<text transform="matrix(1 0 0 1 54.5349 310.754)" fill="#2A2A2A" font-family="'JosefinSlab-SemiBold'" font-size="20">2</text>
			<text transform="matrix(1 0 0 1 54.5349 216.1963)" fill="#2A2A2A" font-family="'JosefinSlab-SemiBold'" font-size="20">4</text>
			<text transform="matrix(1 0 0 1 54.5349 121.6377)" fill="#2A2A2A" font-family="'JosefinSlab-SemiBold'" font-size="20">6</text>
		</g>
	</g>
	<g>
		<g>
			<g>
				<g>
					<line fill="none" stroke="#FFFFFF" stroke-miterlimit="10" x1="75.6" y1="402.4" x2="76.5" y2="402.4"/>
					
						<line fill="none" stroke="#2A2A2A" stroke-width="1.2" stroke-miterlimit="10" stroke-dasharray="1.9991,1.9991" x1="78.4" y1="402.7" x2="896" y2="402.8"/>
					<line fill="none" stroke="#FFFFFF" stroke-miterlimit="10" x1="896.4" y1="402.4" x2="897.4" y2="402.4"/>
					<line fill="none" stroke="#2A2A2A" stroke-miterlimit="10" stroke-dasharray="2,2" x1="78.4" y1="449" x2="896" y2="449.1"/>
				</g>
			</g>
			<g>
				<g>
					<line fill="none" stroke="#FFFFFF" stroke-miterlimit="10" x1="76.5" y1="139.9" x2="77.6" y2="139.9"/>
					
						<line fill="none" stroke="#2A2A2A" stroke-miterlimit="10" stroke-dasharray="2,2" x1="79.5" y1="139.9" x2="895.5" y2="139.9"/>
					<line fill="none" stroke="#FFFFFF" stroke-miterlimit="10" x1="896.4" y1="139.9" x2="897.4" y2="139.9"/>
				</g>
			</g>
		</g>
	</g>
	<g>
		<g>
			<line fill="none" stroke="#EC1C24" stroke-width="4" stroke-miterlimit="10" x1="123.7" y1="446.6" x2="91.3" y2="448.6"/>
			<line fill="none" stroke="#EC1C24" stroke-width="4" stroke-miterlimit="10" x1="156" y1="443.8" x2="123.7" y2="446.6"/>
			<line fill="none" stroke="#EC1C24" stroke-width="4" stroke-miterlimit="10" x1="188.4" y1="439.1" x2="156" y2="443.8"/>
			
				<line fill="none" stroke="#EC1C24" stroke-width="4" stroke-linecap="square" stroke-miterlimit="10" x1="220.8" y1="433.4" x2="188.4" y2="439.1"/>
			
				<line fill="none" stroke="#EC1C24" stroke-width="4" stroke-linecap="square" stroke-miterlimit="10" x1="253.1" y1="426.8" x2="220.8" y2="433.4"/>
			
				<line fill="none" stroke="#EC1C24" stroke-width="4" stroke-linecap="square" stroke-miterlimit="10" x1="285.5" y1="418.7" x2="253.1" y2="426.8"/>
			
				<line fill="none" stroke="#EC1C24" stroke-width="4" stroke-linecap="square" stroke-miterlimit="10" x1="317.8" y1="409.3" x2="285.5" y2="418.7"/>
			
				<line fill="none" stroke="#EC1C24" stroke-width="4" stroke-linecap="square" stroke-miterlimit="10" x1="350.2" y1="398.9" x2="317.8" y2="409.3"/>
			
				<line fill="none" stroke="#EC1C24" stroke-width="4" stroke-linecap="square" stroke-miterlimit="10" x1="382.6" y1="387.6" x2="350.2" y2="398.9"/>
			
				<line fill="none" stroke="#EC1C24" stroke-width="4" stroke-linecap="square" stroke-miterlimit="10" x1="415" y1="374.9" x2="382.6" y2="387.6"/>
			
				<line fill="none" stroke="#EC1C24" stroke-width="4" stroke-linecap="square" stroke-miterlimit="10" x1="447.3" y1="360.6" x2="415" y2="374.9"/>
			
				<line fill="none" stroke="#EC1C24" stroke-width="4" stroke-linecap="square" stroke-miterlimit="10" x1="479.7" y1="345.4" x2="447.3" y2="360.6"/>
			
				<line fill="none" stroke="#EC1C24" stroke-width="4" stroke-linecap="square" stroke-miterlimit="10" x1="512.1" y1="329" x2="479.7" y2="345.4"/>
			
				<line fill="none" stroke="#EC1C24" stroke-width="4" stroke-linecap="square" stroke-miterlimit="10" x1="544.4" y1="310.9" x2="512.1" y2="329"/>
			
				<line fill="none" stroke="#EC1C24" stroke-width="4" stroke-linecap="square" stroke-miterlimit="10" x1="576.9" y1="292.1" x2="544.4" y2="310.9"/>
			
				<line fill="none" stroke="#EC1C24" stroke-width="4" stroke-linecap="square" stroke-miterlimit="10" x1="609.2" y1="272.2" x2="576.9" y2="292.1"/>
			
				<line fill="none" stroke="#EC1C24" stroke-width="4" stroke-linecap="square" stroke-miterlimit="10" x1="641.5" y1="251" x2="609.2" y2="272.2"/>
			
				<line fill="none" stroke="#EC1C24" stroke-width="4" stroke-linecap="square" stroke-miterlimit="10" x1="673.8" y1="228.3" x2="641.5" y2="251"/>
			
				<line fill="none" stroke="#EC1C24" stroke-width="4" stroke-linecap="square" stroke-miterlimit="10" x1="706.2" y1="204.6" x2="673.8" y2="228.3"/>
			
				<line fill="none" stroke="#EC1C24" stroke-width="4" stroke-linecap="square" stroke-miterlimit="10" x1="738.6" y1="180.1" x2="706.2" y2="204.6"/>
			
				<line fill="none" stroke="#EC1C24" stroke-width="4" stroke-linecap="square" stroke-miterlimit="10" x1="770.9" y1="153.6" x2="738.6" y2="180.1"/>
			
				<line fill="none" stroke="#EC1C24" stroke-width="4" stroke-linecap="square" stroke-miterlimit="10" x1="803.4" y1="126.1" x2="770.9" y2="153.6"/>
		</g>
	</g>
	<g>
		<g>
			<line fill="none" stroke="#FDBB11" stroke-width="4" stroke-miterlimit="10" x1="123.7" y1="446.6" x2="91.3" y2="449"/>
			<line fill="none" stroke="#FDBB11" stroke-width="4" stroke-miterlimit="10" x1="156" y1="444.3" x2="123.7" y2="446.6"/>
			<line fill="none" stroke="#FDBB11" stroke-width="4" stroke-miterlimit="10" x1="188.4" y1="441" x2="156" y2="444.3"/>
			
				<line fill="none" stroke="#FDBB11" stroke-width="4" stroke-linecap="square" stroke-miterlimit="10" x1="220.8" y1="437.2" x2="188.4" y2="441"/>
			
				<line fill="none" stroke="#FDBB11" stroke-width="4" stroke-linecap="square" stroke-miterlimit="10" x1="253.1" y1="432.5" x2="220.8" y2="437.2"/>
			
				<line fill="none" stroke="#FDBB11" stroke-width="4" stroke-linecap="square" stroke-miterlimit="10" x1="285.5" y1="427.3" x2="253.1" y2="432.5"/>
			
				<line fill="none" stroke="#FDBB11" stroke-width="4" stroke-linecap="square" stroke-miterlimit="10" x1="317.8" y1="421.2" x2="285.5" y2="427.3"/>
			
				<line fill="none" stroke="#FDBB11" stroke-width="4" stroke-linecap="square" stroke-miterlimit="10" x1="350.2" y1="414.6" x2="317.8" y2="421.2"/>
			
				<line fill="none" stroke="#FDBB11" stroke-width="4" stroke-linecap="square" stroke-miterlimit="10" x1="382.6" y1="406.9" x2="350.2" y2="414.6"/>
			
				<line fill="none" stroke="#FDBB11" stroke-width="4" stroke-linecap="square" stroke-miterlimit="10" x1="415" y1="398.9" x2="382.6" y2="406.9"/>
			
				<line fill="none" stroke="#FDBB11" stroke-width="4" stroke-linecap="square" stroke-miterlimit="10" x1="447.3" y1="390.5" x2="415" y2="398.9"/>
			
				<line fill="none" stroke="#FDBB11" stroke-width="4" stroke-linecap="square" stroke-miterlimit="10" x1="479.7" y1="380.9" x2="447.3" y2="390.5"/>
			
				<line fill="none" stroke="#FDBB11" stroke-width="4" stroke-linecap="square" stroke-miterlimit="10" x1="512.1" y1="371" x2="479.7" y2="380.9"/>
			
				<line fill="none" stroke="#FDBB11" stroke-width="4" stroke-linecap="square" stroke-miterlimit="10" x1="544.4" y1="360.2" x2="512.1" y2="371"/>
			
				<line fill="none" stroke="#FDBB11" stroke-width="4" stroke-linecap="square" stroke-miterlimit="10" x1="576.9" y1="348.9" x2="544.4" y2="360.2"/>
			
				<line fill="none" stroke="#FDBB11" stroke-width="4" stroke-linecap="square" stroke-miterlimit="10" x1="609.2" y1="337" x2="576.9" y2="348.9"/>
			
				<line fill="none" stroke="#FDBB11" stroke-width="4" stroke-linecap="square" stroke-miterlimit="10" x1="641.5" y1="324.3" x2="609.2" y2="337"/>
			
				<line fill="none" stroke="#FDBB11" stroke-width="4" stroke-linecap="square" stroke-miterlimit="10" x1="673.8" y1="310.9" x2="641.5" y2="324.3"/>
			
				<line fill="none" stroke="#FDBB11" stroke-width="4" stroke-linecap="square" stroke-miterlimit="10" x1="706.2" y1="296.8" x2="673.8" y2="310.9"/>
			
				<line fill="none" stroke="#FDBB11" stroke-width="4" stroke-linecap="square" stroke-miterlimit="10" x1="738.6" y1="282.2" x2="706.2" y2="296.8"/>
			
				<line fill="none" stroke="#FDBB11" stroke-width="4" stroke-linecap="square" stroke-miterlimit="10" x1="770.9" y1="266.5" x2="738.6" y2="282.2"/>
			
				<line fill="none" stroke="#FDBB11" stroke-width="4" stroke-linecap="square" stroke-miterlimit="10" x1="803.4" y1="250.5" x2="770.9" y2="266.5"/>
		</g>
	</g>
	<g>
		<g>
			<line fill="none" stroke="#C4E3CA" stroke-width="4" stroke-miterlimit="10" x1="123.7" y1="447.2" x2="91.3" y2="449"/>
			<line fill="none" stroke="#C4E3CA" stroke-width="4" stroke-miterlimit="10" x1="156" y1="444.9" x2="123.7" y2="447.2"/>
			<line fill="none" stroke="#C4E3CA" stroke-width="4" stroke-miterlimit="10" x1="188.4" y1="442.5" x2="156" y2="444.9"/>
			
				<line fill="none" stroke="#C4E3CA" stroke-width="4" stroke-linecap="square" stroke-miterlimit="10" x1="220.8" y1="440.2" x2="188.4" y2="442.5"/>
			
				<line fill="none" stroke="#C4E3CA" stroke-width="4" stroke-linecap="square" stroke-miterlimit="10" x1="253.1" y1="437.2" x2="220.8" y2="440.2"/>
			
				<line fill="none" stroke="#C4E3CA" stroke-width="4" stroke-linecap="square" stroke-miterlimit="10" x1="285.5" y1="434.4" x2="253.1" y2="437.2"/>
			
				<line fill="none" stroke="#C4E3CA" stroke-width="4" stroke-linecap="square" stroke-miterlimit="10" x1="317.8" y1="431.1" x2="285.5" y2="434.4"/>
			
				<line fill="none" stroke="#C4E3CA" stroke-width="4" stroke-linecap="square" stroke-miterlimit="10" x1="350.2" y1="427.8" x2="317.8" y2="431.1"/>
			
				<line fill="none" stroke="#C4E3CA" stroke-width="4" stroke-linecap="square" stroke-miterlimit="10" x1="382.6" y1="424.5" x2="350.2" y2="427.8"/>
			
				<line fill="none" stroke="#C4E3CA" stroke-width="4" stroke-linecap="square" stroke-miterlimit="10" x1="415" y1="420.7" x2="382.6" y2="424.5"/>
			
				<line fill="none" stroke="#C4E3CA" stroke-width="4" stroke-linecap="square" stroke-miterlimit="10" x1="447.3" y1="417" x2="415" y2="420.7"/>
			
				<line fill="none" stroke="#C4E3CA" stroke-width="4" stroke-linecap="square" stroke-miterlimit="10" x1="479.7" y1="412.7" x2="447.3" y2="417"/>
			
				<line fill="none" stroke="#C4E3CA" stroke-width="4" stroke-linecap="square" stroke-miterlimit="10" x1="512.1" y1="407.9" x2="479.7" y2="412.7"/>
			
				<line fill="none" stroke="#C4E3CA" stroke-width="4" stroke-linecap="square" stroke-miterlimit="10" x1="544.4" y1="403.6" x2="512.1" y2="407.9"/>
			
				<line fill="none" stroke="#C4E3CA" stroke-width="4" stroke-linecap="square" stroke-miterlimit="10" x1="576.9" y1="398.5" x2="544.4" y2="403.6"/>
			
				<line fill="none" stroke="#C4E3CA" stroke-width="4" stroke-linecap="square" stroke-miterlimit="10" x1="609.2" y1="393.7" x2="576.9" y2="398.5"/>
			
				<line fill="none" stroke="#C4E3CA" stroke-width="4" stroke-linecap="square" stroke-miterlimit="10" x1="641.5" y1="388.6" x2="609.2" y2="393.7"/>
			
				<line fill="none" stroke="#C4E3CA" stroke-width="4" stroke-linecap="square" stroke-miterlimit="10" x1="673.8" y1="382.9" x2="641.5" y2="388.6"/>
			
				<line fill="none" stroke="#C4E3CA" stroke-width="4" stroke-linecap="square" stroke-miterlimit="10" x1="706.2" y1="377.3" x2="673.8" y2="382.9"/>
			
				<line fill="none" stroke="#C4E3CA" stroke-width="4" stroke-linecap="square" stroke-miterlimit="10" x1="738.6" y1="371.5" x2="706.2" y2="377.3"/>
			
				<line fill="none" stroke="#C4E3CA" stroke-width="4" stroke-linecap="square" stroke-miterlimit="10" x1="770.9" y1="365.4" x2="738.6" y2="371.5"/>
			
				<line fill="none" stroke="#C4E3CA" stroke-width="4" stroke-linecap="square" stroke-miterlimit="10" x1="803.4" y1="359.2" x2="770.9" y2="365.4"/>
		</g>
	</g>
	<g>
		<g>
			
				<line fill="none" stroke="#015468" stroke-width="4" stroke-linecap="square" stroke-miterlimit="10" x1="123.7" y1="447.2" x2="91.3" y2="449"/>
			
				<line fill="none" stroke="#015468" stroke-width="4" stroke-linecap="square" stroke-miterlimit="10" x1="156" y1="445.4" x2="123.7" y2="447.2"/>
			
				<line fill="none" stroke="#015468" stroke-width="4" stroke-linecap="square" stroke-miterlimit="10" x1="188.4" y1="443.3" x2="156" y2="445.4"/>
			
				<line fill="none" stroke="#015468" stroke-width="4" stroke-linecap="square" stroke-miterlimit="10" x1="220.8" y1="441.4" x2="188.4" y2="443.3"/>
			
				<line fill="none" stroke="#015468" stroke-width="4" stroke-linecap="square" stroke-miterlimit="10" x1="253.1" y1="439.5" x2="220.8" y2="441.4"/>
			
				<line fill="none" stroke="#015468" stroke-width="4" stroke-linecap="square" stroke-miterlimit="10" x1="285.5" y1="437.8" x2="253.1" y2="439.5"/>
			
				<line fill="none" stroke="#015468" stroke-width="4" stroke-linecap="square" stroke-miterlimit="10" x1="317.8" y1="435.8" x2="285.5" y2="437.8"/>
			
				<line fill="none" stroke="#015468" stroke-width="4" stroke-linecap="square" stroke-miterlimit="10" x1="350.2" y1="433.9" x2="317.8" y2="435.8"/>
			
				<line fill="none" stroke="#015468" stroke-width="4" stroke-linecap="square" stroke-miterlimit="10" x1="382.6" y1="432" x2="350.2" y2="433.9"/>
			
				<line fill="none" stroke="#015468" stroke-width="4" stroke-linecap="square" stroke-miterlimit="10" x1="415" y1="430.1" x2="382.6" y2="432"/>
			
				<line fill="none" stroke="#015468" stroke-width="4" stroke-linecap="square" stroke-miterlimit="10" x1="447.3" y1="428.3" x2="415" y2="430.1"/>
			
				<line fill="none" stroke="#015468" stroke-width="4" stroke-linecap="square" stroke-miterlimit="10" x1="479.7" y1="426.8" x2="447.3" y2="428.3"/>
			
				<line fill="none" stroke="#015468" stroke-width="4" stroke-linecap="square" stroke-miterlimit="10" x1="512.1" y1="425" x2="479.7" y2="426.8"/>
			
				<line fill="none" stroke="#015468" stroke-width="4" stroke-linecap="square" stroke-miterlimit="10" x1="544.4" y1="423.1" x2="512.1" y2="425"/>
			
				<line fill="none" stroke="#015468" stroke-width="4" stroke-linecap="square" stroke-miterlimit="10" x1="576.9" y1="421.2" x2="544.4" y2="423.1"/>
			
				<line fill="none" stroke="#015468" stroke-width="4" stroke-linecap="square" stroke-miterlimit="10" x1="609.2" y1="419.3" x2="576.9" y2="421.2"/>
			
				<line fill="none" stroke="#015468" stroke-width="4" stroke-linecap="square" stroke-miterlimit="10" x1="641.5" y1="417.4" x2="609.2" y2="419.3"/>
			
				<line fill="none" stroke="#015468" stroke-width="4" stroke-linecap="square" stroke-miterlimit="10" x1="673.8" y1="415.5" x2="641.5" y2="417.4"/>
			
				<line fill="none" stroke="#015468" stroke-width="4" stroke-linecap="square" stroke-miterlimit="10" x1="706.2" y1="413.5" x2="673.8" y2="415.5"/>
			
				<line fill="none" stroke="#015468" stroke-width="4" stroke-linecap="square" stroke-miterlimit="10" x1="738.6" y1="411.6" x2="706.2" y2="413.5"/>
			
				<line fill="none" stroke="#015468" stroke-width="4" stroke-linecap="square" stroke-miterlimit="10" x1="770.9" y1="409.9" x2="738.6" y2="411.6"/>
			
				<line fill="none" stroke="#015468" stroke-width="4" stroke-linecap="square" stroke-miterlimit="10" x1="803.4" y1="407.9" x2="770.9" y2="409.9"/>
		</g>
	</g>
	<g>
		<g>
			<text transform="matrix(1 0 0 1 77.0615 482.3332)" fill="#2A2A2A" font-family="'JosefinSlab-SemiBold'" font-size="20">1990</text>
		</g>
	</g>
	<g>
		<g>
			<text transform="matrix(1 0 0 1 143.2484 482.3332)" fill="#2A2A2A" font-family="'JosefinSlab-SemiBold'" font-size="20">2000</text>
		</g>
	</g>
	<g>
		<g>
			<text transform="matrix(1 0 0 1 206.9471 482.3332)" fill="#2A2A2A" font-family="'JosefinSlab-SemiBold'" font-size="20">2010</text>
		</g>
	</g>
	<g>
		<g>
			<text transform="matrix(1 0 0 1 270.6439 482.3332)" fill="#2A2A2A" font-family="'JosefinSlab-SemiBold'" font-size="20">2020</text>
		</g>
	</g>
	<g>
		<g>
			<text transform="matrix(1 0 0 1 334.3409 482.3332)" fill="#2A2A2A" font-family="'JosefinSlab-SemiBold'" font-size="20">2030</text>
		</g>
	</g>
	<g>
		<g>
			<text transform="matrix(1 0 0 1 402.0994 482.3332)" fill="#2A2A2A" font-family="'JosefinSlab-SemiBold'" font-size="20">2040</text>
		</g>
	</g>
	<g>
		<g>
			<text transform="matrix(1 0 0 1 467.4219 482.3332)" fill="#2A2A2A" font-family="'JosefinSlab-SemiBold'" font-size="20">2050</text>
		</g>
	</g>
	<g>
		<g>
			<text transform="matrix(1 0 0 1 531.1188 482.3332)" fill="#2A2A2A" font-family="'JosefinSlab-SemiBold'" font-size="20">2060</text>
		</g>
	</g>
	<g>
		<g>
			<text transform="matrix(1 0 0 1 596.5557 482.3332)" fill="#2A2A2A" font-family="'JosefinSlab-SemiBold'" font-size="20">2070</text>
		</g>
	</g>
	<g>
		<g>
			<text transform="matrix(1 0 0 1 660.1374 482.3332)" fill="#2A2A2A" font-family="'JosefinSlab-SemiBold'" font-size="20">2080</text>
		</g>
	</g>
	<g>
		<g>
			<text transform="matrix(1 0 0 1 727.0867 482.3332)" fill="#2A2A2A" font-family="'JosefinSlab-SemiBold'" font-size="20">2090</text>
		</g>
	</g>
	<g>
		<g>
			<text transform="matrix(1 0 0 1 790.7626 482.3332)" fill="#2A2A2A" font-family="'JosefinSlab-SemiBold'" font-size="20">2100</text>
		</g>
	</g>
	<g>
		<path fill="#A2DADD" d="M863.3,166.9c-0.6-3-2.8-2.2-3.5-8.3c-0.6-6.1,0.5-12.1,3.5-14.7s9.1-4.7,14.9-2.4c5.8,2.4,6.6,5,6.6,8.8
			c0.2,3.6,0.6,10.4,0,12.4s-1.9,3-3,4.2c-0.9,1.3-0.6,5.3-0.3,6.4c0.3,0.9,17.1,9.7,20.5,10.8c3.5,1.1,6.1,5.6,7.2,13.6
			c1.1,8,4.2,35.6,3.8,37.8c-0.3,2.2-9.3,25.4-15.4,30.7c-1.7,6.6-5,39.5-5.3,43.3s-0.2,8.5,0.6,11.1c0.6,2.5-5.6,53-8.8,61.6
			c-0.9,2.7-2.2,4.9-2.4,6.6s0.6,10.4,0.3,11.3s-14.1,1.1-15.5,0.9s0-3.6,1.7-5.8c1.7-2.2,1.1-4.7,1.7-11.3
			c0.6-6.6,2.4-27.1,3.6-44.2c0.6-4.5,1.4-8.2,0.9-15.5c-0.6-7.4,0-35-0.6-38.3s-2.7-4.2-3.6-4.1c-0.9,0.3-0.9,1.7-1.1,6.1
			c-0.2,4.4,0,32.6-1.3,34.8c-1.3,2.2-2.4,4.2-2.4,6.6c0,2.5,1.7,9.6,3.5,13.2c1.7,3.6,1.3,7.7,0.9,10.8c-0.3,3.1,0,22.1-0.6,24.8
			c-0.6,2.7-2.7,8-5.8,7.1c-3-0.9-8.3-5-8-10.7c0.3-5.6,3-16.8,1.9-21.2c-0.9-4.2-9.6-16-10.4-21.8c-0.6-5.8-1.9-50.8-3-54.3
			c-0.9-3.5-1.9-9.6-5.3-12.1c-3.3-2.5-3-7.7-3-10c0-2.2-6.4-10.7-8.8-22.6c-0.9-6.6,6-36.4,6.6-39.8c0.6-3.5,3.8-8.5,8.5-11.3
			c4.7-2.7,16-6.6,18.2-8c2.2-1.3,2.5-1.7,2.8-3C863.8,170.4,863.3,166.9,863.3,166.9z"/>
		<g>
			<path fill="#FFFFFF" d="M861.3,174.9c0.2-0.8,1.7-1.1,2.4,0c0.6,1.1,5.8,7.4,7.1,7.7c1.3,0.2,3.6,0,4.9-1.4
				c1.3-1.4,3.3-4.1,3.8-5c0.6-1.1,1.6-1.7,2.7-1.7c1.1-0.2,0.2,12.7-0.9,16c-1.1,3.3-8.2,22.4-9.3,23.1c-1.1,0.6-6.6-17.4-7.5-20.5
				C863.5,189.7,860.8,181.4,861.3,174.9z"/>
			<path fill="#FFFFFF" d="M842.2,223.7c0.3-1.3,1.7-1.9,1.9-1.1c0.3,0.9,0.6,19,0,20.1s-1.3,1.7-1.9,0
				C841.5,240.8,841.1,227.2,842.2,223.7z"/>
			<path fill="#FFFFFF" d="M895.8,222.1c-1.3,1.3-2.7,4.4-3,6.6c-0.3,2.2-1.4,3.3,0,7.2c1.4,4.1,2.4,9.3,3,7.8
				c0.6-1.4,1.3-12.1,1.3-14.4c0-2.4,1.3-7.2,0-7.2S895.8,222.1,895.8,222.1z"/>
			<path fill="#FFFFFF" d="M893.5,254.3c0.6-0.6,1.4-1.7,3.3-1.1c1.7,0.6,6.6,5.3,6.1,6.1s-1.4,2.5-1.7,2.8
				C900.8,262.8,893.5,254.3,893.5,254.3z"/>
			<path fill="#FFFFFF" d="M836.5,262.1c1.6-1.1,5.2-4.9,6.6-4.5c1.4,0.3,1.6,1.9,0,3.5c-1.6,1.7-5,4.1-5,3.9
				C837.8,264.8,836.5,262.1,836.5,262.1z"/>
		</g>
	</g>
	<line fill="none" stroke="#EC1C24" stroke-width="4" stroke-miterlimit="10" x1="165.7" y1="73.2" x2="184.3" y2="73.2"/>
	<line fill="none" stroke="#FDBB11" stroke-width="4" stroke-miterlimit="10" x1="285.2" y1="73.2" x2="304.8" y2="73.2"/>
	<line fill="none" stroke="#C4E3CA" stroke-width="4" stroke-miterlimit="10" x1="511.3" y1="73.2" x2="530.9" y2="73.2"/>
	<line fill="none" stroke="#015468" stroke-width="4" stroke-miterlimit="10" x1="721.6" y1="73.2" x2="740.1" y2="73.2"/>
	<g>
		<text transform="matrix(1 0 0 1 198.3233 77.7001)" fill="#2A2A2A" font-family="'JosefinSlab-SemiBold'" font-size="20">High</text>
	</g>
	<text transform="matrix(1 0 0 1 317.7102 77.7)" fill="#2A2A2A" font-family="'JosefinSlab-SemiBold'" font-size="20">Intermediate high</text>
	<text transform="matrix(1 0 0 1 544.8302 77.7001)" fill="#2A2A2A" font-family="'JosefinSlab-SemiBold'" font-size="20">Intermediate low</text>
	<text transform="matrix(1 0 0 1 755.1853 77.7)" fill="#2A2A2A" font-family="'JosefinSlab-SemiBold'" font-size="20">Low</text>
	<g>
		<g>
			<text transform="matrix(1 0 0 1 787.8522 113.8985)" fill="#2A2A2A" font-family="'JosefinSlab-Bold'" font-size="20">5.85</text>
		</g>
	</g>
	<circle fill="#FFFFFF" stroke="#EC1C24" stroke-width="2" stroke-miterlimit="10" cx="802.8" cy="125.4" r="6.7"/>
	<g>
		<text transform="matrix(1 0 0 1 46.8895 143.0477)" fill="#2A2A2A" font-family="'JosefinSlab-SemiBold'" font-size="20">5.6</text>
	</g>
</g>
<g id="ai2html-settings">
</g>
</svg>
