<?xml version="1.0" encoding="utf-8"?>
<!-- Generator: Adobe Illustrator 18.1.1, SVG Export Plug-In . SVG Version: 6.00 Build 0)  -->
<!DOCTYPE svg PUBLIC "-//W3C//DTD SVG 1.1//EN" "http://www.w3.org/Graphics/SVG/1.1/DTD/svg11.dtd">
<svg version="1.1" id="Layer_1" xmlns="http://www.w3.org/2000/svg" xmlns:xlink="http://www.w3.org/1999/xlink" x="0px" y="0px"
	 viewBox="0 435 960 125" enable-background="new 0 435 960 125" xml:space="preserve">
<line fill="none" stroke="#2A2A2A" stroke-width="2" x1="767.2" y1="454.2" x2="767.2" y2="502.4"/>
<line fill="none" stroke="#2A2A2A" stroke-width="2" x1="636.1" y1="454.2" x2="636.1" y2="502.4"/>
<line fill="none" stroke="#2A2A2A" stroke-width="2" x1="547.6" y1="454.2" x2="547.6" y2="502.4"/>
<line fill="none" stroke="#2A2A2A" stroke-width="2" x1="237.6" y1="454.2" x2="237.6" y2="502.4"/>
<text transform="matrix(1 0 0 1 813.009 470.5986)" fill="#2A2A2A" font-family="'JosefinSlab-SemiBold'" font-size="19">Flood </text>
<text transform="matrix(1 0 0 1 810.709 493.3986)" fill="#2A2A2A" font-family="'JosefinSlab-SemiBold'" font-size="19">Water</text>
<text transform="matrix(1 0 0 1 675.7356 470.5988)" fill="#2A2A2A" font-family="'JosefinSlab-SemiBold'" font-size="19">Sewer </text>
<text transform="matrix(1 0 0 1 675.7356 493.3987)" fill="#2A2A2A" font-family="'JosefinSlab-SemiBold'" font-size="19">Water</text>
<text transform="matrix(1 0 0 1 570.2134 470.5983)" fill="#2A2A2A" font-family="'JosefinSlab-SemiBold'" font-size="19">Clean</text>
<text transform="matrix(1 0 0 1 566.2134 493.3983)" fill="#2A2A2A" font-family="'JosefinSlab-SemiBold'" font-size="19">Water</text>
<text transform="matrix(1 0 0 1 290.4963 470.5984)" fill="#2A2A2A" font-family="'JosefinSlab-SemiBold'" font-size="19">CleanWater ready to be </text>
<text transform="matrix(1 0 0 1 313.5963 493.3984)" fill="#2A2A2A" font-family="'JosefinSlab-SemiBold'" font-size="19">discharged to ocean</text>
<text transform="matrix(1 0 0 1 95.3028 470.5983)" fill="#2A2A2A" font-family="'JosefinSlab-SemiBold'" font-size="19">CleanWater </text>
<text transform="matrix(1 0 0 1 93.4028 493.3983)" fill="#2A2A2A" font-family="'JosefinSlab-SemiBold'" font-size="19">back to ocean</text>
<text transform="matrix(1 0 0 1 574.2505 535.9542)" fill="#2A2A2A" font-family="'JosefinSlab-SemiBold'" font-size="19">Pollution Control</text>
<text transform="matrix(1 0 0 1 802.2505 535.9544)" fill="#2A2A2A" font-family="'JosefinSlab-SemiBold'" font-size="19">Sewerage</text>
<text transform="matrix(1 0 0 1 336.7227 535.9542)" fill="#2A2A2A" font-family="'JosefinSlab-SemiBold'" font-size="19">Pump Station </text>
<text transform="matrix(1 0 0 1 107.7588 535.9543)" fill="#2A2A2A" font-family="'JosefinSlab-SemiBold'" font-size="19">Sea Wall</text>
</svg>
