<?xml version="1.0" encoding="utf-8"?>
<!-- Generator: Adobe Illustrator 18.0.0, SVG Export Plug-In . SVG Version: 6.00 Build 0)  -->
<!DOCTYPE svg PUBLIC "-//W3C//DTD SVG 1.1//EN" "http://www.w3.org/Graphics/SVG/1.1/DTD/svg11.dtd">
<svg version="1.1" id="Layer_1" xmlns="http://www.w3.org/2000/svg" xmlns:xlink="http://www.w3.org/1999/xlink" x="0px" y="0px"
	 viewBox="1297.4 368.8 612 54.5" enable-background="new 1297.4 368.8 612 54.5" xml:space="preserve">
<g>
	<rect x="1297.4" y="367.8" fill="#64CBED" width="8.5" height="55.5"/>
	<rect x="1311.6" y="367.8" opacity="0.6" fill="#64CBED" width="8.5" height="55.5"/>
	<rect x="1325.7" y="367.8" opacity="0.6" fill="#64CBED" width="8.5" height="55.5"/>
	<rect x="1339.9" y="367.8" opacity="0.6" fill="#64CBED" width="8.5" height="55.5"/>
	<rect x="1354.1" y="367.8" opacity="0.6" fill="#64CBED" width="8.5" height="55.5"/>
	<rect x="1368.3" y="367.8" opacity="0.6" fill="#64CBED" width="8.5" height="55.5"/>
	<rect x="1382.5" y="367.8" opacity="0.6" fill="#64CBED" width="8.5" height="55.5"/>
	<rect x="1396.6" y="367.8" opacity="0.6" fill="#64CBED" width="8.5" height="55.5"/>
	<rect x="1410.8" y="367.8" opacity="0.6" fill="#64CBED" width="8.5" height="55.5"/>
	<rect x="1425" y="367.8" opacity="0.6" fill="#64CBED" width="8.5" height="55.5"/>
	<rect x="1439.2" y="367.8" opacity="0.6" fill="#64CBED" width="8.5" height="55.5"/>
	<rect x="1453.3" y="367.8" opacity="0.6" fill="#64CBED" width="8.5" height="55.5"/>
	<rect x="1467.5" y="367.8" opacity="0.6" fill="#64CBED" width="8.5" height="55.5"/>
	<rect x="1481.7" y="367.8" opacity="0.6" fill="#64CBED" width="8.5" height="55.5"/>
	<rect x="1495.9" y="367.8" opacity="0.6" fill="#64CBED" width="8.5" height="55.5"/>
	<rect x="1510.1" y="367.8" opacity="0.6" fill="#64CBED" width="8.5" height="55.5"/>
	<rect x="1524.2" y="367.8" opacity="0.6" fill="#64CBED" width="8.5" height="55.5"/>
	<rect x="1538.4" y="367.8" opacity="0.6" fill="#64CBED" width="8.5" height="55.5"/>
	<rect x="1552.6" y="367.8" opacity="0.6" fill="#64CBED" width="8.5" height="55.5"/>
	<rect x="1566.8" y="367.8" opacity="0.6" fill="#64CBED" width="8.5" height="55.5"/>
	<rect x="1580.9" y="367.8" opacity="0.6" fill="#64CBED" width="8.5" height="55.5"/>
	<rect x="1595.1" y="367.8" opacity="0.6" fill="#64CBED" width="8.5" height="55.5"/>
	<rect x="1609.3" y="367.8" opacity="0.6" fill="#64CBED" width="8.5" height="55.5"/>
	<rect x="1623.5" y="367.8" opacity="0.6" fill="#64CBED" width="8.5" height="55.5"/>
	<rect x="1637.7" y="367.8" opacity="0.6" fill="#64CBED" width="8.5" height="55.5"/>
	<rect x="1652.4" y="367.8" opacity="0.6" fill="#64CBED" width="8.5" height="55.5"/>
	<rect x="1667.1" y="367.8" opacity="0.6" fill="#64CBED" width="8.5" height="55.5"/>
	<rect x="1681.8" y="367.8" opacity="0.6" fill="#64CBED" width="8.5" height="55.5"/>
	<rect x="1696.6" y="367.8" opacity="0.6" fill="#64CBED" width="8.5" height="55.5"/>
	<rect x="1711.3" y="367.8" opacity="0.6" fill="#64CBED" width="8.5" height="55.5"/>
	<rect x="1726" y="367.8" opacity="0.6" fill="#64CBED" width="8.5" height="55.5"/>
	<rect x="1740.7" y="367.8" opacity="0.6" fill="#64CBED" width="8.5" height="55.5"/>
	<rect x="1755.5" y="367.8" opacity="0.6" fill="#64CBED" width="8.5" height="55.5"/>
</g>
</svg>
