<?xml version="1.0" encoding="utf-8"?>
<!-- Generator: Adobe Illustrator 18.0.0, SVG Export Plug-In . SVG Version: 6.00 Build 0)  -->
<!DOCTYPE svg PUBLIC "-//W3C//DTD SVG 1.1//EN" "http://www.w3.org/Graphics/SVG/1.1/DTD/svg11.dtd">
<svg version="1.1" id="Layer_1" xmlns="http://www.w3.org/2000/svg" xmlns:xlink="http://www.w3.org/1999/xlink" x="0px" y="0px"
	 viewBox="2623.3 368 612 54.5" enable-background="new 2623.3 368 612 54.5" xml:space="preserve">
<g>
	<rect x="2623.9" y="368.3" fill="#8BC53F" width="9.6" height="54.4"/>
	<rect x="2639.8" y="368.3" opacity="0.6" fill="#8BC53F" width="9.6" height="54.4"/>
	<rect x="2655.8" y="368.3" opacity="0.6" fill="#8BC53F" width="9.6" height="54.4"/>
	<rect x="2671.7" y="368.3" opacity="0.6" fill="#8BC53F" width="9.6" height="54.4"/>
	<rect x="2687.7" y="368.3" opacity="0.6" fill="#8BC53F" width="9.6" height="54.4"/>
	<rect x="2703.6" y="368.3" opacity="0.6" fill="#8BC53F" width="9.6" height="54.4"/>
	<rect x="2719.6" y="368.3" opacity="0.6" fill="#8BC53F" width="9.6" height="54.4"/>
	<rect x="2735.6" y="368.3" opacity="0.6" fill="#8BC53F" width="9.6" height="54.4"/>
	<rect x="2751.5" y="368.3" opacity="0.6" fill="#8BC53F" width="9.6" height="54.4"/>
	<rect x="2767.5" y="368.3" opacity="0.6" fill="#8BC53F" width="9.6" height="54.4"/>
	<rect x="2783.4" y="368.3" opacity="0.6" fill="#8BC53F" width="9.6" height="54.4"/>
	<rect x="2799.4" y="368.3" opacity="0.6" fill="#8BC53F" width="9.6" height="54.4"/>
	<rect x="2815.3" y="368.3" opacity="0.6" fill="#8BC53F" width="9.6" height="54.4"/>
	<rect x="2831.3" y="368.3" opacity="0.6" fill="#8BC53F" width="9.6" height="54.4"/>
	<rect x="2847.3" y="368.3" opacity="0.6" fill="#8BC53F" width="9.6" height="54.4"/>
	<rect x="2863.2" y="368.3" opacity="0.6" fill="#8BC53F" width="9.6" height="54.4"/>
	<rect x="2879.2" y="368.3" opacity="0.6" fill="#8BC53F" width="9.6" height="54.4"/>
	<rect x="2895.1" y="368.3" opacity="0.6" fill="#8BC53F" width="9.6" height="54.4"/>
	<rect x="2911.1" y="368.3" opacity="0.6" fill="#8BC53F" width="9.6" height="54.4"/>
	<rect x="2927.1" y="368.3" opacity="0.6" fill="#8BC53F" width="9.6" height="54.4"/>
	<rect x="2943.1" y="368.3" opacity="0.6" fill="#8BC53F" width="9.6" height="54.4"/>
	<rect x="2959.1" y="368.3" opacity="0.6" fill="#8BC53F" width="9.6" height="54.4"/>
	<rect x="2975" y="368.3" opacity="0.6" fill="#8BC53F" width="9.6" height="54.4"/>
	<rect x="2991" y="368.3" opacity="0.6" fill="#8BC53F" width="9.6" height="54.4"/>
	<rect x="3007" y="368.3" opacity="0.6" fill="#8BC53F" width="9.6" height="54.4"/>
	<rect x="3023" y="368.3" opacity="0.6" fill="#8BC53F" width="9.6" height="54.4"/>
	<rect x="3038.9" y="368.3" opacity="0.6" fill="#8BC53F" width="9.6" height="54.4"/>
	<rect x="3054.9" y="368.3" opacity="0.6" fill="#8BC53F" width="9.6" height="54.4"/>
	<rect x="3070.9" y="368.3" opacity="0.6" fill="#8BC53F" width="9.6" height="54.4"/>
	<rect x="3086.9" y="368.3" opacity="0.6" fill="#8BC53F" width="9.6" height="54.4"/>
	<rect x="3102.8" y="368.3" opacity="0.6" fill="#8BC53F" width="9.6" height="54.4"/>
</g>
</svg>
