<?xml version="1.0" encoding="utf-8"?>
<!-- Generator: Adobe Illustrator 18.0.0, SVG Export Plug-In . SVG Version: 6.00 Build 0)  -->
<!DOCTYPE svg PUBLIC "-//W3C//DTD SVG 1.1//EN" "http://www.w3.org/Graphics/SVG/1.1/DTD/svg11.dtd">
<svg version="1.1" id="Layer_1" xmlns="http://www.w3.org/2000/svg" xmlns:xlink="http://www.w3.org/1999/xlink" x="0px" y="0px"
	 viewBox="625.9 368.8 612 54.5" enable-background="new 625.9 368.8 612 54.5" xml:space="preserve">
<g>
	<rect x="625.9" y="368.8" fill="#F79820" width="9.6" height="54.6"/>
	<rect x="641.9" y="368.8" opacity="0.6" fill="#F79820" width="9.6" height="54.6"/>
	<rect x="657.9" y="368.8" opacity="0.6" fill="#F79820" width="9.6" height="54.6"/>
	<rect x="673.9" y="368.8" opacity="0.6" fill="#F79820" width="9.6" height="54.6"/>
	<rect x="689.9" y="368.8" opacity="0.6" fill="#F79820" width="9.6" height="54.6"/>
	<rect x="705.9" y="368.8" opacity="0.6" fill="#F79820" width="9.6" height="54.6"/>
	<rect x="721.9" y="368.8" opacity="0.6" fill="#F79820" width="9.6" height="54.6"/>
	<rect x="737.9" y="368.8" opacity="0.6" fill="#F79820" width="9.6" height="54.6"/>
	<rect x="753.9" y="368.8" opacity="0.6" fill="#F79820" width="9.6" height="54.6"/>
	<rect x="769.9" y="368.8" opacity="0.6" fill="#F79820" width="9.6" height="54.6"/>
	<rect x="785.9" y="368.8" opacity="0.6" fill="#F79820" width="9.6" height="54.6"/>
	<rect x="801.9" y="368.8" opacity="0.6" fill="#F79820" width="9.6" height="54.6"/>
	<rect x="817.9" y="368.8" opacity="0.6" fill="#F79820" width="9.6" height="54.6"/>
	<rect x="833.9" y="368.8" opacity="0.6" fill="#F79820" width="9.6" height="54.6"/>
	<rect x="849.9" y="368.8" opacity="0.6" fill="#F79820" width="9.6" height="54.6"/>
	<rect x="865.9" y="368.8" opacity="0.6" fill="#F79820" width="9.6" height="54.6"/>
	<rect x="881.9" y="368.8" opacity="0.6" fill="#F79820" width="9.6" height="54.6"/>
	<rect x="897.9" y="368.8" opacity="0.6" fill="#F79820" width="9.6" height="54.6"/>
	<rect x="913.9" y="368.8" opacity="0.6" fill="#F79820" width="9.6" height="54.6"/>
	<rect x="929.9" y="368.8" opacity="0.6" fill="#F79820" width="9.6" height="54.6"/>
	<rect x="945.9" y="368.8" opacity="0.6" fill="#F79820" width="9.6" height="54.6"/>
	<rect x="961.8" y="368.8" opacity="0.6" fill="#F79820" width="9.6" height="54.6"/>
	<rect x="977.8" y="368.8" opacity="0.6" fill="#F79820" width="9.6" height="54.6"/>
	<rect x="994.5" y="368.8" opacity="0.6" fill="#F79820" width="9.6" height="54.6"/>
	<rect x="1011.2" y="368.8" opacity="0.6" fill="#F79820" width="9.6" height="54.6"/>
	<rect x="1027.9" y="368.8" opacity="0.6" fill="#F79820" width="9.6" height="54.6"/>
	<rect x="1044.6" y="368.8" opacity="0.6" fill="#F79820" width="9.6" height="54.6"/>
	<rect x="1061.3" y="368.8" opacity="0.6" fill="#F79820" width="9.6" height="54.6"/>
	<rect x="1078" y="368.8" opacity="0.6" fill="#F79820" width="9.6" height="54.6"/>
	<rect x="1094.7" y="368.8" opacity="0.6" fill="#F79820" width="9.6" height="54.6"/>
	<rect x="1111.4" y="368.8" opacity="0.6" fill="#F79820" width="9.6" height="54.6"/>
	<rect x="1128.1" y="368.8" opacity="0.6" fill="#F79820" width="9.6" height="54.6"/>
	<rect x="1144.8" y="368.8" opacity="0.6" fill="#F79820" width="9.6" height="54.6"/>
	<rect x="1161.5" y="368.8" opacity="0.6" fill="#F79820" width="9.6" height="54.6"/>
	<rect x="1178.2" y="368.8" opacity="0.6" fill="#F79820" width="9.6" height="54.6"/>
	<rect x="1194.9" y="368.8" opacity="0.6" fill="#F79820" width="9.6" height="54.6"/>
	<rect x="1211.6" y="368.8" opacity="0.6" fill="#F79820" width="9.6" height="54.6"/>
	<rect x="1228.3" y="368.8" opacity="0.6" fill="#F79820" width="9.6" height="54.6"/>
</g>
</svg>
