<?xml version="1.0" encoding="utf-8"?>
<!-- Generator: Adobe Illustrator 18.0.0, SVG Export Plug-In . SVG Version: 6.00 Build 0)  -->
<!DOCTYPE svg PUBLIC "-//W3C//DTD SVG 1.1//EN" "http://www.w3.org/Graphics/SVG/1.1/DTD/svg11.dtd">
<svg version="1.1" id="Layer_1" xmlns="http://www.w3.org/2000/svg" xmlns:xlink="http://www.w3.org/1999/xlink" x="0px" y="0px"
	 viewBox="1979.8 368.3 612 54.5" enable-background="new 1979.8 368.3 612 54.5" xml:space="preserve">
<g>
	<rect x="1979.7" y="367.8" fill="#F05F24" width="9.7" height="55.5"/>
	<rect x="1995.8" y="367.8" opacity="0.6" fill="#F05F24" width="9.7" height="55.5"/>
	<rect x="2012" y="367.8" opacity="0.6" fill="#F05F24" width="9.7" height="55.5"/>
	<rect x="2028.1" y="367.8" opacity="0.6" fill="#F05F24" width="9.7" height="55.5"/>
	<rect x="2044.2" y="367.8" opacity="0.6" fill="#F05F24" width="9.7" height="55.5"/>
	<rect x="2060.3" y="367.8" opacity="0.6" fill="#F05F24" width="9.7" height="55.5"/>
	<rect x="2076.5" y="367.8" opacity="0.6" fill="#F05F24" width="9.7" height="55.5"/>
	<rect x="2092.6" y="367.8" opacity="0.6" fill="#F05F24" width="9.7" height="55.5"/>
	<rect x="2108.7" y="367.8" opacity="0.6" fill="#F05F24" width="9.7" height="55.5"/>
	<rect x="2124.8" y="367.8" opacity="0.6" fill="#F05F24" width="9.7" height="55.5"/>
	<rect x="2141" y="367.8" opacity="0.6" fill="#F05F24" width="9.7" height="55.5"/>
	<rect x="2157.1" y="367.8" opacity="0.6" fill="#F05F24" width="9.7" height="55.5"/>
	<rect x="2173.2" y="367.8" opacity="0.6" fill="#F05F24" width="9.7" height="55.5"/>
	<rect x="2189.3" y="367.8" opacity="0.6" fill="#F05F24" width="9.7" height="55.5"/>
	<rect x="2205.4" y="367.8" opacity="0.6" fill="#F05F24" width="9.7" height="55.5"/>
	<rect x="2221.6" y="367.8" opacity="0.6" fill="#F05F24" width="9.7" height="55.5"/>
	<rect x="2237.7" y="367.8" opacity="0.6" fill="#F05F24" width="9.7" height="55.5"/>
	<rect x="2253.8" y="367.8" opacity="0.6" fill="#F05F24" width="9.7" height="55.5"/>
	<rect x="2269.9" y="367.8" opacity="0.6" fill="#F05F24" width="9.7" height="55.5"/>
	<rect x="2286.1" y="367.8" opacity="0.6" fill="#F05F24" width="9.7" height="55.5"/>
	<rect x="2302.2" y="367.8" opacity="0.6" fill="#F05F24" width="9.7" height="55.5"/>
	<rect x="2318.3" y="367.8" opacity="0.6" fill="#F05F24" width="9.7" height="55.5"/>
	<rect x="2334.4" y="367.8" opacity="0.6" fill="#F05F24" width="9.7" height="55.5"/>
	<rect x="2350.5" y="367.8" opacity="0.6" fill="#F05F24" width="9.7" height="55.5"/>
	<rect x="2366.7" y="367.8" opacity="0.6" fill="#F05F24" width="9.7" height="55.5"/>
	<rect x="2383.5" y="367.8" opacity="0.6" fill="#F05F24" width="9.7" height="55.5"/>
	<rect x="2400.2" y="367.8" opacity="0.6" fill="#F05F24" width="9.7" height="55.5"/>
	<rect x="2417" y="367.8" opacity="0.6" fill="#F05F24" width="9.7" height="55.5"/>
	<rect x="2433.8" y="367.8" opacity="0.6" fill="#F05F24" width="9.7" height="55.5"/>
	<rect x="2450.6" y="367.8" opacity="0.6" fill="#F05F24" width="9.7" height="55.5"/>
	<rect x="2467.4" y="367.8" opacity="0.6" fill="#F05F24" width="9.7" height="55.5"/>
	<rect x="2484.2" y="367.8" opacity="0.6" fill="#F05F24" width="9.7" height="55.5"/>
	<rect x="2500.9" y="367.8" opacity="0.6" fill="#F05F24" width="9.7" height="55.5"/>
</g>
</svg>
